{"glyphs":{"0":{"ha":953,"x_min":69,"x_max":885,"o":"m 644 992 q 725 978 688 992 q 844 872 803 950 q 883 696 883 799 q 842 469 883 589 q 617 122 768 267 q 310 -26 460 -26 q 229 -12 267 -26 q 108 94 151 15 q 69 269 69 167 q 113 496 69 376 q 336 843 185 699 q 644 992 493 992 m 697 903 q 644 911 674 911 q 392 785 525 911 q 188 469 254 654 q 150 269 150 363 q 179 132 150 188 q 256 64 207 81 q 310 54 281 54 q 561 181 429 54 q 765 496 699 311 q 803 696 803 603 q 774 833 803 779 q 697 903 746 885 z "},"1":{"ha":707,"x_min":69,"x_max":646,"o":"m 197 718 l 575 968 q 605 974 589 978 q 631 957 621 971 q 631 914 644 936 l 140 17 l 69 54 l 483 811 l 242 651 l 197 718 z "},"2":{"ha":1164,"x_min":65,"x_max":1121,"o":"m 408 567 q 595 842 478 739 q 836 972 713 946 q 990 967 924 990 q 1088 868 1067 939 q 993 599 1119 756 q 838 442 931 521 q 642 294 744 363 q 453 174 539 225 q 281 76 368 124 l 739 79 l 739 -1 l 113 -4 q 74 19 85 -7 q 72 49 67 33 q 93 72 78 65 q 159 103 121 85 q 315 187 197 122 q 532 315 432 251 q 747 472 632 379 q 931 649 861 564 q 1011 846 1032 774 q 964 892 1001 878 q 853 893 918 907 q 645 780 747 871 q 483 538 543 689 l 408 567 z "},"3":{"ha":1088,"x_min":68,"x_max":1028,"o":"m 547 958 q 649 963 579 960 q 836 964 719 965 q 981 951 953 963 q 1006 933 996 946 q 1008 928 1007 931 q 1007 843 1028 897 q 956 750 992 803 q 842 615 908 679 q 707 518 775 551 q 806 474 769 507 q 847 361 851 431 q 806 243 843 307 q 716 134 772 186 q 588 47 660 82 q 446 7 515 11 q 158 -3 328 -1 q 72 -4 97 -3 l 69 76 q 158 78 93 76 q 442 88 321 79 q 608 151 525 93 q 738 285 692 210 q 767 367 764 331 q 750 415 768 397 q 526 432 699 463 l 526 433 q 483 456 497 428 q 482 485 476 469 q 503 508 488 501 l 671 589 q 752 643 710 608 q 828 716 794 678 q 889 794 863 754 q 932 872 919 839 q 938 881 933 876 q 550 878 864 892 l 547 958 z "},"4":{"ha":1039,"x_min":68,"x_max":974,"o":"m 651 271 l 178 271 q 69 350 69 271 q 304 647 69 440 l 306 649 q 308 651 307 650 q 560 838 429 757 q 789 956 690 919 q 885 979 847 976 q 964 940 946 982 q 968 899 972 922 q 869 613 960 853 q 719 221 779 374 q 632 3 658 68 l 558 32 q 560 38 558 32 q 567 56 563 44 q 578 84 572 68 q 593 121 585 100 q 610 165 601 142 q 630 215 619 188 q 651 271 640 243 m 178 351 l 676 351 l 676 333 q 885 899 857 799 q 817 881 860 896 q 600 769 724 846 q 361 590 476 692 q 360 589 361 590 l 358 588 l 358 588 q 150 350 150 404 q 152 351 150 350 q 162 351 154 351 q 178 351 169 351 z "},"5":{"ha":861,"x_min":68,"x_max":793,"o":"m 792 900 l 422 900 l 324 646 q 604 657 494 688 q 703 606 663 642 q 756 522 740 572 q 756 376 776 456 q 690 240 738 310 q 586 124 646 172 q 431 35 517 68 q 261 1 344 3 q 171 18 211 1 q 97 79 124 39 q 69 176 69 121 q 97 300 69 233 l 171 269 q 150 176 150 217 q 164 122 150 144 q 202 92 176 103 q 261 82 228 82 q 403 110 328 82 q 535 186 475 138 q 624 285 586 228 q 678 399 663 342 q 679 497 693 454 q 649 547 671 526 q 583 581 624 569 q 269 547 471 611 q 242 547 256 542 q 219 568 226 553 q 219 599 213 583 l 356 951 q 394 981 364 981 l 792 981 l 792 900 z "},"6":{"ha":900,"x_min":51,"x_max":832,"o":"m 725 665 q 750 788 751 735 q 731 857 750 829 q 685 892 714 881 q 628 900 660 901 q 425 815 531 899 l 425 815 q 261 603 321 732 q 217 499 236 547 q 460 613 328 590 q 594 610 533 625 q 701 544 663 593 q 719 315 769 460 q 554 92 672 174 q 281 11 431 7 q 117 78 171 14 q 76 303 51 153 q 114 450 86 368 q 189 636 142 535 q 375 878 256 782 q 628 981 501 979 q 713 967 674 982 q 797 903 767 947 q 831 788 829 856 q 800 638 832 721 l 725 665 m 157 296 l 156 290 q 176 129 138 176 q 283 92 208 93 q 508 158 407 88 q 644 342 604 225 q 639 494 679 444 q 575 532 617 522 q 474 533 531 543 q 292 456 381 518 q 157 296 204 393 z "},"7":{"ha":908,"x_min":68,"x_max":839,"o":"m 222 972 l 799 972 q 819 967 810 972 q 833 952 828 961 q 839 932 839 943 q 822 899 839 911 q 755 844 794 878 q 636 738 715 810 q 480 578 557 665 q 353 414 403 492 q 146 0 207 183 l 69 25 q 91 83 76 44 q 160 235 106 122 q 285 457 215 347 q 688 892 410 651 l 222 892 l 222 972 z "},"8":{"ha":944,"x_min":68,"x_max":876,"o":"m 863 736 q 733 582 829 644 q 681 553 708 567 q 757 489 728 528 q 799 360 799 432 q 783 269 799 315 q 608 63 739 147 q 340 -22 481 -22 q 224 -3 276 -22 q 111 76 153 22 q 69 206 69 133 q 86 296 69 250 q 260 504 129 418 q 390 565 321 543 q 361 596 372 581 q 328 694 328 639 q 340 764 328 729 q 469 918 374 856 q 669 981 565 981 q 757 967 717 981 q 843 904 811 947 q 875 806 875 861 q 863 736 875 772 m 719 360 q 693 440 719 406 q 618 493 667 475 q 529 507 578 507 q 304 436 413 507 q 163 269 196 367 q 150 206 150 236 q 175 125 150 160 q 251 72 201 90 q 340 58 290 58 q 565 129 457 58 q 707 296 672 199 q 719 360 719 329 m 533 600 q 689 649 614 600 q 786 764 763 697 q 794 806 794 786 q 778 857 794 835 q 729 890 761 879 q 669 900 703 900 q 514 851 589 900 q 417 736 440 803 q 408 694 408 715 q 425 643 408 665 q 474 610 442 621 q 533 600 500 600 z "},"9":{"ha":900,"x_min":68,"x_max":849,"o":"m 175 326 q 150 206 149 257 q 169 135 150 163 q 215 100 186 111 q 271 92 240 90 q 474 176 369 93 q 638 389 579 260 q 682 493 664 444 q 440 379 571 401 q 306 382 367 367 q 199 447 238 399 q 179 676 131 532 q 346 900 228 818 q 618 981 469 985 q 783 914 729 978 q 824 689 849 839 q 786 542 813 622 q 711 356 757 457 q 524 114 644 210 q 272 11 399 13 q 188 25 226 10 q 103 90 133 44 q 69 204 71 136 q 100 354 68 271 l 175 326 m 743 696 l 744 701 q 722 863 763 815 q 617 900 692 899 q 392 833 493 904 q 256 651 296 767 q 261 497 221 547 q 325 460 282 471 q 426 458 369 449 q 608 536 519 474 q 743 696 696 599 z "},"\u0000":{"ha":0,"x_min":0,"x_max":0,"o":""},"\n":{"ha":0,"x_min":0,"x_max":0,"o":""},"\r":{"ha":0,"x_min":0,"x_max":0,"o":""}," ":{"ha":722,"x_min":0,"x_max":0,"o":""},"!":{"ha":829,"x_min":67,"x_max":760,"o":"m 217 83 q 234 75 229 83 q 233 54 239 67 l 201 -14 q 184 -35 196 -26 q 160 -43 172 -43 l 88 -43 q 72 -35 76 -43 q 72 -14 67 -26 l 103 54 q 121 75 108 67 q 144 83 133 83 l 217 83 m 628 1065 l 760 1058 l 247 97 l 125 101 l 628 1065 z "},"#":{"ha":1018,"x_min":69,"x_max":949,"o":"m 949 667 l 949 586 l 760 586 l 643 354 l 790 354 l 790 274 l 601 274 l 493 60 l 422 96 l 511 274 l 307 274 l 199 60 l 128 96 l 217 274 l 69 274 l 69 354 l 258 354 l 375 586 l 228 586 l 228 667 l 415 667 l 522 876 l 594 840 l 506 667 l 710 667 l 817 876 l 889 840 l 800 667 l 949 667 m 553 354 l 669 586 l 465 586 l 347 354 l 553 354 z "},"$":{"ha":1090,"x_min":63,"x_max":1036,"o":"m 1001 968 q 1011 842 1036 915 q 971 750 997 801 q 913 656 942 696 l 847 703 q 900 788 874 738 q 935 867 924 833 q 935 925 947 904 q 933 926 933 926 q 892 951 921 943 q 838 957 869 958 l 597 536 q 653 517 632 525 q 731 464 710 492 q 733 335 768 413 q 565 115 679 211 q 331 -3 458 25 q 286 -10 310 -7 l 250 -74 l 181 -35 l 196 -7 q 169 -1 178 -4 q 86 69 113 19 q 72 176 63 115 q 167 374 86 271 l 229 324 q 151 165 163 238 q 158 106 146 129 q 196 75 168 85 q 239 68 213 69 l 476 488 q 401 524 429 503 q 367 558 381 539 q 349 602 354 576 q 351 658 344 628 q 379 729 358 689 q 435 817 400 769 q 599 964 503 908 q 788 1033 694 1019 l 825 1100 l 896 1060 l 881 1035 q 914 1029 900 1032 q 1000 972 971 1013 q 1001 968 1001 969 m 621 443 q 557 464 599 453 l 339 82 q 514 178 433 110 q 660 368 613 260 q 665 415 675 403 q 621 443 658 426 m 518 558 l 733 939 q 499 769 589 892 q 450 588 394 628 q 518 558 469 572 z "},"%":{"ha":1172,"x_min":69,"x_max":1104,"o":"m 1043 946 l 1103 939 l 135 79 l 69 81 l 1043 946 m 465 668 q 428 706 442 682 q 415 756 415 728 q 439 832 415 793 q 538 932 472 892 q 668 972 604 972 q 733 957 706 972 q 771 919 758 943 q 783 869 783 897 q 761 793 783 832 q 661 693 728 733 q 532 653 594 653 q 465 668 493 653 m 508 793 q 496 756 496 772 q 499 744 496 749 q 506 739 500 740 q 532 733 514 733 q 619 763 572 733 q 692 832 668 792 q 703 869 703 854 q 700 881 703 876 q 694 886 699 885 q 668 892 685 892 q 579 863 626 892 q 508 793 531 833 m 617 314 q 654 276 642 300 q 667 226 667 254 q 644 150 667 189 q 546 50 611 92 q 415 10 479 10 q 349 25 376 10 q 313 63 325 39 q 299 113 299 85 l 300 113 q 322 189 300 150 q 421 289 356 249 q 551 329 488 329 q 617 314 589 329 m 575 189 q 586 226 586 210 q 585 238 586 233 q 578 244 582 242 q 551 249 568 249 q 463 219 510 249 q 392 150 414 190 q 379 113 379 129 q 382 101 379 106 q 389 96 385 97 q 415 90 399 90 q 503 119 456 90 q 575 189 551 149 z "},"&":{"ha":1356,"x_min":57,"x_max":1294,"o":"m 1250 608 q 1286 497 1293 563 q 1147 290 1274 400 q 818 81 1004 167 q 996 63 896 51 l 1004 -17 q 718 40 836 -35 q 547 -9 631 8 q 390 -26 464 -26 q 157 42 246 -26 q 76 161 94 90 q 89 311 58 232 q 313 549 140 442 q 544 668 396 601 q 690 949 586 835 q 935 1075 793 1063 q 1092 1053 1033 1083 q 1140 994 1131 1031 q 1125 914 1150 957 q 907 746 1079 839 q 669 635 836 708 q 613 611 626 617 q 600 432 594 519 q 646 243 607 326 q 731 131 678 175 q 746 138 738 133 q 1094 350 944 219 q 1206 507 1199 440 q 1192 554 1210 535 q 1122 589 1169 576 q 938 590 1054 608 q 699 515 822 571 l 665 589 q 931 669 801 650 q 1140 667 1061 689 q 1250 608 1211 649 m 942 994 q 763 908 840 986 q 640 710 685 831 q 869 817 800 779 q 1057 956 1022 899 q 1063 974 1064 968 q 1053 982 1061 976 q 942 994 1017 1001 m 390 54 q 646 100 506 54 q 574 210 603 147 q 521 426 528 306 q 525 571 515 497 q 354 481 421 522 q 163 281 206 388 q 154 181 142 228 q 206 106 165 136 q 390 54 272 54 z "},"'":{"ha":314,"x_min":67,"x_max":246,"o":"m 219 1692 q 232 1690 226 1692 q 240 1683 238 1688 q 244 1672 243 1678 q 243 1658 246 1665 l 221 1579 q 219 1574 221 1576 l 194 1482 q 161 1464 189 1463 l 136 1464 q 119 1476 125 1465 q 117 1497 114 1486 l 131 1546 l 94 1546 q 74 1556 81 1546 q 71 1579 67 1565 l 93 1658 q 108 1682 96 1672 q 135 1692 121 1692 l 219 1692 z "},"(":{"ha":713,"x_min":4,"x_max":644,"o":"m 643 1058 q 185 524 282 789 q 242 18 93 271 l 172 -22 q 110 550 6 264 q 594 1122 215 839 l 643 1058 z "},")":{"ha":713,"x_min":69,"x_max":713,"o":"m 540 1111 q 597 522 713 817 q 118 -35 488 242 l 69 29 q 522 551 421 293 q 471 1071 624 810 l 540 1111 z "},"*":{"ha":574,"x_min":68,"x_max":504,"o":"m 504 1522 l 354 1472 l 460 1357 l 382 1290 l 283 1439 l 157 1296 l 89 1371 l 224 1474 l 69 1538 l 114 1631 l 242 1550 l 242 1701 l 336 1699 l 325 1536 l 467 1611 l 504 1522 z "},"+":{"ha":658,"x_min":69,"x_max":589,"o":"m 399 522 l 589 522 l 589 442 l 353 442 l 224 217 l 154 256 l 260 442 l 69 442 l 69 522 l 306 522 l 435 749 l 504 708 l 399 522 z "},",":{"ha":314,"x_min":67,"x_max":247,"o":"m 219 144 q 240 134 233 144 q 243 111 247 124 l 221 31 q 219 26 221 29 l 194 -67 q 161 -85 189 -86 l 136 -83 q 119 -73 125 -83 q 117 -51 114 -62 l 131 -3 l 94 -3 q 74 7 81 -3 q 71 31 67 17 l 93 111 q 108 134 96 124 q 135 144 121 144 l 219 144 z "},"-":{"ha":558,"x_min":67,"x_max":492,"o":"m 469 371 q 486 363 481 371 q 489 344 492 356 l 471 281 q 458 263 468 271 q 438 254 449 254 l 90 254 q 74 263 79 254 q 71 281 68 271 l 88 344 q 101 363 92 356 q 122 371 111 371 l 469 371 z "},".":{"ha":314,"x_min":67,"x_max":247,"o":"m 219 144 q 240 134 233 144 q 243 111 247 124 l 221 31 q 206 7 218 17 q 179 -3 193 -3 l 94 -3 q 74 7 81 -3 q 71 31 67 17 l 93 111 q 108 134 96 124 q 135 144 121 144 l 219 144 z "},"/":{"ha":571,"x_min":67,"x_max":504,"o":"m 485 1007 q 500 992 496 1007 q 500 965 504 976 l 182 25 q 171 15 179 17 q 151 15 163 14 l 86 19 q 71 35 75 21 q 71 61 67 50 l 386 996 q 390 1002 388 1000 q 395 1006 392 1004 q 401 1007 399 1007 q 410 1006 404 1007 q 418 1006 415 1006 l 485 1007 z "},":":{"ha":438,"x_min":67,"x_max":371,"o":"m 219 144 q 240 134 233 144 q 243 111 247 124 l 221 31 q 213 15 219 22 q 197 2 206 7 q 179 -3 188 -3 l 94 -3 q 74 7 81 -3 q 71 31 67 17 l 93 111 q 108 134 96 124 q 135 144 121 144 l 219 144 m 342 599 q 363 589 356 599 q 367 565 371 579 l 344 486 q 328 463 340 472 q 301 453 315 453 l 218 453 q 197 463 204 453 q 193 486 190 472 l 215 565 q 232 589 219 579 q 258 599 244 599 l 342 599 z "},";":{"ha":410,"x_min":67,"x_max":344,"o":"m 219 144 q 240 134 233 144 q 243 111 247 124 l 221 31 q 219 26 221 29 l 194 -67 q 161 -85 189 -86 l 136 -83 q 119 -73 125 -83 q 117 -51 114 -62 l 131 -3 l 94 -3 q 74 7 81 -3 q 71 31 67 17 l 93 111 q 108 134 96 124 q 135 144 121 144 l 219 144 m 315 599 q 336 589 329 599 q 340 565 343 579 l 318 486 q 301 463 314 472 q 275 453 289 453 l 192 453 q 171 463 178 453 q 167 486 164 472 l 189 565 q 206 589 193 579 q 232 599 218 599 l 315 599 z "},"=":{"ha":686,"x_min":69,"x_max":617,"o":"m 617 550 l 192 550 l 192 631 l 617 631 l 617 550 m 493 335 l 69 335 l 69 415 l 493 415 l 493 335 z "},"?":{"ha":942,"x_min":61,"x_max":874,"o":"m 219 71 q 236 63 232 71 q 235 42 240 54 l 204 -26 q 187 -47 199 -39 q 163 -56 175 -56 l 90 -56 q 74 -47 79 -56 q 75 -26 69 -39 l 106 42 q 124 63 111 54 q 147 71 136 71 l 219 71 m 828 1031 q 872 886 874 969 q 819 717 871 803 q 654 544 764 626 q 379 403 544 463 l 251 106 l 136 110 l 281 463 q 326 504 294 493 q 717 764 621 604 q 750 868 749 818 q 725 950 750 914 q 557 1011 672 1019 q 340 929 444 1001 q 238 829 276 886 q 193 719 199 774 q 218 614 188 664 l 110 540 q 71 711 61 618 q 140 886 79 800 q 283 1024 196 964 q 569 1131 419 1119 q 722 1110 656 1138 q 828 1031 789 1083 z "},"@":{"ha":1493,"x_min":51,"x_max":1431,"o":"m 1393 886 q 1424 749 1429 822 q 1376 615 1417 683 q 1290 505 1343 561 q 1178 404 1236 449 q 1064 326 1121 360 q 943 272 996 286 q 838 275 875 253 q 813 300 822 285 l 813 300 q 832 433 790 340 q 565 278 704 333 q 432 243 488 246 q 324 288 354 239 q 311 325 314 304 q 310 332 310 331 q 347 452 306 386 q 460 578 389 518 q 606 676 526 636 q 753 726 685 717 q 767 728 763 728 q 949 643 935 743 l 986 676 q 1015 687 999 688 q 1043 674 1032 686 q 1053 647 1053 663 q 1044 621 1053 632 q 1011 577 1031 603 q 955 499 992 551 q 897 403 918 446 q 882 343 875 360 q 921 349 890 340 q 1024 396 965 361 q 1184 514 1106 443 q 1307 657 1263 585 q 1343 757 1339 708 q 1324 845 1347 804 q 1251 917 1300 886 q 1074 969 1179 960 q 840 951 960 981 q 617 865 721 922 q 424 733 513 808 q 269 571 335 657 q 165 378 193 471 q 161 217 136 285 q 394 74 201 99 q 843 158 582 49 q 1074 283 971 213 q 1226 421 1176 353 l 1292 375 q 1124 219 1236 297 q 875 85 1011 142 q 385 -6 593 -33 q 85 190 143 26 q 88 400 53 282 q 206 619 121 508 q 372 794 275 713 q 581 937 468 875 q 825 1030 694 999 q 1081 1050 956 1061 q 1292 985 1204 1038 q 1393 886 1360 944 m 817 526 l 897 597 l 867 608 q 856 639 875 625 q 774 649 832 653 l 774 649 q 764 647 767 647 q 639 603 707 639 q 511 517 571 568 q 421 420 454 468 q 390 339 388 372 l 390 338 q 390 336 390 338 q 392 331 392 332 q 428 324 397 322 q 536 351 469 325 q 683 428 607 381 q 817 526 758 475 z "},"A":{"ha":1685,"x_min":61,"x_max":1763,"o":"m 1506 383 q 1478 213 1485 289 q 1481 59 1471 136 q 1521 -74 1490 -18 q 1612 -173 1551 -131 q 1761 -235 1672 -215 l 1744 -314 q 1426 -68 1499 -261 q 814 565 1131 394 l 454 1 l 358 1 l 740 600 q 469 656 600 658 q 219 572 319 651 q 165 513 183 543 q 150 460 146 483 q 193 431 156 439 l 176 351 q 106 385 132 361 q 72 443 79 410 q 89 541 63 489 q 171 636 115 593 q 467 735 292 731 q 783 668 621 740 l 835 746 q 883 829 844 763 q 943 931 921 893 q 1013 1045 965 969 q 1097 1171 1061 1121 q 1185 1284 1133 1221 q 1278 1387 1236 1347 q 1370 1456 1321 1426 q 1463 1490 1419 1485 q 1653 1456 1590 1503 q 1728 1310 1717 1410 q 1717 1151 1733 1247 q 1679 983 1700 1054 q 1615 772 1658 911 q 1506 383 1533 511 m 1394 122 q 1426 400 1393 242 q 1538 796 1456 531 q 1599 998 1579 929 q 1636 1157 1619 1067 q 1647 1301 1653 1247 q 1471 1410 1633 1428 q 1394 1378 1436 1406 q 1315 1315 1353 1351 q 1231 1218 1278 1278 q 1152 1111 1185 1158 q 1075 993 1119 1064 q 1009 885 1031 922 q 953 789 988 849 q 901 703 915 724 l 857 632 q 1394 122 1135 479 z "},"B":{"ha":1826,"x_min":69,"x_max":1861,"o":"m 1450 882 q 1351 803 1378 842 q 1344 790 1346 794 q 1396 778 1357 781 q 1499 761 1451 772 q 1701 650 1636 731 q 1753 469 1763 575 q 1744 424 1750 447 q 1644 242 1724 332 q 1432 82 1564 151 q 828 -74 1185 -49 l 821 -75 q 556 -28 622 -89 q 692 368 432 83 q 944 764 1003 711 q 801 772 914 792 l 350 3 l 257 3 l 694 749 q 200 589 554 713 q 96 553 147 571 l 69 628 q 174 664 83 633 q 747 840 588 808 l 1089 1424 q 1122 1471 1107 1454 q 1152 1494 1136 1488 q 1188 1502 1168 1501 q 1233 1501 1207 1503 q 1281 1500 1264 1500 q 1738 1425 1593 1500 q 1839 1319 1817 1383 q 1813 1172 1861 1251 q 1450 882 1732 1042 m 1285 849 q 1411 953 1322 901 q 1744 1214 1674 1101 q 1763 1294 1774 1261 q 1700 1354 1751 1328 q 1281 1419 1572 1421 q 1231 1421 1261 1419 q 1207 1421 1217 1421 q 1189 1417 1197 1421 q 1174 1406 1181 1414 q 1158 1383 1167 1399 l 849 854 q 999 824 957 861 q 750 314 1117 717 q 610 32 546 89 q 815 6 650 -6 l 821 7 q 1394 153 1163 31 q 1579 290 1510 214 q 1667 442 1649 365 q 1672 476 1671 461 q 1639 599 1679 550 q 1481 683 1592 658 q 1389 697 1438 693 q 1296 726 1328 703 q 1264 789 1264 750 q 1285 849 1264 818 m 1344 789 z "},"C":{"ha":1494,"x_min":47,"x_max":1600,"o":"m 1426 1471 q 1556 1374 1514 1439 q 1599 1229 1599 1310 q 1540 1039 1597 1132 q 1386 894 1481 946 q 1303 860 1346 872 q 1210 847 1260 849 q 1110 857 1161 846 q 1005 896 1060 868 q 896 965 950 924 q 867 989 886 974 q 837 1013 847 1004 q 810 1033 826 1021 q 785 1052 794 1046 q 764 1065 775 1058 q 746 1073 753 1071 q 733 1074 739 1075 q 715 1038 715 1068 q 729 958 714 1007 q 763 865 744 910 q 806 767 781 819 q 840 695 831 715 q 858 660 850 675 l 788 624 q 760 670 783 624 q 709 785 738 717 q 658 929 681 853 q 635 1065 636 1006 q 667 1151 635 1124 q 702 1165 682 1164 q 755 1153 722 1165 q 835 1110 788 1140 q 944 1029 882 1079 q 1094 945 1019 969 q 1231 928 1169 921 q 1347 964 1292 935 q 1472 1082 1424 1006 q 1518 1229 1518 1156 q 1489 1329 1518 1285 q 1399 1396 1460 1374 q 1275 1417 1346 1415 q 1113 1403 1203 1419 q 682 1213 899 1363 q 315 849 464 1061 q 151 360 131 582 q 239 157 164 238 q 440 51 314 76 q 1042 186 697 0 q 1192 271 1125 231 q 1279 325 1232 294 l 1324 258 q 1232 201 1275 228 q 1079 115 1163 160 q 726 -20 893 14 q 425 -28 558 -54 q 180 102 274 1 q 72 351 86 203 q 250 894 47 604 q 636 1279 406 1118 q 1097 1482 867 1439 q 1278 1497 1196 1500 q 1426 1471 1363 1494 z "},"D":{"ha":1665,"x_min":69,"x_max":1806,"o":"m 1719 1247 q 1794 944 1806 1118 q 1689 611 1785 781 q 1516 381 1621 490 q 1274 180 1411 272 q 963 24 1138 88 q 599 -64 789 -40 q 324 10 338 -96 q 330 53 322 29 q 360 106 338 76 q 401 158 382 135 q 461 220 421 182 q 526 281 501 258 q 600 347 551 303 q 683 422 654 396 q 758 492 711 447 q 829 564 804 536 q 881 626 854 592 q 919 686 908 660 q 925 732 929 713 q 631 806 914 814 l 161 3 l 69 3 l 535 800 q 125 753 367 788 l 114 832 q 581 879 390 874 l 899 1424 q 931 1471 917 1454 q 962 1494 946 1488 q 997 1502 978 1501 q 1044 1501 1017 1503 q 1092 1500 1075 1500 q 1482 1433 1325 1500 q 1719 1247 1639 1367 m 1714 950 q 1651 1203 1724 1096 q 1443 1363 1583 1306 q 1092 1419 1303 1419 q 1040 1421 1071 1419 q 1010 1421 1019 1422 q 990 1411 1001 1419 q 968 1383 979 1403 l 674 879 q 1006 744 986 874 q 999 679 1010 714 q 960 603 989 644 q 903 529 931 563 q 826 447 876 496 q 744 369 775 397 q 653 288 713 340 q 555 199 588 229 q 480 126 522 168 q 420 59 438 85 q 404 19 403 33 q 590 17 407 -6 q 826 63 711 31 q 1040 142 940 96 q 1227 244 1139 188 q 1388 367 1315 301 q 1519 504 1461 433 q 1618 650 1576 575 q 1714 950 1706 804 z "},"E":{"ha":1681,"x_min":68,"x_max":2143,"o":"m 1300 1521 q 1536 1530 1421 1529 q 1769 1522 1651 1531 q 1978 1503 1888 1514 q 2143 1479 2069 1492 l 2129 1400 q 1808 1439 1996 1424 q 1440 1449 1621 1454 l 997 696 l 1475 696 l 1475 615 l 950 615 l 639 86 l 1475 78 l 1474 -1 l 569 7 q 541 19 553 7 q 529 47 529 31 q 535 68 529 58 l 857 615 l 715 615 l 715 696 l 904 696 l 1344 1443 q 1307 1440 1314 1442 q 939 1351 1069 1419 q 799 1154 799 1278 q 822 1039 799 1103 q 676 699 953 694 q 118 875 474 701 q 69 900 92 888 l 107 971 q 576 794 389 824 q 772 910 783 763 q 747 1011 769 953 q 718 1154 718 1088 q 901 1422 718 1328 q 1300 1521 1046 1497 z "},"F":{"ha":1214,"x_min":69,"x_max":2143,"o":"m 2129 1400 q 1756 1443 1974 1428 q 1340 1443 1538 1458 l 1008 879 l 1689 879 l 1689 799 l 961 799 l 492 1 l 399 1 l 1242 1433 q 939 1351 1050 1410 q 799 1154 799 1278 q 822 1039 799 1103 q 676 699 953 694 q 118 875 474 701 q 69 900 92 888 l 107 971 q 526 804 342 847 q 772 906 781 746 q 747 1011 769 950 q 718 1154 718 1088 q 901 1422 718 1328 q 1300 1521 1046 1497 q 1536 1530 1421 1529 q 1769 1522 1651 1531 q 1978 1503 1888 1514 q 2143 1479 2069 1492 l 2129 1400 z "},"G":{"ha":1524,"x_min":53,"x_max":1817,"o":"m 1789 -143 l 1817 -219 q 1644 -269 1726 -251 q 1494 -290 1568 -285 q 1343 -285 1421 -294 q 1220 -263 1265 -275 q 1096 -229 1175 -251 q 918 -183 979 -194 q 856 -265 888 -224 q 493 -689 610 -587 q 199 -800 325 -835 q 117 -749 149 -786 q 75 -656 85 -711 q 114 -431 53 -550 q 199 -312 146 -368 q 328 -209 251 -257 q 515 -131 406 -161 q 751 -93 624 -100 q 882 -97 817 -90 q 1036 113 960 6 q 894 31 968 64 q 719 -24 808 -8 q 563 -34 631 -39 q 439 -10 494 -29 q 329 46 378 13 q 167 288 203 133 q 194 628 131 442 q 335 894 242 760 q 721 1279 490 1118 q 1182 1482 951 1439 q 1363 1497 1281 1500 q 1511 1471 1447 1494 q 1641 1374 1599 1439 q 1683 1229 1683 1310 q 1625 1039 1682 1132 q 1471 893 1565 946 q 1326 848 1401 857 q 1160 867 1251 839 q 981 965 1069 896 q 815 1053 863 1058 q 799 1004 797 1050 q 842 840 801 938 q 939 672 883 742 q 1036 608 994 603 l 1047 529 q 898 604 976 519 q 768 808 819 689 q 719 1001 721 919 q 806 1132 715 1121 q 1029 1029 886 1142 q 1179 945 1104 969 q 1316 928 1254 921 q 1432 964 1378 935 q 1557 1082 1508 1006 q 1603 1229 1603 1156 q 1574 1329 1603 1285 q 1483 1396 1544 1374 q 1360 1417 1432 1415 q 1197 1403 1288 1419 q 767 1213 983 1363 q 400 849 549 1061 q 271 601 313 722 q 246 306 214 438 q 375 113 275 182 q 465 67 417 83 q 572 46 513 50 q 708 56 631 42 q 863 104 786 69 q 1226 418 1067 197 q 1294 500 1269 479 q 1307 508 1301 506 q 1317 513 1311 511 q 1369 468 1374 528 q 1358 439 1368 456 q 1215 226 1329 390 q 971 -112 1100 61 q 1118 -151 1022 -124 q 1236 -185 1193 -174 q 1351 -205 1279 -196 q 1490 -210 1422 -214 q 1628 -190 1557 -206 q 1789 -143 1706 -174 m 792 -217 q 825 -174 811 -192 q 756 -174 790 -171 q 388 -267 532 -185 q 185 -468 244 -350 q 153 -640 138 -561 q 219 -722 167 -708 q 440 -628 306 -746 q 792 -217 550 -533 z "},"H":{"ha":1649,"x_min":-1,"x_max":2036,"o":"m 1258 -53 q 1360 -167 1286 -122 q 1528 -224 1426 -206 l 1514 -303 q 1319 -236 1397 -282 q 1183 -82 1221 -178 q 1169 114 1150 4 q 1269 365 1190 232 l 1388 564 l 607 564 l 274 0 l 179 0 l 556 635 l 556 644 l 561 644 l 1033 1444 q 1046 1475 1046 1465 q 1013 1479 1036 1479 q 800 1410 921 1476 q 265 1092 417 1200 q 150 994 147 1006 q 296 969 181 974 q 572 976 394 965 l 578 896 q 293 889 396 885 q 104 929 154 894 q 218 1157 0 1000 q 761 1481 372 1267 q 1010 1558 900 1556 q 1082 1546 1053 1560 q 1126 1483 1122 1526 q 1103 1404 1129 1449 l 654 644 l 1436 644 l 1942 1499 l 2036 1499 l 1339 324 q 1249 100 1267 203 q 1258 -53 1233 13 z "},"I":{"ha":811,"x_min":65,"x_max":1210,"o":"m 1210 1469 q 1204 1449 1210 1458 l 417 113 l 417 113 q 246 -33 335 -25 q 115 49 165 -40 q 71 242 76 119 q 85 410 67 318 q 144 600 103 501 q 261 794 185 699 q 440 957 338 890 q 797 1083 814 1206 q 496 629 782 974 q 460 586 475 606 l 399 639 q 576 847 542 804 q 656 1003 714 1019 q 485 890 615 992 q 289 684 368 801 q 178 457 210 567 q 150 244 146 347 q 186 88 154 146 q 239 46 211 43 q 347 153 288 50 l 1099 1429 l 939 1428 l 939 1508 l 1169 1510 q 1198 1498 1186 1510 q 1210 1469 1210 1486 z "},"J":{"ha":1136,"x_min":57,"x_max":1586,"o":"m 1579 1449 l 761 29 l 739 -10 l 756 -37 q 815 -137 794 -103 q 873 -228 835 -172 q 940 -315 911 -283 q 1006 -375 968 -346 q 1081 -415 1044 -404 l 1058 -492 q 970 -448 1014 -479 q 893 -382 926 -417 q 819 -291 860 -347 q 756 -195 779 -235 q 693 -90 732 -156 l 438 -533 l 438 -533 q 235 -761 324 -726 q 122 -732 168 -786 q 76 -614 89 -693 q 86 -325 58 -497 q 181 -8 114 -153 q 348 244 267 182 q 511 269 429 307 q 692 68 590 232 l 1476 1429 l 1315 1428 l 1315 1508 l 1546 1510 q 1574 1498 1563 1510 q 1586 1469 1586 1486 q 1579 1449 1586 1458 m 368 -493 l 646 -11 q 555 127 594 75 q 478 196 515 179 q 376 163 431 217 q 253 -42 322 108 q 165 -336 192 -176 q 156 -603 139 -496 q 183 -681 164 -658 q 207 -686 192 -692 q 368 -493 268 -662 z "},"K":{"ha":1575,"x_min":-1,"x_max":1847,"o":"m 1846 1481 q 1378 900 1715 1094 q 1049 763 1238 818 q 1301 721 1229 767 q 1282 389 1438 632 q 1238 293 1253 344 q 1242 67 1203 178 q 1389 -118 1282 -50 q 1501 -169 1439 -151 l 1479 -247 q 1346 -186 1406 -225 q 1165 40 1215 -103 q 1160 315 1118 176 q 1214 433 1179 378 q 1257 653 1326 608 q 1151 679 1225 674 q 1016 681 1076 685 q 839 667 956 678 q 660 653 721 656 l 274 0 l 179 0 l 1033 1444 q 1046 1475 1046 1465 q 1013 1479 1036 1479 q 800 1410 921 1476 q 265 1092 417 1200 q 150 994 147 1006 q 296 969 181 974 q 572 976 394 965 l 578 896 q 293 889 396 885 q 104 929 154 894 q 218 1157 0 1000 q 761 1481 372 1267 q 1010 1558 900 1556 q 1082 1546 1053 1560 q 1126 1483 1122 1526 q 1103 1404 1129 1449 l 728 771 q 1339 969 1117 840 q 1761 1481 1638 1142 l 1846 1481 z "},"L":{"ha":1115,"x_min":19,"x_max":899,"o":"m 678 72 q 897 75 825 75 l 897 -6 q 679 -8 826 -4 q 461 -10 561 -10 q 273 2 361 -11 q 138 43 185 15 q 107 258 19 113 l 107 260 l 744 1357 l 746 1358 q 794 1467 790 1435 q 724 1443 769 1465 q 488 1288 624 1394 q 257 1078 351 1182 q 165 936 175 990 q 164 915 163 924 q 171 906 167 910 q 208 890 182 894 l 193 811 q 117 846 144 821 q 88 893 94 867 q 86 953 79 921 q 197 1132 101 1026 q 440 1353 297 1242 q 688 1515 583 1464 q 796 1547 754 1547 q 875 1478 871 1549 q 815 1318 878 1424 l 814 1317 l 176 219 l 175 218 q 179 113 131 140 q 379 72 233 79 q 678 72 525 65 z "},"M":{"ha":2565,"x_min":-1,"x_max":2689,"o":"m 2656 1364 q 2672 1183 2688 1289 q 2603 926 2656 1075 q 2465 601 2550 778 q 2328 323 2381 425 q 2197 74 2276 221 q 2174 31 2183 47 q 2158 0 2165 14 l 2068 0 q 2126 111 2081 24 q 2256 356 2204 256 q 2390 630 2307 457 q 2526 947 2474 803 q 2593 1194 2578 1092 q 2582 1332 2606 1278 q 2523 1393 2563 1374 q 2431 1406 2483 1413 q 2289 1340 2356 1396 q 2153 1198 2226 1289 q 2021 1022 2079 1107 q 1885 805 1963 936 q 1767 601 1807 674 q 1657 401 1726 528 q 1522 164 1556 217 q 1431 113 1488 110 q 1389 125 1408 114 q 1357 153 1369 135 q 1346 246 1324 196 q 1689 935 1411 382 q 1749 1053 1743 1040 q 1821 1286 1817 1189 q 1806 1379 1824 1342 q 1760 1425 1789 1410 q 1704 1439 1736 1438 q 1401 1263 1574 1444 q 1072 825 1272 1128 q 568 4 876 528 l 565 0 l 472 0 l 953 1154 q 958 1183 961 1174 q 953 1189 958 1186 q 911 1193 939 1194 q 719 1125 822 1188 q 243 808 375 915 q 153 711 138 721 q 308 683 190 688 q 583 690 407 681 l 588 611 q 306 603 408 600 q 111 642 167 608 q 193 869 0 711 q 678 1194 328 981 q 906 1274 797 1267 q 985 1263 953 1276 q 1038 1200 1028 1243 q 1026 1125 1044 1167 l 1026 1124 l 760 481 q 1006 869 893 699 q 1343 1318 1208 1178 q 1708 1518 1540 1526 q 1794 1497 1757 1517 q 1876 1414 1849 1471 q 1900 1283 1904 1360 q 1821 1018 1896 1168 q 1761 899 1815 1006 q 1419 211 1483 347 q 1421 200 1417 206 q 1427 195 1424 197 q 1435 193 1431 193 q 1454 207 1446 193 q 1586 440 1486 257 q 1699 643 1657 568 q 1819 851 1740 718 q 1959 1072 1899 985 q 2095 1253 2019 1160 q 2238 1401 2171 1347 q 2421 1485 2321 1472 q 2557 1465 2497 1494 q 2656 1364 2625 1433 z "},"N":{"ha":1667,"x_min":64,"x_max":1832,"o":"m 1807 1394 q 1828 1257 1832 1339 q 1649 735 1818 1063 q 1390 206 1558 564 q 1293 0 1322 60 l 1204 0 q 1318 239 1238 69 q 1576 772 1486 600 q 1747 1260 1739 1083 q 1733 1363 1750 1322 q 1732 1365 1732 1364 q 1690 1410 1718 1394 q 1636 1422 1668 1421 q 1526 1411 1581 1425 q 1420 1367 1471 1397 q 1322 1301 1369 1338 q 1226 1213 1274 1264 q 1139 1112 1179 1161 q 1057 1001 1099 1063 q 983 890 1015 939 q 915 779 951 840 q 1425 868 1165 817 l 1440 789 q 867 697 1194 738 l 858 683 q 842 654 850 668 q 832 638 833 640 l 456 0 l 358 0 l 629 674 q 410 666 514 664 q 229 679 307 668 q 108 721 151 690 q 71 799 64 751 q 154 953 78 861 q 339 1129 231 1044 q 554 1268 447 1214 q 735 1329 658 1321 q 875 1268 836 1339 q 846 1000 919 1185 l 749 756 q 814 765 781 760 q 897 903 861 846 q 991 1046 933 961 q 1099 1190 1049 1131 q 1216 1314 1149 1249 q 1347 1419 1283 1379 q 1488 1483 1411 1458 q 1639 1503 1564 1507 q 1728 1481 1689 1500 q 1806 1399 1779 1454 q 1807 1394 1806 1396 m 150 789 q 185 744 146 760 q 297 726 224 728 q 459 728 371 724 q 657 746 547 733 l 771 1029 q 804 1229 831 1179 q 743 1249 792 1254 q 590 1196 682 1243 q 299 993 439 1119 q 150 789 160 867 m 763 678 l 768 686 q 718 682 743 685 l 619 436 l 763 678 z "},"O":{"ha":1379,"x_min":54,"x_max":1494,"o":"m 1454 1322 q 1479 1115 1493 1236 q 1415 882 1467 1011 q 1263 578 1356 732 q 1057 288 1168 422 q 844 83 944 153 q 601 -18 736 8 q 325 -31 469 -64 q 274 -17 299 -25 q 74 244 100 42 q 121 593 54 394 q 307 968 183 782 q 486 1190 389 1089 q 693 1367 583 1290 q 925 1480 803 1443 q 1164 1503 1047 1517 q 1293 1471 1238 1494 q 1454 1322 1410 1425 m 1399 1125 q 1382 1290 1411 1225 q 1264 1397 1349 1363 q 1156 1422 1217 1415 q 1011 1417 1085 1431 q 868 1373 938 1404 q 731 1295 799 1342 q 599 1190 663 1249 q 480 1064 536 1131 q 374 922 424 997 q 196 567 256 747 q 153 256 136 386 q 299 60 174 101 q 343 47 319 53 q 625 79 496 13 q 804 293 756 149 q 815 333 811 313 q 806 601 874 586 q 767 601 790 606 q 714 584 744 597 q 663 561 683 571 q 606 532 642 551 q 450 472 492 472 q 378 546 379 471 q 392 638 376 586 q 466 797 414 713 q 588 951 518 881 q 942 1128 760 1124 q 1050 1114 997 1129 l 1028 1036 q 943 1049 986 1049 q 644 894 793 1044 q 535 756 582 831 q 468 615 488 681 q 457 553 458 579 q 568 603 481 558 q 601 620 590 614 q 633 636 613 626 q 667 651 654 646 q 700 665 681 657 q 733 676 719 672 q 764 682 747 679 q 795 684 781 685 q 824 681 810 683 q 893 315 971 646 q 881 268 889 292 q 842 182 865 222 q 994 339 913 240 q 1193 619 1103 469 q 1340 911 1283 769 q 1399 1125 1388 1031 z "},"P":{"ha":1279,"x_min":68,"x_max":1631,"o":"m 1626 1068 q 1613 935 1631 1001 q 1519 746 1588 839 q 1338 574 1450 653 q 811 360 1128 425 q 715 363 761 349 q 642 415 665 376 q 632 532 615 461 q 818 860 660 653 q 867 943 856 910 q 865 991 878 976 q 822 1010 851 1006 q 750 1007 793 1014 l 163 0 l 69 0 l 643 982 q 343 872 499 940 l 311 946 q 701 1082 521 1038 l 901 1424 q 958 1490 933 1478 q 1038 1499 982 1501 l 1039 1499 q 1092 1500 1069 1499 q 1265 1482 1181 1504 q 1517 1331 1418 1443 q 1626 1068 1618 1215 m 1535 954 q 1546 1064 1550 1010 q 1457 1278 1540 1183 q 1244 1404 1374 1371 q 1096 1419 1174 1424 q 1036 1419 1071 1418 l 1035 1419 q 1015 1419 1024 1419 q 1000 1415 1007 1418 q 986 1405 993 1413 q 971 1383 979 1397 l 807 1104 q 901 1109 858 1110 q 967 1089 944 1108 q 994 1038 990 1069 q 969 947 997 1006 q 882 811 942 889 q 710 514 733 618 q 711 456 701 475 q 736 439 718 444 q 794 439 764 432 q 1292 639 1096 500 q 1535 954 1489 779 z "},"Q":{"ha":1806,"x_min":69,"x_max":1747,"o":"m 1708 1322 q 1732 1115 1747 1236 q 1668 882 1719 1011 q 1515 578 1608 732 q 1310 288 1422 422 q 969 -8 1133 75 q 624 -60 800 -94 q 836 -225 726 -183 q 1317 -190 1007 -287 l 1340 -267 q 808 -300 1006 -372 q 638 -192 715 -265 q 479 0 561 -119 q 478 1 479 0 q 476 3 478 1 q 469 6 475 3 q 460 11 463 10 q 383 85 414 40 q 328 100 357 97 q 276 99 300 103 q 228 86 253 96 q 186 67 203 76 q 153 47 169 58 q 132 31 138 35 q 122 24 126 26 l 69 83 q 85 96 76 89 q 123 122 93 103 q 183 156 153 142 q 256 178 213 169 q 339 183 299 188 q 329 233 332 210 q 368 538 313 364 q 634 1036 446 786 q 1038 1414 822 1286 q 1226 1490 1126 1467 q 1417 1503 1326 1514 l 1418 1503 q 1547 1471 1490 1494 q 1708 1322 1663 1425 m 1653 1125 q 1635 1290 1664 1225 q 1517 1397 1603 1363 q 1408 1422 1471 1415 l 1407 1424 q 1244 1411 1331 1432 q 1079 1344 1157 1390 q 697 986 875 1224 q 444 514 518 749 q 410 243 394 356 q 438 150 415 190 q 531 64 488 121 q 867 64 647 13 q 1008 239 956 86 q 1052 453 1042 335 q 1049 629 1063 571 l 1128 643 q 1132 448 1143 579 q 1085 213 1121 317 q 1056 144 1071 176 q 1249 339 1147 218 q 1446 619 1356 469 q 1594 911 1538 769 q 1653 1125 1642 1031 z "},"R":{"ha":1632,"x_min":58,"x_max":1904,"o":"m 1813 1289 q 1858 981 1903 1151 q 1749 778 1832 876 q 1529 624 1667 681 q 946 588 1290 522 q 892 565 907 594 q 882 432 867 521 q 957 229 899 332 q 1064 90 1001 153 q 1210 -24 1126 26 q 1405 -94 1294 -74 q 1639 -97 1515 -114 l 1650 -178 q 1389 -173 1513 -196 q 1172 -94 1265 -150 q 1008 33 1078 -37 q 889 189 938 103 q 803 418 821 304 q 821 604 782 536 q 960 667 865 685 q 1499 697 1281 606 q 1688 830 1618 747 q 1781 1000 1758 913 q 1746 1244 1817 1136 q 1501 1417 1668 1361 q 1429 1438 1463 1429 q 1367 1447 1396 1446 q 1317 1447 1339 1447 q 1272 1438 1294 1447 q 1235 1421 1250 1428 q 1203 1394 1221 1414 q 1174 1363 1185 1375 q 1147 1323 1164 1350 q 1120 1280 1129 1296 q 1093 1229 1111 1264 q 1039 1133 1057 1163 l 981 1032 q 1408 1017 1176 1043 l 1400 938 q 932 949 1142 967 l 388 15 q 261 -69 335 -74 q 147 8 199 -65 q 78 194 94 82 q 83 433 60 308 q 182 668 107 557 q 449 901 276 807 q 883 1025 621 996 l 969 1174 q 1022 1268 992 1211 q 1078 1366 1060 1335 q 1131 1442 1097 1397 q 1197 1501 1165 1486 q 1277 1528 1229 1515 q 1386 1530 1325 1540 q 1526 1493 1447 1519 q 1813 1289 1721 1429 m 318 57 l 832 938 q 249 622 419 876 q 162 416 183 525 q 157 207 140 307 q 200 68 169 124 q 265 11 231 13 q 318 57 290 10 z "},"S":{"ha":1535,"x_min":26,"x_max":1756,"o":"m 1750 1256 q 1751 1222 1751 1239 q 1604 954 1756 1049 q 1314 867 1494 885 q 1221 861 1268 861 l 1219 942 q 1307 946 1264 942 q 1561 1021 1468 963 q 1672 1221 1674 1092 q 1671 1249 1672 1233 q 1628 1363 1663 1319 q 1497 1426 1583 1417 q 1307 1397 1411 1435 q 1155 1317 1226 1368 q 1036 1203 1083 1267 q 985 1123 1006 1161 q 955 1053 965 1085 q 944 992 944 1022 q 948 939 944 961 q 967 892 951 917 q 993 851 982 867 q 1029 815 1004 836 q 1068 782 1054 793 q 1110 750 1082 771 q 1151 718 1138 729 q 1187 688 1165 707 q 1223 653 1208 669 q 1249 618 1238 636 q 1292 371 1322 496 q 1138 140 1261 246 q 928 14 1044 60 q 703 -37 813 -32 q 490 -19 594 -43 q 292 88 369 13 q 189 283 207 168 q 186 375 182 328 q 85 651 26 443 q 153 810 108 733 q 254 944 199 888 q 366 1043 310 1001 q 476 1110 422 1085 q 603 1142 551 1144 q 678 1057 686 1136 q 550 863 669 985 q 275 433 322 628 q 372 423 317 424 q 480 428 428 422 q 592 444 532 433 q 695 465 651 456 q 783 488 739 475 q 843 505 828 500 q 869 513 858 510 l 894 436 q 871 429 881 432 q 812 413 861 426 q 721 389 763 399 q 615 367 679 379 q 494 350 550 356 q 376 344 439 344 q 264 353 314 344 q 268 296 264 322 q 347 146 282 207 q 511 58 410 85 q 651 41 576 42 q 799 57 725 40 q 948 110 874 74 q 1085 200 1022 147 q 1214 389 1190 290 q 1179 576 1236 482 q 1061 686 1157 614 q 994 738 1017 719 q 936 792 972 756 q 886 856 900 828 q 860 930 872 885 q 858 1019 849 975 q 895 1124 868 1064 q 972 1250 922 1183 q 1107 1382 1025 1324 q 1281 1472 1189 1440 q 1504 1506 1401 1515 q 1690 1413 1625 1493 q 1750 1256 1740 1351 m 597 1065 l 597 1063 l 597 1065 m 163 629 q 201 465 131 517 q 493 918 258 676 q 597 1061 589 1017 q 511 1038 567 1064 q 303 879 406 988 q 163 629 201 771 z "},"T":{"ha":885,"x_min":68,"x_max":1986,"o":"m 789 1496 q 1192 1510 968 1514 q 1608 1490 1415 1506 q 1986 1451 1801 1475 l 1976 1372 q 1179 1429 1561 1426 l 338 0 l 244 0 l 1086 1429 q 796 1417 928 1429 q 396 1329 533 1393 q 257 1163 254 1264 q 271 1096 257 1132 q 318 938 304 1008 q 329 822 332 868 q 310 744 326 776 q 272 694 293 711 q 221 668 251 676 q 168 659 190 660 q 118 661 146 658 q 83 666 90 664 q 69 669 76 668 l 92 747 q 203 763 160 728 q 196 1068 286 826 q 176 1161 178 1117 q 363 1403 172 1315 q 789 1496 513 1471 z "},"U":{"ha":2008,"x_min":67,"x_max":2329,"o":"m 2226 1526 q 2285 1572 2251 1563 q 2324 1556 2318 1581 q 2292 1479 2329 1532 l 2269 1446 q 2201 1346 2232 1392 q 2099 1188 2171 1300 q 1972 978 2028 1075 q 1846 749 1917 882 q 1727 503 1775 615 q 1642 270 1679 390 q 1599 57 1606 150 q 1829 -233 1579 -215 l 1824 -312 q 1518 63 1493 -289 q 1767 771 1538 326 q 1566 535 1663 640 q 1352 324 1469 429 q 1122 147 1235 218 q 881 29 1010 75 q 628 -21 753 -17 q 461 15 526 -24 q 394 82 418 40 q 368 179 369 124 q 453 442 365 289 l 514 546 q 439 540 475 542 q 160 586 249 538 q 69 725 71 635 q 200 988 68 835 q 529 1290 332 1142 q 886 1510 715 1429 q 1110 1561 1057 1592 q 1110 1410 1175 1522 l 676 664 q 963 778 806 704 q 1703 1214 1293 932 l 1747 1149 q 996 704 1333 863 q 618 565 785 606 l 522 401 q 449 182 446 268 q 464 122 449 147 q 501 85 476 99 q 625 60 547 57 q 861 108 740 63 q 1083 215 982 154 q 1303 387 1183 276 q 1503 583 1422 497 q 1698 815 1583 669 q 1871 1039 1813 960 q 2035 1264 1929 1118 q 2211 1506 2158 1436 l 2226 1526 m 439 621 q 567 636 496 622 l 1040 1450 q 1056 1474 1049 1464 q 1067 1488 1064 1485 q 1069 1492 1069 1492 q 891 1432 1036 1511 q 578 1226 746 1353 q 271 951 393 1088 q 150 726 149 815 q 439 621 151 615 z "},"V":{"ha":1365,"x_min":68,"x_max":1888,"o":"m 1822 1497 l 1886 1449 l 758 -35 q 731 -50 747 -47 q 701 -42 715 -53 q 686 -7 685 -29 l 736 1322 q 708 1407 739 1383 q 671 1419 693 1418 q 614 1404 644 1419 q 524 1326 565 1381 q 464 1190 483 1271 q 458 1144 458 1168 q 461 1101 458 1121 q 473 1058 464 1082 q 490 1017 482 1033 q 512 976 497 1000 q 535 938 526 951 q 560 901 543 925 q 597 841 585 861 q 622 792 610 821 q 633 738 633 763 q 608 671 633 699 q 519 622 582 643 q 344 591 456 601 q 69 579 233 581 l 69 660 q 363 669 254 660 q 513 696 472 679 q 554 738 554 713 q 492 857 554 764 q 464 900 474 885 q 438 944 454 915 q 412 992 421 972 q 393 1042 403 1013 q 380 1096 383 1071 q 377 1151 376 1121 q 386 1210 378 1181 q 434 1331 403 1276 q 501 1422 465 1386 q 578 1476 538 1457 q 672 1499 625 1500 q 758 1469 722 1499 q 817 1319 821 1421 l 771 115 l 1822 1497 z "},"W":{"ha":2163,"x_min":69,"x_max":2549,"o":"m 2549 1485 l 1654 -53 q 1653 -56 1654 -54 q 1561 -81 1613 -115 q 1510 5 1535 -61 q 1465 186 1486 71 q 1433 378 1444 301 q 1403 589 1421 456 q 1382 735 1389 693 l 674 -37 q 645 -51 661 -50 q 617 -40 629 -51 q 604 -1 600 -24 l 810 1317 q 808 1344 810 1331 q 774 1414 801 1388 q 708 1442 746 1440 q 688 1440 699 1443 q 536 1343 607 1428 q 461 1164 469 1261 q 465 1004 456 1088 q 484 876 474 921 q 515 758 494 831 q 529 707 525 724 q 540 660 533 690 q 545 619 546 631 q 543 582 544 607 q 488 506 533 529 q 343 486 443 483 q 69 519 243 489 l 83 599 q 308 566 226 574 q 424 565 389 558 q 464 596 460 572 q 438 738 469 625 q 406 862 417 814 q 385 999 394 910 q 381 1171 375 1088 q 475 1394 390 1293 q 536 1454 503 1428 q 605 1497 569 1481 q 675 1519 640 1514 q 711 1522 693 1524 q 829 1472 779 1519 q 888 1357 876 1426 q 890 1313 890 1335 q 889 1307 890 1310 l 703 114 l 1376 847 q 1394 858 1383 856 q 1424 856 1410 864 q 1444 833 1439 849 q 1482 600 1454 803 q 1593 3 1551 79 l 2479 1525 l 2549 1485 z "},"X":{"ha":1804,"x_min":69,"x_max":2133,"o":"m 1304 699 q 1449 221 1364 496 q 1514 0 1501 47 l 1431 0 q 1371 197 1417 49 q 1239 639 1293 457 l 532 0 l 413 0 l 1214 725 q 1067 1239 1140 978 q 974 1432 1024 1396 q 928 1435 956 1446 q 885 1410 906 1426 q 846 1368 864 1394 q 813 1317 828 1342 q 783 1253 799 1293 q 758 1185 768 1213 q 734 1106 749 1157 q 712 1028 719 1056 q 690 944 704 1000 q 644 772 661 832 q 594 631 626 711 q 525 501 561 550 q 415 407 475 433 q 266 402 354 381 q 69 504 178 424 l 117 568 q 235 498 181 521 q 330 476 289 475 q 403 496 371 478 q 461 549 435 514 q 523 667 493 592 q 569 799 553 742 q 613 964 585 857 q 636 1056 628 1025 q 660 1141 644 1086 q 688 1227 676 1196 q 718 1303 700 1258 q 754 1374 736 1347 q 794 1431 772 1401 q 843 1479 817 1460 q 899 1510 869 1499 q 1021 1497 967 1536 q 1144 1261 1094 1444 q 1279 785 1211 1019 l 2014 1450 l 2133 1450 l 1304 699 z "},"Y":{"ha":2106,"x_min":67,"x_max":2431,"o":"m 2408 1521 q 2410 1460 2431 1504 q 2408 1457 2410 1458 q 2361 1375 2399 1435 q 1526 -97 1803 492 q 1683 -144 1579 -112 q 1794 -178 1756 -167 q 1897 -206 1832 -190 q 2006 -226 1963 -221 q 2105 -229 2050 -231 q 2207 -217 2160 -228 l 2228 -294 q 2092 -312 2161 -311 q 1941 -297 2022 -314 q 1808 -266 1860 -281 q 1658 -221 1756 -251 q 1492 -171 1549 -186 q 1438 -296 1463 -236 q 1186 -721 1328 -554 q 881 -940 1035 -896 q 646 -893 724 -985 q 594 -715 590 -829 q 646 -497 597 -612 q 737 -337 682 -412 q 864 -197 792 -261 q 1031 -94 936 -133 q 1226 -53 1125 -56 q 1447 -78 1325 -50 q 1892 760 1618 289 q 1726 564 1806 653 q 1553 385 1646 475 q 1366 225 1460 294 q 1174 100 1272 156 q 970 14 1075 44 q 761 -21 865 -17 q 594 15 661 -24 q 528 82 551 40 q 501 179 503 124 q 588 442 499 289 l 1106 1340 q 1139 1401 1128 1376 q 1121 1388 1131 1396 q 1034 1305 1086 1360 q 944 1205 982 1250 q 832 1071 906 1160 q 736 956 769 996 q 641 847 703 917 q 540 740 579 778 q 446 651 501 701 q 349 576 390 601 q 263 535 308 551 q 179 521 218 518 q 117 540 143 524 q 69 631 72 569 q 100 753 67 683 q 418 1132 176 913 l 472 1072 q 172 718 242 865 q 150 633 149 667 q 161 607 150 614 q 185 600 169 601 q 230 605 206 599 q 282 628 254 611 q 335 662 310 644 q 394 710 361 679 q 453 765 428 740 q 517 830 479 789 q 580 898 556 871 q 645 973 604 925 q 708 1047 686 1021 q 771 1122 729 1072 q 885 1260 846 1214 q 979 1363 925 1306 q 1071 1450 1033 1421 q 1158 1500 1124 1492 q 1213 1492 1190 1508 q 1233 1436 1236 1474 q 1175 1300 1229 1393 l 656 401 q 582 182 579 268 q 597 122 582 147 q 635 85 610 99 q 758 60 682 57 q 942 91 849 63 q 1118 160 1036 119 q 1293 271 1200 200 q 1456 403 1386 342 q 1617 565 1526 465 q 1767 733 1708 665 q 1912 916 1825 801 q 2043 1091 1999 1031 q 2168 1264 2088 1151 q 2344 1506 2292 1436 q 2353 1514 2349 1511 q 2363 1524 2357 1519 q 2408 1521 2385 1540 m 1364 -265 q 1413 -153 1386 -210 q 1228 -133 1310 -131 q 1090 -158 1157 -135 q 967 -220 1022 -182 q 864 -308 913 -258 q 780 -414 815 -358 q 719 -528 744 -469 q 674 -718 676 -631 q 707 -842 672 -800 q 858 -862 751 -893 q 1125 -668 990 -825 q 1364 -265 1260 -511 z "},"Z":{"ha":1340,"x_min":61,"x_max":1757,"o":"m 1710 1486 q 1747 1460 1738 1486 q 1735 1415 1757 1435 l 217 89 l 1138 85 l 1138 4 l 110 8 q 72 35 82 8 q 83 79 63 61 l 1603 1407 l 869 1410 q 697 1394 729 1411 q 706 1371 699 1389 q 722 1296 721 1329 q 710 1224 724 1263 q 649 1145 696 1185 q 525 1068 603 1106 q 438 1015 461 1038 q 836 974 494 983 l 872 972 l 869 893 l 833 893 q 472 922 578 901 q 354 1000 365 943 q 383 1074 344 1040 q 490 1140 421 1108 q 576 1190 542 1165 q 624 1233 610 1215 q 641 1274 639 1251 q 640 1309 643 1297 q 631 1343 638 1321 q 619 1374 622 1363 q 618 1406 617 1386 q 629 1440 619 1425 q 702 1480 650 1469 q 869 1490 754 1490 l 1710 1486 z "},"[":{"ha":850,"x_min":65,"x_max":781,"o":"m 485 1100 l 781 1101 l 781 1021 l 514 1021 l 168 86 l 401 89 l 403 8 l 113 6 q 96 8 104 4 q 74 28 81 14 q 72 60 67 43 l 447 1074 q 485 1100 457 1100 z "},"\\":{"ha":571,"x_min":67,"x_max":504,"o":"m 500 61 q 500 35 504 50 q 485 19 496 21 l 419 15 q 400 15 408 14 q 389 25 392 17 l 71 965 q 71 992 67 976 q 86 1007 75 1007 l 153 1006 q 161 1006 156 1006 q 169 1007 167 1007 q 176 1006 172 1007 q 181 1002 179 1004 q 185 996 183 1000 l 500 61 z "},"]":{"ha":844,"x_min":68,"x_max":776,"o":"m 775 1060 q 772 1046 775 1053 l 397 32 q 356 6 386 3 l 69 8 l 71 89 l 332 86 l 678 1021 l 440 1021 l 440 1101 l 735 1100 q 763 1088 751 1100 q 775 1060 775 1076 z "},"_":{"ha":860,"x_min":69,"x_max":790,"o":"m 790 -25 l 69 -25 l 69 56 l 790 56 l 790 -25 z "},"a":{"ha":1011,"x_min":-126,"x_max":1106,"o":"m 1053 413 l 1106 351 q 797 122 960 226 q 556 -3 642 21 q 460 -4 497 -18 q 401 75 408 15 q 406 135 399 100 q 346 93 376 111 q 158 13 250 32 q -7 6 67 -7 q -97 63 -69 18 q -110 178 -125 108 q -54 299 -97 235 q 101 461 4 388 q 303 558 197 535 q 492 563 413 582 q 579 511 549 549 q 600 478 592 496 l 601 479 q 650 486 624 501 q 669 464 664 479 q 667 433 674 449 q 663 425 665 429 q 661 422 661 424 q 657 417 660 419 q 549 271 606 338 l 546 268 q 492 149 508 203 q 481 83 479 107 q 488 71 482 72 q 535 75 501 65 q 754 189 608 96 q 1053 413 911 292 m 304 161 q 483 318 397 221 q 504 353 493 336 q 528 419 525 390 q 518 460 531 446 q 472 485 504 476 q 321 480 411 500 q 147 396 231 460 q 13 254 64 332 q -15 205 -4 229 q -32 160 -26 181 q -29 104 -40 124 q 8 85 -19 90 q 304 161 144 60 z "},"b":{"ha":1018,"x_min":-44,"x_max":1447,"o":"m 1419 1619 q 1443 1524 1443 1576 q 1374 1322 1446 1428 q 971 953 1274 1175 q 132 397 701 756 l 124 392 q 103 351 114 375 q 61 140 40 221 q 118 67 74 92 q 238 39 165 40 q 422 76 324 39 q 604 178 521 113 q 670 242 639 206 q 726 320 701 279 q 761 399 750 361 q 767 464 774 439 q 742 492 761 483 q 576 481 692 513 q 464 439 519 465 q 301 332 386 400 l 251 396 q 429 510 342 468 q 556 558 490 540 q 772 567 697 597 q 844 485 829 543 q 839 376 857 438 q 767 236 818 308 q 654 115 715 164 q 449 0 561 42 q 238 -40 336 -42 q 79 -3 143 -40 q -17 121 4 39 q 31 386 -44 228 q 176 650 76 479 q 218 725 204 700 q 619 1326 425 1090 q 1221 1726 946 1719 q 1357 1688 1299 1728 q 1419 1619 1397 1661 m 1307 1367 q 1364 1522 1365 1451 q 1349 1581 1363 1554 q 1311 1621 1335 1606 q 1222 1646 1274 1647 q 682 1275 985 1640 q 289 685 492 1046 q 244 610 279 668 q 203 538 219 565 q 922 1018 679 839 q 1307 1367 1214 1232 z "},"c":{"ha":876,"x_min":-75,"x_max":971,"o":"m 914 393 l 969 335 q 546 42 757 131 q 176 -31 335 -47 q 17 25 79 -21 q -62 151 -50 74 q -35 299 -74 219 q 92 461 3 379 q 258 556 157 519 q 442 582 361 590 q 513 560 482 578 q 558 501 547 538 q 550 415 571 463 q 451 292 525 358 l 397 350 q 476 447 458 407 q 482 478 485 467 q 469 492 479 485 q 433 503 456 500 q 284 480 369 510 q 146 401 199 450 q 17 164 0 268 q 64 89 24 119 q 183 49 108 57 q 522 117 328 33 q 914 393 715 201 z "},"d":{"ha":1400,"x_min":-96,"x_max":1489,"o":"m 1433 393 l 1489 335 q 1268 156 1383 233 q 1047 34 1153 79 q 849 -22 940 -11 q 656 -1 733 -39 q 543 138 567 40 q 538 164 540 150 q 229 28 368 69 q 19 11 90 -14 q -17 31 0 18 q -78 118 -65 71 q -42 275 -96 188 q 146 481 38 404 q 358 575 254 558 q 496 565 435 586 q 594 482 563 540 q 600 474 597 478 q 626 531 611 501 q 1015 1140 815 921 q 1228 1314 1129 1265 q 1392 1338 1328 1363 q 1474 1226 1461 1311 q 1450 1056 1485 1154 q 1274 757 1400 914 q 976 462 1151 606 q 615 207 801 318 q 621 157 615 181 q 689 71 636 96 q 838 57 746 44 q 1126 162 967 74 q 1433 393 1285 250 m 699 496 q 628 310 647 392 q 949 544 796 414 q 1213 808 1103 674 q 1375 1082 1329 953 q 1394 1214 1403 1163 q 1364 1263 1389 1253 q 1315 1265 1346 1272 q 1249 1237 1285 1257 q 1168 1178 1214 1217 q 1074 1086 1122 1139 q 699 496 883 875 m 513 242 q 525 443 565 372 q 468 489 507 475 q 371 496 426 504 q 190 414 282 482 q 26 233 97 346 q 0 138 -10 174 q 35 93 6 117 q 46 86 39 89 q 228 109 103 67 q 513 242 354 151 z "},"e":{"ha":933,"x_min":-56,"x_max":1026,"o":"m 969 393 l 1026 335 q 722 106 879 194 q 436 -13 564 17 q 201 -31 308 -43 q 36 29 101 -18 q -19 85 3 53 q -47 157 -40 118 q -43 249 -56 201 q 6 352 -31 297 q 101 461 42 407 q 267 556 165 519 q 450 582 369 590 q 514 564 486 579 q 560 519 544 547 q 572 468 572 496 q 507 346 571 408 q 368 247 454 294 q 201 175 289 204 q 42 140 114 146 q 83 94 56 114 q 211 50 132 60 q 566 115 364 32 q 969 393 768 199 m 33 219 q 329 318 168 229 q 450 403 406 360 q 492 469 492 443 q 489 481 492 475 q 476 493 486 488 q 442 503 461 500 l 442 503 q 293 480 379 510 q 156 401 207 450 q 33 219 49 306 z "},"f":{"ha":754,"x_min":-299,"x_max":850,"o":"m 796 393 l 850 335 q 633 176 747 242 q 404 75 519 110 q 114 43 251 31 q 146 -72 143 -8 q 114 -236 150 -151 q 26 -378 82 -314 q -90 -472 -28 -440 q -204 -492 -153 -504 q -214 -487 -210 -490 q -285 -399 -271 -468 q -272 -237 -297 -337 q -242 -135 -261 -192 q 106 503 -133 164 q 601 1060 333 825 l 654 1000 q 171 457 394 772 q -18 154 65 307 q -4 151 -11 154 q 381 153 163 88 q 796 393 604 218 m 40 -206 q 65 -76 68 -136 q -39 79 61 26 q -53 90 -47 83 q -165 -162 -124 -44 q -194 -257 -185 -214 q -206 -383 -215 -339 q -187 -412 -201 -407 q -185 -412 -187 -412 q -115 -397 -156 -421 q -35 -326 -75 -372 q 40 -206 13 -271 z "},"g":{"ha":1099,"x_min":-731,"x_max":1208,"o":"m 1150 418 l 1207 361 q 639 -39 938 85 q 636 -40 638 -40 q 426 -110 536 -82 q 347 -235 386 -174 q -92 -811 114 -589 q -322 -1001 -214 -943 q -514 -1050 -429 -1058 q -626 -1004 -581 -1044 q -690 -899 -671 -964 q -664 -612 -729 -771 q -566 -447 -629 -526 q -408 -295 -503 -368 q -175 -167 -312 -222 q 128 -86 -37 -111 q 375 -40 283 -61 q 532 232 457 94 q 365 93 453 147 q 178 13 269 32 q 13 6 86 -7 q -78 63 -49 17 q -90 178 -106 108 q -35 299 -78 235 q 120 461 24 388 q 322 558 217 535 q 511 561 431 582 q 600 510 568 547 l 599 510 q 621 474 613 493 q 663 485 640 493 q 663 486 663 485 q 664 489 664 488 l 738 454 q 488 -8 631 229 q 606 33 549 10 l 607 35 q 1150 418 892 153 m 518 336 q 549 415 544 382 q 538 458 551 443 l 538 458 q 492 483 524 475 q 340 479 429 500 q 167 396 250 460 q 32 254 83 332 q -12 160 -3 203 q -10 104 -21 124 q 28 85 0 90 q 324 161 164 60 q 518 336 425 225 m 279 -190 q 315 -135 297 -162 q 140 -165 250 -149 q -90 -221 17 -183 q -277 -305 -197 -258 q -420 -409 -357 -351 q -524 -524 -483 -467 q -590 -643 -565 -582 q -614 -875 -644 -775 q -507 -971 -587 -962 q -349 -925 -440 -976 q -150 -757 -258 -874 q 279 -190 50 -540 z "},"h":{"ha":1228,"x_min":-125,"x_max":1449,"o":"m 110 331 l 96 319 q 19 149 56 235 q 281 343 158 258 q 792 569 658 606 q 844 424 879 544 q 725 174 825 353 q 693 117 706 138 q 671 56 669 72 q 672 57 671 54 q 678 63 676 61 q 779 93 713 65 q 965 188 858 126 q 1154 305 1072 249 q 1272 394 1236 361 l 1326 335 q 1201 241 1288 300 q 1004 117 1115 182 q 810 18 893 53 q 740 -6 772 3 q 683 -18 708 -15 q 592 46 600 -24 q 624 156 586 88 q 656 213 635 175 q 768 446 750 383 q 769 492 781 489 q 326 278 674 518 q -33 3 150 154 l -124 3 q 42 390 -49 208 q 221 725 103 515 q 621 1326 426 1090 q 1222 1726 947 1719 q 1358 1688 1300 1728 q 1421 1619 1399 1661 q 1446 1524 1444 1576 q 1375 1322 1447 1428 q 929 896 1260 1154 q 110 331 606 642 m 290 685 q 168 461 211 543 q 881 958 593 733 q 1308 1367 1200 1208 q 1365 1522 1367 1451 q 1350 1581 1364 1554 q 1314 1621 1338 1606 q 1224 1646 1275 1647 q 683 1275 986 1640 q 290 685 493 1046 z "},"i":{"ha":668,"x_min":-12,"x_max":758,"o":"m 706 508 l 757 447 q 710 404 746 438 q 655 356 675 374 q 592 301 635 338 q 519 242 550 265 q 443 185 489 218 q 363 131 397 151 q 285 88 328 111 q 207 56 242 65 q 138 44 172 47 q 74 52 103 40 q 24 88 46 64 q -8 169 -4 118 q 1 269 -11 219 q 43 385 14 319 q 94 492 72 451 q 147 588 117 533 l 240 588 l 228 565 q 190 498 204 524 q 148 422 175 472 q 106 335 121 371 q 78 258 92 299 q 67 188 65 217 q 82 142 68 158 q 128 119 100 122 q 194 131 157 117 q 269 163 232 144 q 353 217 306 182 q 437 278 401 251 q 521 346 472 304 q 594 408 569 388 q 656 464 618 429 q 706 508 693 499 m 278 664 q 250 617 261 636 l 157 617 q 197 686 175 649 l 290 686 l 278 664 z "},"j":{"ha":444,"x_min":-1356,"x_max":583,"o":"m 525 450 l 582 394 q 14 -7 313 118 q 11 -7 13 -7 q -199 -78 -89 -49 q -278 -201 -239 -140 q -717 -778 -511 -557 q -947 -967 -839 -910 q -1139 -1018 -1054 -1025 q -1251 -971 -1206 -1011 q -1315 -865 -1296 -931 q -1289 -579 -1354 -737 q -1191 -415 -1254 -494 q -1033 -262 -1128 -335 q -800 -134 -937 -189 q -497 -53 -662 -79 q -250 -7 -342 -29 q 39 522 -83 265 q 64 574 54 553 l 72 592 l 160 592 q 138 540 150 568 q 113 488 122 510 q -137 24 6 263 q -19 67 -76 43 l -18 67 q 525 450 267 186 m -346 -157 q -310 -103 -331 -135 q -485 -132 -375 -115 q -765 -206 -637 -156 q -980 -323 -893 -257 q -1125 -461 -1067 -389 q -1215 -610 -1183 -533 q -1239 -842 -1269 -742 q -1132 -937 -1212 -931 q -974 -892 -1065 -944 q -775 -724 -883 -840 q -346 -157 -575 -507 m 193 679 q 165 632 172 644 l 74 632 q 113 701 92 664 l 206 701 l 193 679 z "},"k":{"ha":1169,"x_min":-189,"x_max":1383,"o":"m 57 356 l 42 343 q -40 163 -1 254 q 343 438 135 328 q 857 567 632 592 l 849 488 q 513 429 701 504 q 388 303 431 372 q 350 186 351 244 q 372 100 347 136 q 406 68 386 81 q 682 115 467 31 q 980 258 824 171 q 1199 396 1136 346 l 1249 332 q 1021 190 1183 281 q 711 40 858 99 q 363 0 458 -58 q 307 54 329 21 q 269 189 267 113 q 308 326 272 258 q 90 171 193 257 q -81 3 -12 85 l -189 3 q -24 390 -114 208 q 156 725 38 515 q 556 1326 361 1090 q 1157 1726 882 1719 q 1293 1688 1235 1728 q 1356 1619 1333 1661 q 1381 1524 1379 1576 q 1310 1321 1382 1428 q 901 933 1204 1167 q 57 356 589 690 m 225 685 q 117 489 156 561 q 853 996 574 779 q 1243 1367 1144 1222 q 1300 1522 1301 1451 q 1285 1581 1299 1554 q 1249 1621 1272 1606 q 1158 1646 1210 1647 q 618 1275 921 1640 q 225 685 428 1046 z "},"l":{"ha":875,"x_min":-19,"x_max":1451,"o":"m 1424 1619 q 1447 1524 1447 1576 q 1378 1321 1450 1428 q 933 900 1264 1157 q 106 331 610 647 q 92 129 65 196 q 193 69 113 72 q 549 157 344 65 q 917 394 756 249 l 971 335 q 582 83 800 181 q 192 -11 361 -15 q 17 101 57 -7 q 29 358 -19 194 q 175 688 72 501 q 410 1049 274 865 q 691 1382 547 1232 q 978 1628 835 1532 q 1225 1726 1122 1724 q 1361 1688 1303 1728 q 1424 1619 1401 1661 m 1311 1367 q 1368 1522 1369 1451 q 1353 1581 1367 1554 q 1317 1621 1340 1606 q 1226 1646 1278 1647 q 1001 1552 1135 1644 q 733 1315 868 1460 q 469 995 599 1171 q 244 649 339 819 q 149 453 188 544 q 885 963 590 735 q 1311 1367 1206 1213 z "},"m":{"ha":1551,"x_min":-178,"x_max":1639,"o":"m 1583 393 l 1639 335 q 1378 135 1533 235 q 1106 -6 1222 35 q 974 -25 1024 -33 q 896 69 897 -11 q 999 319 893 153 q 1071 476 1069 433 q 1000 454 1047 476 q 758 294 899 407 q 500 47 618 181 q 410 17 444 -15 q 397 40 399 25 q 402 82 394 56 q 417 128 410 108 q 442 189 425 149 q 504 346 486 294 q 538 483 550 479 q 311 357 506 494 q 308 356 310 356 q 57 160 185 267 q -100 14 -71 53 q -124 -3 -108 1 q -154 1 -140 -7 q -172 26 -168 10 q -168 57 -176 42 l 135 574 l 226 574 l 228 574 l 35 246 q 263 421 154 344 q 264 422 264 421 q 564 558 493 583 q 579 319 653 528 q 533 200 563 271 q 762 399 644 310 q 965 528 879 488 q 1078 557 1035 558 q 1150 479 1149 551 q 1065 276 1151 413 q 975 71 974 131 q 988 54 975 57 q 1081 71 1017 49 q 1336 203 1189 108 q 1583 393 1483 299 m 463 76 l 461 79 q 463 76 461 78 z "},"n":{"ha":1006,"x_min":-164,"x_max":1094,"o":"m 1039 393 l 1093 335 q 710 63 928 179 q 403 -18 492 -54 q 354 25 367 -3 q 354 101 342 53 q 468 319 372 168 q 553 483 539 433 q 461 435 521 472 q 181 223 344 360 q -60 14 17 86 q -101 -11 -81 -7 q -139 -1 -122 -14 q -158 29 -154 10 q -151 81 -162 51 q -149 86 -150 83 q 25 363 -61 229 q 149 556 94 469 l 243 556 q 93 319 168 436 q 1 176 40 238 q 418 501 260 400 q 549 565 501 556 q 636 489 647 588 q 535 276 629 425 q 432 81 447 136 q 433 57 426 60 q 672 133 488 35 q 1039 393 881 244 z "},"o":{"ha":1106,"x_min":-47,"x_max":1185,"o":"m 1132 394 l 1185 333 q 657 7 868 64 q 476 4 551 -22 q 438 24 456 13 q 150 -10 299 -40 q -31 146 -4 22 q -32 150 -32 147 q -7 308 -47 224 q 106 453 31 388 q 257 544 174 511 q 447 575 340 576 q 656 525 553 574 l 638 488 q 692 457 671 479 q 713 329 733 411 q 642 189 696 260 q 525 75 592 124 q 636 85 571 67 q 1132 394 831 136 m 375 100 q 357 233 349 160 q 424 388 367 313 q 543 482 479 461 q 334 483 435 510 q 158 392 233 456 q 65 274 96 338 q 47 165 38 214 q 47 163 47 164 q 167 69 64 90 q 381 88 275 46 q 375 100 378 93 m 453 124 q 578 238 526 168 q 635 347 622 296 q 632 403 644 389 q 569 406 618 417 q 488 340 531 396 q 438 224 444 282 q 447 133 431 171 q 453 124 450 128 z "},"p":{"ha":897,"x_min":-564,"x_max":785,"o":"m 765 438 q 764 301 783 374 q 757 279 760 290 q 683 153 733 214 q 563 53 632 93 q 196 11 396 -44 q 157 24 176 17 l 183 100 q 218 89 201 93 q 522 122 385 42 q 621 205 579 156 q 681 306 663 254 q 686 324 683 315 q 688 415 700 374 q 661 461 681 443 q 613 489 642 481 q 507 485 567 501 q 292 333 418 458 q -43 -71 157 200 q -307 -442 -181 -258 q -482 -707 -436 -629 l -485 -711 q -509 -731 -493 -726 q -540 -726 -525 -735 q -558 -702 -554 -718 q -554 -672 -562 -686 l 142 556 l 235 556 l -51 51 q 235 390 114 271 q 485 561 376 529 q 633 567 567 586 q 717 518 683 553 q 765 438 751 485 z "},"q":{"ha":1106,"x_min":-47,"x_max":1185,"o":"m 1132 394 l 1185 333 q 657 7 868 64 q 476 4 551 -22 q 438 24 456 13 q 388 4 415 14 q 400 -32 393 -11 q 464 -161 442 -144 l 417 -225 q 379 -182 397 -211 q 351 -129 361 -153 q 325 -60 342 -106 q 308 -15 315 -32 q 150 -10 229 -26 q -31 146 -4 22 q -32 150 -32 147 q -7 308 -47 224 q 106 453 31 388 q 257 544 174 511 q 447 575 340 576 q 656 525 553 574 l 638 488 q 692 457 671 479 q 713 329 733 411 q 642 189 696 260 q 525 75 592 124 q 636 85 571 67 q 1132 394 831 136 m 167 69 q 274 63 219 58 q 233 117 254 99 q 67 122 174 169 q 167 69 99 83 m 357 233 q 424 388 367 313 q 543 482 479 461 q 334 483 435 510 q 158 392 233 456 q 65 274 96 338 q 46 200 47 236 q 286 176 194 260 q 356 78 324 143 q 381 88 368 82 q 375 100 378 93 q 357 233 349 160 m 453 124 q 578 238 525 168 q 635 347 622 296 q 632 403 644 389 q 569 406 618 417 q 488 340 531 396 q 438 224 444 282 q 447 133 431 171 q 453 124 450 128 z "},"r":{"ha":743,"x_min":-172,"x_max":674,"o":"m 658 438 l 674 358 q 625 353 647 354 q 586 356 603 353 q 553 366 569 358 q 526 381 536 374 q 503 401 515 388 q 484 422 490 414 q 467 444 478 431 q 456 459 460 454 q 444 472 451 464 q 431 481 436 479 q 416 485 426 482 q 399 482 406 488 q 274 407 346 465 q 131 269 203 349 q 12 135 58 190 q -75 28 -35 81 l -142 28 l -172 26 l 121 581 l 211 581 l 79 332 q 374 558 263 522 q 413 567 394 565 q 445 564 431 568 q 470 555 460 560 q 493 538 481 550 q 512 517 506 525 q 531 493 518 510 q 559 460 547 471 q 597 440 571 449 q 658 438 624 431 z "},"s":{"ha":554,"x_min":-107,"x_max":488,"o":"m 482 506 q 478 444 486 475 q 376 313 457 375 l 328 376 q 400 467 388 422 q 403 493 404 481 q 397 508 401 501 q 389 514 393 513 q 328 517 363 521 q 255 500 293 513 q 185 468 217 488 q 139 431 154 450 q 138 429 138 431 q 129 410 128 417 q 153 383 131 397 q 190 360 165 375 q 333 250 299 290 q 326 100 404 165 q 289 72 307 85 q 251 49 271 60 q 208 30 231 38 q 161 15 186 22 q -71 35 -6 -22 q -94 108 -106 64 q -58 167 -87 136 q 119 288 0 226 l 156 215 q 101 184 126 200 q 56 153 75 168 q 25 124 36 138 q 14 100 14 110 q 22 84 13 89 q 62 81 32 79 q 143 94 92 82 q 275 161 214 111 q 272 199 292 175 q 147 292 246 229 q 108 315 119 308 q 49 400 56 351 q 74 479 44 440 q 76 482 75 481 q 144 538 100 511 q 283 590 206 574 q 411 592 360 606 q 461 557 442 582 q 482 506 478 535 z "},"t":{"ha":689,"x_min":-533,"x_max":1224,"o":"m 721 1349 q 665 1274 700 1322 q 584 1161 629 1225 q 484 1015 539 1097 q 379 851 429 932 q 435 829 408 839 q 840 769 638 751 q 1175 892 1033 786 l 1222 826 q 847 689 1063 708 q 407 754 626 669 q 336 782 374 767 q 271 675 301 726 q 39 193 83 358 q 29 100 22 133 q 53 69 35 78 q 124 68 78 60 q 407 193 235 86 q 597 315 508 257 q 732 404 690 375 l 778 339 q 642 247 739 311 q 449 125 547 186 q 136 -11 264 10 q 22 -4 68 -24 q -49 82 -35 19 q -39 214 -61 135 q 201 717 10 392 q 261 815 231 765 l 236 828 q 143 870 175 856 q 51 907 111 885 q -49 938 -8 929 q -149 955 -89 947 q -260 958 -208 963 q -374 938 -311 953 q -501 894 -437 922 l -533 968 q -393 1016 -462 999 q -267 1039 -324 1033 q -146 1036 -211 1044 q -37 1019 -81 1028 q 71 985 7 1010 q 169 946 135 961 q 269 901 204 931 q 304 885 293 890 q 619 1349 469 1146 l 721 1349 z "},"u":{"ha":990,"x_min":-107,"x_max":1081,"o":"m 1026 401 l 1079 342 q 788 106 908 188 q 490 -12 604 -19 q 385 107 379 -7 q 411 208 388 149 q 165 39 279 90 q 10 -8 71 -3 q -61 3 -33 -12 q -104 72 -101 24 q -83 164 -107 110 q 146 556 -28 290 l 242 556 l 218 519 q -10 132 43 253 q -24 76 -25 96 l -24 74 q 3 72 -17 71 q 132 113 51 76 q 378 288 244 163 q 578 513 503 403 q 604 554 594 539 l 604 556 l 699 556 q 683 531 690 542 q 674 514 676 521 l 672 511 q 650 475 664 496 l 642 461 q 563 335 592 383 q 501 215 535 288 q 465 101 468 143 q 494 68 464 69 q 743 172 582 63 q 1026 401 857 250 z "},"v":{"ha":721,"x_min":14,"x_max":651,"o":"m 582 540 l 651 499 q 419 200 553 336 q 125 -42 288 65 q 114 -47 119 -44 q 83 -46 99 -53 q 63 -22 68 -39 q 28 276 14 110 q 93 556 40 415 l 179 556 q 108 271 121 413 q 122 54 99 153 q 363 257 254 146 q 582 540 489 386 z "},"w":{"ha":1378,"x_min":-61,"x_max":1478,"o":"m 1418 413 l 1478 358 q 1090 253 1253 107 q 989 410 1032 304 q 886 231 951 322 q 749 69 821 140 q 622 -29 681 4 q 499 -50 549 -69 q 451 -4 467 -37 q 510 382 406 93 l 472 340 q 409 268 432 293 q 343 197 386 243 q 272 124 300 150 q 203 63 243 97 q 135 12 164 28 q 73 -17 106 -4 q 14 -27 40 -31 q -33 -6 -12 -24 q -56 52 -53 13 q -48 144 -60 92 q -19 252 -36 197 q 24 369 -1 307 q 67 472 49 431 q 106 556 86 514 l 194 556 q 144 449 171 506 q 76 298 117 392 q 19 138 36 204 q 19 56 3 71 q 81 63 39 39 q 188 151 122 86 q 297 263 254 217 q 413 393 339 310 q 532 521 499 492 q 564 544 546 535 q 599 556 582 553 q 626 547 615 558 q 639 508 638 535 q 618 443 639 497 q 524 29 488 107 q 528 25 526 25 l 528 24 l 528 25 q 583 42 542 18 q 693 128 632 68 q 862 338 788 219 q 944 544 936 456 l 946 544 l 944 544 q 947 556 946 550 l 1025 556 q 1033 529 1028 547 q 1143 313 1081 368 q 1418 413 1246 221 z "},"x":{"ha":571,"x_min":-171,"x_max":501,"o":"m 500 485 q 163 178 463 435 q 182 140 172 157 q 346 72 240 47 l 364 -6 q 114 99 204 -44 q 99 124 107 108 q -43 3 29 64 l -97 3 l -169 4 q 65 201 -78 79 q -7 556 19 331 l 75 556 q 132 257 96 369 q 436 533 406 492 l 500 485 z "},"y":{"ha":1056,"x_min":-774,"x_max":1165,"o":"m 1107 418 l 1164 361 q 596 -39 894 85 q 593 -40 594 -40 q 383 -110 493 -82 q 304 -235 344 -172 q -135 -811 71 -589 q -365 -1001 -257 -943 q -557 -1050 -472 -1058 q -669 -1004 -624 -1044 q -733 -899 -714 -964 q -707 -612 -772 -771 q -609 -447 -672 -526 q -451 -294 -546 -368 q -218 -166 -356 -221 q 85 -86 -81 -111 q 332 -40 240 -61 q 515 279 426 114 q 469 238 492 258 q 182 39 310 96 q 26 -8 89 -3 q -40 1 -12 -11 q -44 3 -42 1 q -86 72 -83 24 q -65 164 -89 110 q 164 556 -11 290 l 260 556 l 236 519 q 8 132 60 253 q -7 76 -8 96 l -7 74 l -6 74 q 19 72 3 71 q 150 113 68 76 q 417 297 265 164 q 563 442 497 369 q 651 556 629 515 l 740 556 q 719 508 732 535 q 694 454 706 479 q 444 -8 588 229 q 563 33 506 10 l 564 35 q 1107 418 849 153 m 236 -190 q 272 -135 256 -161 q 97 -165 207 -149 q -133 -221 -26 -183 q -320 -305 -240 -258 q -463 -409 -400 -351 q -567 -524 -526 -467 q -633 -643 -608 -582 q -657 -875 -687 -775 q -550 -971 -631 -962 q -392 -925 -483 -976 q -193 -757 -301 -874 q 236 -190 7 -540 z "},"z":{"ha":847,"x_min":-372,"x_max":944,"o":"m 944 333 q 823 244 907 300 q 669 143 739 188 q 463 15 599 99 q 322 -71 378 -37 q 335 -92 329 -81 q 349 -260 372 -165 q 203 -506 321 -376 q 1 -654 118 -599 q -210 -712 -115 -710 q -318 -690 -276 -715 q -369 -594 -371 -658 q -197 -332 -367 -492 q 192 -58 -106 -246 q 178 -53 185 -56 q -54 -22 89 -11 l -54 -21 q -93 0 -81 -24 q -95 31 -100 15 q -75 54 -90 47 q -5 92 -57 63 q 151 191 47 121 q 321 325 254 261 q 376 404 368 371 q 374 431 381 421 q 344 454 367 444 q 229 468 296 475 q 149 444 185 464 q 92 399 113 424 q 104 403 97 400 l 126 325 q 28 328 61 306 q 0 389 -6 349 q 22 440 3 414 q 103 509 50 478 q 221 549 157 540 q 376 528 308 558 q 442 474 421 507 q 454 383 468 433 q 376 267 440 329 q 89 54 271 165 q 211 21 158 46 q 267 -11 242 7 q 421 83 319 22 q 892 393 817 328 l 944 333 m 271 -240 q 263 -128 288 -175 q 254 -114 260 -119 q -142 -390 -54 -307 q -289 -597 -287 -528 q -276 -622 -290 -614 q -212 -633 -256 -635 q -31 -582 -132 -631 q 143 -451 69 -533 q 271 -240 247 -337 z "},"{":{"ha":821,"x_min":65,"x_max":753,"o":"m 469 963 q 539 1017 499 996 q 613 1046 579 1039 q 683 1055 647 1053 q 732 1056 718 1057 q 751 1053 746 1054 l 740 974 q 736 974 739 974 q 723 976 733 975 q 703 976 713 976 q 678 975 693 976 q 649 972 663 974 q 617 964 635 969 q 585 951 600 958 q 556 934 571 944 q 529 910 542 924 q 479 842 506 882 q 434 768 453 803 q 397 697 415 733 q 372 646 379 661 q 363 625 365 631 q 342 604 357 611 l 190 531 l 269 478 q 285 431 296 460 q 213 172 219 256 q 214 156 213 164 q 238 118 217 132 q 290 101 260 104 q 313 103 303 101 l 324 22 q 285 21 306 19 q 194 50 233 25 q 133 144 143 85 q 133 179 132 161 q 199 429 139 267 l 89 501 q 74 518 79 508 q 72 549 67 533 q 92 572 76 564 l 296 671 q 469 963 383 865 z "},"|":{"ha":749,"x_min":69,"x_max":681,"o":"m 610 1007 l 679 968 l 139 18 l 69 58 l 610 1007 z "},"}":{"ha":761,"x_min":68,"x_max":694,"o":"m 676 567 q 692 540 690 557 q 683 511 693 524 q 668 499 676 503 l 475 414 q 343 153 407 244 q 225 54 297 89 q 139 26 182 33 q 69 22 96 18 l 82 101 q 189 126 125 94 q 276 199 244 153 q 406 458 344 296 q 428 482 413 475 l 575 546 l 494 608 q 479 654 469 626 q 533 932 542 851 q 516 959 532 949 q 481 973 500 969 q 438 976 461 976 q 405 975 415 976 q 390 974 394 974 l 381 1053 q 400 1055 389 1054 q 440 1056 411 1056 q 494 1049 468 1056 q 547 1033 519 1043 q 592 998 574 1022 q 614 940 610 974 q 564 656 624 846 l 676 567 z "},"":{"ha":722,"x_min":0,"x_max":0,"o":""},"":{"ha":1360,"x_min":69,"x_max":1290,"o":"m 1192 958 q 1231 918 1214 940 q 1264 847 1253 886 l 1186 826 q 1165 872 1179 851 q 1131 904 1151 890 l 336 197 q 338 195 338 196 q 338 193 338 194 q 358 147 344 168 q 450 92 389 104 q 604 103 517 79 q 829 215 714 135 l 876 150 q 625 26 749 61 q 435 14 519 -4 q 293 101 342 32 q 272 139 282 117 l 122 6 l 69 65 l 251 228 q 335 529 242 365 q 647 869 449 729 q 899 993 775 958 q 1089 1006 1004 1022 q 1115 999 1101 1003 l 1236 1106 l 1290 1046 l 1192 958 m 335 301 l 1040 931 q 919 915 986 935 q 694 803 810 885 q 406 490 510 674 q 335 301 349 390 z "},"":{"ha":1339,"x_min":67,"x_max":1281,"o":"m 1267 906 q 1214 717 1281 803 l 1150 767 q 1188 896 1197 826 q 1176 935 1185 918 q 1154 963 1168 951 q 1081 978 1126 983 q 995 955 1038 972 q 918 915 953 938 q 847 857 883 893 q 783 789 811 821 q 722 708 756 757 q 667 624 689 660 q 611 535 644 589 l 919 535 l 919 454 l 563 454 q 427 251 489 332 q 293 119 365 171 q 240 82 263 97 l 824 86 l 824 6 l 113 1 q 76 18 89 0 q 70 49 67 32 q 88 74 74 65 q 247 186 104 83 q 469 454 344 254 l 354 454 l 354 535 l 518 535 q 522 541 519 538 q 525 547 524 544 q 587 649 565 614 q 649 743 608 683 q 718 837 689 803 q 791 915 747 871 q 875 984 835 960 q 966 1029 915 1008 q 1071 1057 1017 1050 q 1204 1025 1150 1067 q 1247 972 1231 1004 q 1267 906 1263 942 z "},"":{"ha":1271,"x_min":69,"x_max":1203,"o":"m 1201 974 l 583 493 l 747 493 l 747 413 l 481 413 l 476 408 l 410 294 l 635 294 l 635 214 l 364 214 l 246 10 l 157 6 l 274 214 l 69 214 l 69 294 l 319 294 l 383 407 l 383 413 l 182 413 l 182 493 l 381 493 l 361 974 l 458 974 l 478 493 l 482 493 l 1100 974 l 1201 974 z "},"":{"ha":1044,"x_min":67,"x_max":983,"o":"m 968 974 q 964 871 982 931 q 844 671 938 786 l 782 721 q 888 894 865 825 q 892 950 899 931 q 875 969 888 963 q 839 976 860 976 q 725 945 792 976 q 604 867 658 914 q 535 785 556 825 q 524 721 515 749 q 569 674 532 694 l 585 664 q 632 637 617 646 q 671 611 647 628 q 704 583 694 594 q 725 556 714 572 q 736 523 736 539 q 731 487 736 507 q 713 443 725 467 q 581 300 664 358 q 581 268 582 283 q 478 81 574 168 q 263 -19 382 -7 q 206 -21 233 -24 q 114 11 149 -17 q 78 58 90 31 q 69 119 67 86 l 69 121 q 168 319 78 204 l 232 269 q 150 114 156 172 q 153 88 149 99 q 164 74 157 81 q 211 60 179 61 q 254 60 232 57 q 424 140 347 69 q 501 274 496 206 q 501 292 501 283 l 500 293 q 477 328 499 315 q 415 353 456 340 q 373 367 388 361 q 338 383 358 372 q 308 408 317 394 q 293 443 299 421 q 292 493 288 465 q 319 577 299 538 q 367 643 339 617 q 412 683 394 669 q 444 706 429 697 q 464 822 431 761 q 551 928 492 876 q 697 1020 615 983 q 839 1057 778 1057 q 910 1042 879 1056 q 968 974 954 1021 m 529 603 q 485 636 504 618 q 463 622 475 631 q 429 594 450 613 q 392 545 408 575 q 371 482 376 515 q 385 451 368 461 q 439 429 403 440 q 547 376 519 404 q 642 482 608 424 q 649 502 649 493 q 644 521 650 511 q 631 538 638 531 q 607 556 624 544 q 579 574 590 567 q 544 594 568 581 l 529 603 z "},"":{"ha":1497,"x_min":69,"x_max":1429,"o":"m 1378 899 q 1428 719 1428 819 q 1374 504 1428 615 q 1225 297 1319 394 q 1010 126 1131 200 q 757 12 889 53 q 500 -29 625 -29 q 261 21 363 -29 q 119 144 169 65 q 69 324 69 224 q 124 539 69 426 q 272 745 178 647 q 488 916 367 843 q 740 1030 608 989 q 997 1071 872 1071 q 1236 1021 1135 1071 q 1378 899 1328 976 m 1301 539 q 1347 719 1347 635 q 1310 855 1347 796 q 1201 949 1272 914 q 997 990 1117 990 q 529 847 765 990 q 331 690 418 779 q 196 504 244 601 q 150 322 150 408 q 188 188 150 246 q 296 93 225 128 q 500 51 382 51 q 968 194 732 51 q 1166 351 1079 263 q 1301 539 1253 440 m 869 832 q 1085 735 1021 832 l 1018 690 q 869 751 978 751 q 632 678 751 751 q 613 665 622 672 q 460 499 504 593 q 456 356 421 414 l 458 353 l 458 353 q 606 292 499 292 q 844 364 724 292 l 886 296 q 606 211 747 211 q 390 308 456 211 q 388 314 390 308 q 388 533 329 408 q 568 732 442 649 q 590 746 579 740 q 869 832 729 831 z "},"":{"ha":583,"x_min":67,"x_max":515,"o":"m 426 1669 q 467 1665 450 1668 q 493 1654 483 1661 q 509 1641 503 1647 q 513 1622 515 1635 q 510 1599 511 1608 q 499 1572 508 1590 q 483 1542 489 1553 q 463 1507 476 1531 q 435 1457 444 1475 q 339 1282 375 1346 l 278 1282 l 278 1281 q 260 1279 269 1281 q 224 1276 250 1278 q 178 1273 199 1274 q 134 1274 157 1272 q 99 1279 111 1275 q 69 1317 72 1289 q 79 1361 68 1336 q 113 1411 90 1386 q 194 1471 147 1449 q 371 1496 265 1501 l 379 1508 q 404 1578 413 1565 q 375 1590 399 1588 q 340 1583 357 1590 q 310 1567 322 1576 q 288 1544 299 1557 q 274 1526 276 1531 q 269 1518 271 1522 l 183 1518 q 190 1528 186 1522 q 206 1550 193 1533 q 231 1581 218 1567 q 267 1614 244 1596 q 312 1644 289 1632 q 365 1665 335 1657 q 426 1669 394 1672 m 297 1360 q 326 1415 313 1388 q 203 1403 246 1422 q 178 1386 188 1396 l 178 1385 q 168 1371 172 1378 q 165 1360 165 1364 q 168 1356 167 1356 q 297 1360 193 1346 z "},"":{"ha":882,"x_min":68,"x_max":815,"o":"m 210 565 l 560 96 q 564 77 567 86 q 550 64 561 68 l 489 40 q 466 40 478 36 q 447 51 454 43 l 74 551 q 69 565 69 558 q 74 579 69 572 l 447 1079 q 465 1092 453 1089 q 489 1090 478 1094 l 550 1067 q 564 1053 561 1063 q 560 1036 567 1044 l 210 565 m 458 565 l 808 96 q 813 77 815 86 q 799 64 810 68 l 738 40 q 714 40 726 36 q 696 51 701 43 l 322 551 q 318 565 318 558 q 322 579 318 572 l 696 1079 q 714 1092 701 1089 q 738 1090 726 1094 l 799 1067 q 813 1053 810 1063 q 808 1036 815 1044 l 458 565 z "},"":{"ha":0,"x_min":0,"x_max":0,"o":""},"":{"ha":704,"x_min":69,"x_max":635,"o":"m 614 1464 q 635 1386 635 1429 q 611 1293 635 1340 q 464 1140 567 1203 q 258 1078 361 1078 q 156 1099 200 1078 q 93 1154 115 1119 l 93 1154 q 69 1235 69 1190 q 93 1329 69 1281 q 240 1482 138 1419 q 446 1544 343 1544 q 547 1524 504 1544 q 611 1468 589 1503 q 614 1464 613 1465 m 539 1329 q 554 1386 554 1360 q 544 1422 554 1407 q 543 1425 544 1424 q 513 1451 533 1440 q 446 1464 486 1464 q 282 1414 365 1464 q 165 1293 199 1363 q 150 1236 150 1263 q 160 1198 150 1214 q 192 1171 171 1182 q 258 1158 218 1158 q 422 1208 339 1158 q 539 1329 506 1260 m 472 1404 q 488 1389 490 1404 l 488 1389 q 428 1306 474 1331 q 383 1292 408 1296 l 403 1242 l 354 1217 l 322 1296 q 324 1310 319 1301 q 358 1328 336 1329 q 414 1338 396 1328 q 433 1365 425 1343 l 336 1367 l 268 1228 l 222 1228 l 300 1388 q 332 1407 310 1407 q 335 1407 333 1407 l 472 1404 z "},"":{"ha":683,"x_min":68,"x_max":614,"o":"m 596 1603 q 614 1533 614 1572 q 581 1422 614 1481 q 429 1271 529 1333 q 232 1208 328 1208 q 138 1231 176 1208 q 88 1281 104 1250 l 86 1281 q 69 1350 69 1313 q 103 1461 69 1403 q 254 1613 153 1550 q 451 1675 356 1675 q 546 1653 506 1675 q 596 1603 579 1635 m 511 1461 q 533 1533 533 1501 q 526 1564 533 1551 q 506 1583 519 1575 q 451 1594 485 1594 q 296 1544 378 1594 q 172 1422 213 1493 q 150 1350 150 1382 q 157 1321 150 1333 l 157 1319 q 176 1300 164 1308 q 232 1289 197 1289 q 388 1339 304 1289 q 511 1461 471 1390 z "},"":{"ha":563,"x_min":65,"x_max":506,"o":"m 490 1642 q 451 1522 504 1589 q 268 1375 393 1451 l 339 1375 l 339 1294 l 113 1293 q 74 1317 85 1292 q 72 1347 67 1332 q 93 1369 78 1363 q 156 1401 118 1382 q 272 1474 193 1421 q 389 1574 351 1526 q 414 1621 417 1607 l 413 1621 q 386 1621 403 1625 q 321 1585 353 1614 q 269 1507 289 1556 l 194 1536 q 229 1601 208 1572 q 274 1650 250 1631 q 321 1682 297 1669 q 368 1700 344 1694 q 439 1696 407 1708 q 490 1643 479 1682 q 490 1642 490 1643 z "},"":{"ha":511,"x_min":69,"x_max":450,"o":"m 432 1676 q 436 1619 449 1654 q 414 1581 429 1601 q 354 1514 389 1543 l 356 1513 q 379 1451 382 1489 q 361 1397 378 1425 q 323 1352 346 1374 q 269 1315 300 1331 q 210 1299 239 1300 q 103 1294 167 1296 q 74 1294 82 1294 l 69 1375 q 103 1375 78 1375 q 204 1379 160 1375 q 253 1398 229 1381 q 292 1439 278 1415 q 299 1456 299 1449 q 242 1454 286 1461 q 199 1476 211 1449 q 197 1507 192 1492 q 217 1529 203 1522 l 278 1558 q 343 1618 311 1575 q 247 1615 306 1618 l 243 1696 q 281 1697 250 1696 q 355 1698 311 1699 q 411 1692 399 1697 q 417 1689 414 1690 q 432 1676 425 1685 z "},"":{"ha":314,"x_min":67,"x_max":247,"o":"m 219 401 q 240 391 233 401 q 243 367 247 381 l 221 288 q 206 264 218 274 q 179 254 193 254 l 94 254 q 74 264 81 254 q 71 288 67 274 l 93 367 q 108 391 96 381 q 135 401 121 401 l 219 401 z "},"":{"ha":403,"x_min":69,"x_max":342,"o":"m 326 1661 q 328 1618 340 1639 l 140 1275 l 69 1314 l 179 1515 l 171 1510 l 126 1576 l 271 1672 q 301 1678 285 1682 q 326 1661 317 1675 z "},"":{"ha":882,"x_min":67,"x_max":814,"o":"m 808 579 q 813 565 813 572 q 808 551 813 558 l 435 51 q 417 40 429 43 q 393 40 404 36 l 332 64 q 318 77 321 68 q 322 96 315 86 l 672 565 l 322 1036 q 318 1053 315 1044 q 332 1067 321 1063 l 393 1092 q 417 1092 404 1094 q 435 1079 429 1089 l 808 579 m 564 565 q 560 551 565 558 l 188 51 q 168 40 181 43 q 146 40 156 36 l 83 64 q 71 77 74 68 q 74 96 68 86 l 425 565 l 74 1036 q 71 1053 68 1044 q 83 1067 74 1063 l 146 1092 q 168 1092 156 1094 q 188 1079 181 1089 l 560 579 q 564 565 565 572 z "},"":{"ha":942,"x_min":68,"x_max":881,"o":"m 722 1006 q 705 1015 710 1006 q 706 1035 700 1024 l 738 1103 q 754 1124 742 1115 q 779 1132 767 1132 l 851 1132 q 867 1124 863 1132 q 867 1103 872 1115 l 836 1035 q 818 1015 831 1024 q 794 1006 806 1006 l 722 1006 m 831 538 q 871 367 879 458 q 801 192 861 278 q 658 53 746 113 q 519 -21 593 7 q 372 -54 446 -49 q 219 -34 286 -61 q 114 46 153 -7 q 69 190 68 108 q 122 360 71 275 q 287 532 176 450 q 561 674 397 614 l 689 972 l 806 967 l 660 614 q 615 572 647 583 q 225 313 321 474 q 192 208 193 260 q 217 128 190 163 q 385 67 268 57 q 601 147 497 75 q 704 247 665 192 q 749 357 743 303 q 724 463 754 413 l 831 538 z "},"":{"ha":1699,"x_min":65,"x_max":1763,"o":"m 1506 382 q 1478 212 1485 289 q 1481 58 1471 135 q 1521 -74 1490 -18 q 1612 -174 1551 -131 q 1761 -236 1672 -217 l 1744 -314 q 1426 -69 1499 -261 q 814 564 1131 393 l 454 1 l 358 1 l 740 599 q 469 654 600 658 q 219 572 319 650 q 165 513 183 543 q 150 460 146 482 q 193 429 156 438 l 176 351 q 72 443 88 369 q 75 506 65 472 q 109 572 85 539 q 171 635 133 606 q 467 735 292 729 q 783 667 621 739 l 835 746 q 883 828 844 761 q 943 930 921 892 q 1013 1044 965 968 q 1097 1169 1061 1119 q 1185 1283 1133 1219 q 1278 1386 1236 1347 q 1370 1455 1321 1425 q 1463 1489 1419 1485 q 1653 1456 1590 1503 q 1728 1308 1717 1408 q 1717 1150 1733 1246 q 1679 982 1700 1054 q 1615 771 1658 910 q 1506 382 1533 510 m 1394 121 q 1426 399 1393 240 q 1538 794 1456 531 q 1599 997 1579 928 q 1636 1156 1619 1065 q 1647 1300 1653 1246 q 1471 1408 1633 1426 q 1394 1378 1436 1406 q 1315 1313 1353 1350 q 1231 1217 1278 1276 q 1152 1110 1185 1157 q 1075 992 1119 1064 q 1009 885 1031 921 q 953 788 988 849 q 901 703 915 722 l 857 631 q 1394 121 1135 479 m 1713 1628 l 1643 1617 l 1465 1763 l 1563 1785 l 1713 1628 z "},"":{"ha":1736,"x_min":61,"x_max":1781,"o":"m 1506 382 q 1478 212 1485 289 q 1481 58 1471 135 q 1521 -74 1490 -18 q 1612 -174 1551 -131 q 1761 -236 1672 -217 l 1744 -314 q 1426 -69 1499 -261 q 814 564 1131 393 l 454 1 l 358 1 l 740 599 q 469 654 600 658 q 219 572 319 650 q 165 513 183 543 q 150 460 146 482 q 193 429 156 438 l 176 351 q 72 443 88 369 q 89 540 63 488 q 171 635 115 592 q 467 735 292 729 q 783 667 621 739 l 835 746 q 883 828 844 761 q 943 930 921 892 q 1013 1044 965 968 q 1097 1169 1061 1119 q 1185 1283 1133 1219 q 1278 1386 1236 1347 q 1370 1455 1321 1425 q 1463 1489 1419 1485 q 1653 1456 1590 1503 q 1728 1308 1717 1408 q 1716 1150 1733 1246 q 1678 982 1699 1054 q 1615 771 1658 910 q 1506 382 1533 510 m 1394 121 q 1426 399 1393 240 q 1538 794 1456 531 q 1599 997 1579 928 q 1636 1156 1619 1065 q 1647 1300 1653 1246 q 1471 1408 1633 1426 q 1394 1378 1436 1406 q 1315 1313 1353 1350 q 1231 1217 1278 1276 q 1152 1110 1185 1157 q 1075 992 1119 1064 q 1009 885 1031 921 q 953 788 988 849 q 901 703 914 722 l 856 631 q 1394 121 1135 479 m 1781 1763 l 1603 1617 l 1533 1628 l 1685 1785 l 1781 1763 z "},"":{"ha":1719,"x_min":65,"x_max":1806,"o":"m 1506 382 q 1478 212 1485 289 q 1481 58 1471 135 q 1521 -74 1490 -18 q 1612 -174 1551 -131 q 1761 -236 1672 -217 l 1744 -314 q 1426 -69 1499 -261 q 814 564 1131 393 l 454 1 l 358 1 l 740 599 q 469 654 600 658 q 219 572 319 650 q 165 513 183 543 q 150 460 146 482 q 193 429 156 438 l 176 351 q 72 443 88 369 q 75 506 65 472 q 109 572 85 539 q 171 635 133 606 q 467 735 292 729 q 783 667 621 739 l 835 746 q 883 828 844 761 q 943 930 921 892 q 1013 1044 965 968 q 1097 1169 1061 1119 q 1185 1283 1133 1219 q 1278 1386 1236 1347 q 1370 1455 1321 1425 q 1463 1489 1419 1485 q 1653 1456 1590 1503 q 1728 1308 1717 1408 q 1716 1150 1733 1246 q 1678 982 1699 1054 q 1615 771 1658 910 q 1506 382 1533 510 m 1394 121 q 1426 399 1393 240 q 1538 794 1456 531 q 1599 997 1579 928 q 1636 1156 1619 1065 q 1647 1300 1653 1246 q 1471 1408 1633 1426 q 1394 1378 1436 1406 q 1315 1313 1353 1350 q 1231 1217 1278 1276 q 1152 1110 1185 1157 q 1075 992 1119 1064 q 1009 885 1031 921 q 953 788 988 849 q 901 703 915 722 l 856 631 q 1394 121 1135 479 m 1618 1714 l 1500 1617 l 1432 1628 q 1513 1713 1461 1658 q 1582 1785 1565 1768 l 1654 1785 q 1806 1628 1693 1744 l 1736 1617 l 1618 1714 z "},"":{"ha":1772,"x_min":61,"x_max":1781,"o":"m 1506 382 q 1481 240 1489 306 q 1476 107 1474 174 q 1496 -12 1478 40 q 1546 -111 1514 -65 q 1633 -188 1578 -157 q 1761 -236 1688 -219 l 1744 -314 q 1426 -69 1499 -261 q 814 564 1131 393 l 454 1 l 358 1 l 740 599 q 469 654 600 658 q 219 572 319 650 q 165 513 183 543 q 150 460 146 482 q 193 429 156 438 l 176 351 q 72 443 88 369 q 89 540 63 488 q 171 635 115 592 q 467 735 292 729 q 783 667 621 739 l 835 746 q 883 828 844 761 q 943 930 921 892 q 1013 1044 965 968 q 1097 1169 1061 1119 q 1185 1283 1133 1219 q 1278 1386 1236 1347 q 1370 1455 1321 1425 q 1463 1489 1419 1485 q 1653 1456 1590 1503 q 1728 1308 1717 1408 q 1716 1150 1733 1246 q 1678 982 1699 1054 q 1615 771 1658 910 q 1506 382 1533 510 m 1394 121 q 1426 399 1393 240 q 1538 794 1456 531 q 1599 997 1579 928 q 1636 1156 1619 1065 q 1647 1300 1653 1246 q 1471 1408 1633 1426 q 1406 1386 1440 1406 q 1334 1331 1371 1367 q 1264 1257 1297 1294 q 1191 1164 1231 1219 q 1123 1067 1151 1108 q 1057 964 1094 1025 q 1001 872 1019 903 q 953 788 983 840 q 901 703 915 722 l 856 631 q 1394 121 1135 479 m 1514 1663 q 1474 1654 1494 1671 q 1444 1622 1453 1638 q 1433 1601 1436 1607 l 1379 1626 q 1381 1631 1381 1629 q 1388 1643 1382 1633 q 1398 1660 1393 1653 q 1412 1678 1403 1667 q 1430 1697 1421 1689 q 1451 1713 1439 1706 q 1477 1724 1464 1721 q 1506 1726 1490 1726 q 1538 1718 1521 1725 q 1617 1675 1572 1704 q 1672 1649 1653 1650 q 1689 1652 1681 1647 q 1704 1664 1697 1657 q 1716 1678 1711 1671 q 1724 1690 1721 1685 q 1726 1694 1726 1694 l 1781 1668 q 1775 1658 1779 1665 q 1760 1638 1771 1651 q 1738 1614 1750 1625 q 1706 1595 1725 1603 q 1668 1589 1688 1588 q 1583 1625 1633 1590 q 1514 1663 1543 1651 z "},"":{"ha":1735,"x_min":61,"x_max":1763,"o":"m 1506 382 q 1481 240 1489 306 q 1476 107 1474 174 q 1496 -12 1478 40 q 1546 -111 1514 -65 q 1633 -188 1578 -157 q 1761 -236 1688 -219 l 1744 -314 q 1426 -69 1499 -261 q 814 564 1131 393 l 454 1 l 358 1 l 740 599 q 469 654 600 658 q 219 572 319 650 q 165 513 183 543 q 150 460 146 482 q 193 429 156 438 l 176 351 q 72 443 88 369 q 89 540 63 488 q 171 635 115 592 q 467 735 292 729 q 783 667 621 739 l 835 746 q 883 828 844 761 q 943 930 921 892 q 1013 1044 965 968 q 1097 1169 1061 1119 q 1185 1283 1133 1219 q 1278 1386 1236 1347 q 1370 1455 1321 1425 q 1463 1489 1419 1485 q 1653 1456 1590 1503 q 1728 1308 1717 1408 q 1717 1150 1733 1246 q 1679 982 1700 1054 q 1615 771 1658 910 q 1506 382 1533 510 m 1394 121 q 1426 399 1393 240 q 1538 794 1456 531 q 1599 997 1579 928 q 1636 1156 1619 1065 q 1647 1300 1653 1246 q 1471 1408 1633 1426 q 1394 1378 1436 1406 q 1315 1313 1353 1350 q 1231 1217 1278 1276 q 1152 1110 1185 1157 q 1075 992 1119 1064 q 1009 885 1031 921 q 953 788 988 849 q 901 703 915 722 l 856 631 q 1394 121 1135 479 m 1715 1625 l 1621 1625 l 1621 1706 l 1715 1706 l 1715 1625 m 1528 1625 l 1433 1625 l 1433 1706 l 1528 1706 l 1528 1625 z "},"":{"ha":1750,"x_min":61,"x_max":1763,"o":"m 1506 382 q 1478 212 1485 289 q 1481 58 1471 135 q 1521 -74 1490 -18 q 1612 -174 1551 -131 q 1761 -236 1672 -217 l 1744 -314 q 1426 -69 1499 -261 q 814 564 1131 393 l 454 1 l 358 1 l 740 599 q 469 654 600 658 q 219 572 319 650 q 165 513 183 543 q 150 460 146 482 q 193 429 156 438 l 176 351 q 72 443 88 369 q 89 540 63 488 q 171 635 115 592 q 467 735 292 729 q 783 667 621 739 l 835 746 q 883 828 844 761 q 943 930 921 892 q 1013 1044 965 968 q 1097 1169 1061 1119 q 1185 1283 1133 1219 q 1278 1386 1236 1347 q 1370 1455 1321 1425 q 1463 1489 1419 1485 q 1653 1456 1590 1503 q 1728 1308 1717 1408 q 1716 1150 1733 1246 q 1678 982 1699 1054 q 1615 771 1658 910 q 1506 382 1533 510 m 1394 121 q 1426 399 1393 240 q 1538 794 1456 531 q 1599 997 1579 928 q 1636 1156 1619 1065 q 1647 1300 1653 1246 q 1471 1408 1633 1426 q 1394 1378 1436 1406 q 1315 1313 1353 1350 q 1231 1217 1278 1276 q 1152 1110 1185 1157 q 1075 992 1119 1064 q 1009 885 1031 921 q 953 788 988 849 q 901 703 915 722 l 856 631 q 1394 121 1135 479 m 1640 1621 q 1558 1588 1606 1588 q 1475 1621 1510 1588 q 1440 1700 1440 1653 q 1475 1781 1440 1747 q 1558 1813 1510 1813 q 1640 1781 1606 1813 q 1675 1700 1675 1747 q 1640 1621 1675 1653 m 1517 1736 q 1500 1700 1500 1721 q 1517 1664 1500 1679 q 1558 1649 1533 1649 q 1599 1664 1582 1649 q 1615 1700 1615 1679 q 1599 1736 1615 1721 q 1558 1753 1582 1753 q 1517 1736 1533 1753 z "},"":{"ha":2435,"x_min":61,"x_max":2503,"o":"m 2313 78 l 2340 -3 l 1490 6 q 1761 -236 1540 -189 l 1744 -314 q 1425 -68 1499 -261 q 814 564 1131 393 l 454 1 l 358 1 l 740 599 q 469 654 601 658 q 219 572 319 650 q 165 513 183 543 q 150 460 146 482 q 193 429 156 438 l 176 351 q 72 443 88 369 q 89 540 63 488 q 171 635 115 592 q 467 735 292 729 q 785 667 622 739 l 835 746 q 883 828 844 761 q 943 931 921 892 q 1013 1044 965 969 q 1097 1169 1061 1119 q 1185 1283 1133 1219 q 1278 1386 1236 1347 q 1370 1455 1321 1425 q 1463 1489 1419 1485 q 1696 1411 1635 1507 l 1703 1443 l 1700 1443 q 1703 1446 1703 1444 l 1708 1465 l 1718 1526 q 2121 1520 1908 1536 q 2489 1479 2333 1504 l 2503 1399 q 2168 1438 2361 1422 q 1797 1447 1975 1453 l 1618 696 l 2096 696 l 2124 615 l 1599 615 l 1476 99 q 1478 86 1476 93 l 2313 78 m 1394 142 q 1426 399 1396 253 q 1483 615 1447 493 l 1365 615 l 1336 694 l 1507 694 q 1538 794 1518 731 q 1586 953 1572 903 l 1643 1192 q 1647 1300 1653 1256 q 1471 1408 1633 1426 q 1412 1388 1443 1406 q 1351 1347 1381 1371 q 1287 1283 1322 1322 q 1224 1208 1251 1243 q 1160 1120 1196 1172 q 1101 1033 1124 1068 q 1044 942 1078 997 q 995 861 1011 888 q 953 788 979 835 q 901 703 914 722 l 857 631 q 1390 126 1133 481 l 1394 142 z "},"":{"ha":1458,"x_min":47,"x_max":1600,"o":"m 1426 1469 q 1556 1374 1514 1438 q 1599 1228 1599 1310 q 1540 1039 1597 1131 q 1385 893 1481 944 q 1242 847 1317 856 q 1075 866 1167 838 q 896 965 983 894 q 872 983 886 972 q 849 1001 858 994 q 828 1018 840 1008 q 806 1035 815 1028 q 788 1049 797 1042 q 770 1060 778 1056 q 756 1068 763 1064 q 743 1073 749 1072 q 733 1074 738 1074 q 715 1037 715 1068 q 729 958 714 1006 q 763 864 744 910 q 806 766 781 818 q 840 694 831 714 q 858 658 850 674 l 786 622 q 760 669 783 622 q 709 783 738 715 q 658 928 681 851 q 635 1063 636 1004 q 667 1151 635 1122 q 702 1163 682 1163 q 755 1152 722 1164 q 835 1109 788 1140 q 944 1028 882 1078 q 1094 945 1019 969 q 1231 927 1169 921 q 1347 964 1292 933 q 1472 1081 1424 1006 q 1518 1228 1518 1154 q 1506 1296 1518 1265 q 1467 1353 1494 1326 q 1399 1394 1439 1379 q 1275 1417 1346 1414 q 1113 1401 1203 1418 q 682 1213 899 1363 q 315 847 464 1060 q 151 358 131 581 q 239 157 164 238 q 440 50 314 75 q 1042 185 697 -1 q 1192 269 1125 229 q 1279 325 1232 293 l 1324 257 q 1232 200 1275 226 q 1079 114 1161 158 q 439 -32 719 -81 l 389 -147 q 388 -319 450 -240 q 357 -350 374 -336 q 325 -372 340 -364 q 294 -387 310 -381 q 267 -396 278 -393 q 244 -400 256 -399 q 230 -401 233 -401 q 224 -401 226 -401 l 224 -321 q 241 -319 231 -321 q 278 -305 251 -318 q 325 -268 306 -292 q 314 -181 354 -232 q 306 -137 296 -161 l 360 -12 q 179 101 251 24 q 72 351 86 203 q 250 893 47 603 q 636 1278 406 1118 q 1097 1481 867 1438 q 1278 1496 1196 1499 q 1426 1469 1363 1494 z "},"":{"ha":1681,"x_min":69,"x_max":2143,"o":"m 1300 1519 q 1536 1529 1421 1529 q 1769 1521 1651 1529 q 1978 1502 1888 1513 q 2143 1479 2069 1492 l 2129 1399 q 1808 1438 1996 1422 q 1440 1447 1621 1453 l 997 696 l 1475 696 l 1475 615 l 950 615 l 639 86 l 1475 78 l 1474 -3 l 569 7 q 541 19 553 7 q 529 47 529 31 q 535 67 529 57 l 857 615 l 715 615 l 715 696 l 904 696 l 1344 1443 q 1307 1440 1325 1442 q 939 1350 1069 1418 q 799 1153 799 1278 q 822 1039 799 1101 q 676 697 953 693 q 118 874 474 700 q 69 899 92 888 l 107 969 q 486 814 306 864 q 772 907 783 731 q 747 1010 769 951 q 718 1153 718 1086 q 901 1422 718 1326 q 1300 1519 1046 1497 m 1724 1713 l 1656 1701 l 1478 1847 l 1574 1871 l 1724 1713 z "},"":{"ha":1674,"x_min":69,"x_max":2143,"o":"m 1300 1519 q 1536 1529 1421 1529 q 1769 1521 1651 1529 q 1978 1502 1888 1513 q 2143 1479 2069 1492 l 2129 1399 q 1808 1438 1996 1422 q 1440 1447 1621 1453 l 997 696 l 1475 696 l 1475 615 l 950 615 l 639 86 l 1475 78 l 1474 -3 l 569 7 q 541 19 553 7 q 529 47 529 31 q 535 67 529 57 l 857 615 l 715 615 l 715 696 l 904 696 l 1344 1443 q 1307 1440 1325 1442 q 939 1350 1069 1418 q 799 1153 799 1278 q 822 1039 799 1101 q 676 697 953 693 q 118 874 474 700 q 69 899 92 888 l 107 969 q 486 814 306 864 q 772 907 783 731 q 747 1010 769 951 q 718 1153 718 1086 q 901 1422 718 1326 q 1300 1519 1046 1497 m 1911 1847 l 1733 1701 l 1664 1713 l 1815 1871 l 1911 1847 z "},"":{"ha":1688,"x_min":69,"x_max":2143,"o":"m 1300 1519 q 1536 1529 1421 1529 q 1769 1521 1651 1529 q 1978 1502 1888 1513 q 2143 1479 2069 1492 l 2129 1399 q 1808 1438 1996 1422 q 1440 1447 1621 1453 l 997 696 l 1475 696 l 1475 615 l 950 615 l 639 86 l 1475 78 l 1474 -3 l 569 7 q 541 19 553 7 q 529 47 529 31 q 535 67 529 57 l 857 615 l 715 615 l 715 696 l 904 696 l 1344 1443 q 1307 1440 1325 1442 q 939 1350 1069 1418 q 799 1153 799 1278 q 822 1039 799 1101 q 676 697 953 693 q 118 874 474 700 q 69 899 92 888 l 107 969 q 486 814 306 864 q 772 907 783 731 q 747 1010 769 951 q 718 1153 718 1086 q 901 1422 718 1326 q 1300 1519 1046 1497 m 1808 1799 l 1690 1701 l 1622 1713 q 1772 1871 1718 1814 l 1844 1871 q 1994 1713 1890 1822 l 1926 1701 l 1808 1799 z "},"":{"ha":1658,"x_min":69,"x_max":2143,"o":"m 1300 1519 q 1615 1528 1446 1535 q 1913 1509 1785 1522 q 2143 1479 2042 1496 l 2129 1400 q 1808 1438 1996 1422 q 1440 1447 1621 1454 l 997 696 l 1475 696 l 1475 615 l 950 615 l 639 86 l 1475 78 l 1474 -3 l 569 7 q 541 19 553 7 q 529 47 529 31 q 535 67 529 57 l 857 615 l 715 615 l 715 696 l 904 696 l 1344 1443 q 1307 1440 1325 1442 q 939 1350 1069 1418 q 799 1153 799 1278 q 822 1039 799 1101 q 676 697 953 693 q 118 874 474 700 q 69 899 92 888 l 107 969 q 486 814 306 864 q 772 907 783 731 q 747 1010 769 951 q 718 1153 718 1086 q 901 1422 718 1326 q 1300 1519 1046 1497 m 1514 1710 l 1419 1710 l 1419 1790 l 1514 1790 l 1514 1710 m 1701 1710 l 1607 1710 l 1607 1790 l 1701 1790 l 1701 1710 z "},"":{"ha":796,"x_min":65,"x_max":1249,"o":"m 1169 1506 q 1198 1494 1186 1506 q 1210 1465 1210 1482 q 1204 1444 1210 1454 l 417 108 l 417 108 q 246 -37 335 -29 q 115 44 165 -46 q 69 238 75 119 q 85 415 67 322 q 144 603 103 507 q 262 792 186 700 q 439 953 338 885 q 806 1089 822 1211 q 496 625 790 979 q 460 582 475 600 l 399 635 q 585 882 531 788 q 571 938 629 960 q 485 886 542 925 q 323 742 392 825 q 217 571 254 658 q 164 400 181 483 q 150 240 147 317 q 186 83 154 142 q 239 42 210 39 q 347 149 286 46 l 1099 1425 l 939 1424 l 939 1504 l 1169 1506 m 1249 1644 l 1181 1633 l 1003 1779 l 1099 1803 l 1249 1644 z "},"":{"ha":810,"x_min":65,"x_max":1292,"o":"m 1169 1506 q 1190 1500 1181 1506 q 1204 1485 1199 1494 q 1210 1465 1210 1476 q 1204 1444 1210 1454 l 417 108 l 417 108 q 246 -37 335 -29 q 115 44 165 -46 q 69 238 75 119 q 85 415 67 322 q 144 603 103 507 q 262 792 186 700 q 439 953 338 885 q 806 1089 822 1211 q 496 625 790 979 q 460 582 475 600 l 399 635 q 585 882 531 788 q 571 938 629 960 q 485 886 542 925 q 323 742 392 825 q 217 571 254 658 q 164 400 181 483 q 150 240 147 317 q 186 83 154 142 q 239 42 210 39 q 347 149 286 46 l 1099 1425 l 939 1424 l 939 1504 l 1169 1506 m 1292 1779 l 1114 1633 l 1044 1644 l 1194 1803 l 1292 1779 z "},"":{"ha":808,"x_min":65,"x_max":1274,"o":"m 1169 1506 q 1190 1500 1181 1506 q 1204 1485 1199 1494 q 1210 1465 1210 1476 q 1204 1444 1210 1454 l 417 108 l 417 108 q 246 -37 335 -29 q 115 44 165 -46 q 69 238 75 119 q 85 415 67 322 q 144 603 103 507 q 262 792 186 700 q 439 953 338 885 q 806 1089 822 1211 q 496 625 790 979 q 460 582 475 600 l 399 635 q 585 882 531 788 q 571 938 629 960 q 485 886 542 925 q 323 742 392 825 q 217 571 254 658 q 164 400 181 483 q 150 240 147 317 q 186 83 154 142 q 239 42 210 39 q 347 149 286 46 l 1099 1425 l 939 1424 l 939 1504 l 1169 1506 m 1086 1731 l 968 1633 l 900 1644 q 964 1711 907 1651 q 1050 1803 1021 1771 l 1124 1803 q 1274 1644 1168 1754 l 1204 1633 l 1086 1731 z "},"":{"ha":793,"x_min":65,"x_max":1243,"o":"m 1169 1506 q 1198 1494 1186 1506 q 1210 1465 1210 1482 q 1204 1444 1210 1454 l 417 108 l 417 108 q 246 -37 335 -29 q 115 44 165 -46 q 69 238 75 119 q 85 415 67 322 q 144 603 103 507 q 262 792 186 700 q 439 953 338 885 q 806 1089 822 1211 q 496 625 790 979 q 460 582 475 600 l 399 635 q 585 882 531 788 q 571 938 629 960 q 485 886 542 925 q 323 742 392 825 q 217 571 254 658 q 164 400 181 483 q 150 240 147 317 q 186 83 154 142 q 239 42 210 39 q 347 149 286 46 l 1099 1425 l 939 1424 l 939 1504 l 1169 1506 m 1056 1642 l 963 1642 l 963 1722 l 1056 1722 l 1056 1642 m 1243 1642 l 1149 1642 l 1149 1722 l 1243 1722 l 1243 1642 z "},"":{"ha":1675,"x_min":64,"x_max":1832,"o":"m 1807 1393 q 1828 1256 1832 1338 q 1649 735 1818 1061 q 1390 204 1558 564 q 1293 -1 1322 58 l 1204 -1 q 1318 239 1238 68 q 1576 771 1486 599 q 1747 1260 1739 1082 q 1733 1361 1750 1322 q 1732 1364 1732 1363 q 1690 1408 1718 1394 q 1636 1422 1668 1421 q 1526 1410 1581 1425 q 1420 1367 1471 1396 q 1322 1300 1369 1338 q 1226 1211 1274 1263 q 1139 1111 1179 1160 q 1057 1001 1099 1063 q 983 889 1015 939 q 915 779 951 839 q 1425 867 1165 815 l 1440 788 q 867 697 1194 736 l 858 683 q 847 660 853 671 q 837 644 840 650 q 832 636 833 639 l 456 -1 l 358 -1 l 629 674 q 410 665 514 663 q 229 678 307 667 q 108 719 151 689 q 71 797 64 750 q 235 1038 82 893 q 554 1267 388 1183 q 735 1328 658 1319 q 875 1267 836 1338 q 846 999 919 1183 l 749 756 q 814 764 781 760 q 897 903 861 844 q 991 1045 933 961 q 1099 1189 1049 1129 q 1216 1313 1149 1249 q 1347 1417 1283 1378 q 1488 1481 1411 1457 q 1639 1501 1564 1506 q 1728 1479 1689 1500 q 1806 1397 1779 1453 q 1807 1393 1806 1396 m 150 788 q 185 744 146 760 q 297 725 224 728 q 459 727 371 722 q 657 744 547 732 l 771 1029 q 804 1229 831 1179 q 743 1247 792 1253 q 590 1196 682 1242 q 299 992 439 1118 q 150 788 160 867 m 763 676 l 768 686 q 718 681 743 683 l 619 436 l 763 676 m 1494 1633 l 1422 1633 q 1354 1704 1407 1649 q 1272 1790 1301 1760 l 1340 1803 l 1458 1706 l 1576 1803 l 1646 1790 q 1571 1713 1621 1765 q 1494 1633 1521 1661 z "},"":{"ha":1422,"x_min":54,"x_max":1494,"o":"m 1454 1322 q 1479 1114 1493 1236 q 1415 881 1467 1010 q 1263 576 1356 732 q 1057 288 1168 422 q 844 83 944 151 q 601 -18 736 7 q 325 -32 469 -65 q 274 -17 299 -26 q 74 244 100 40 q 121 592 54 393 q 307 967 183 782 q 486 1188 389 1088 q 693 1365 583 1289 q 925 1478 803 1442 q 1164 1501 1047 1515 q 1293 1471 1238 1493 q 1454 1322 1410 1424 m 1399 1124 q 1382 1289 1411 1224 q 1264 1396 1349 1363 q 1156 1422 1218 1414 q 940 1400 1050 1435 q 729 1294 829 1365 q 540 1128 629 1222 q 374 922 450 1035 q 196 567 256 746 q 153 254 136 385 q 299 58 174 101 q 343 47 321 51 q 625 79 496 11 q 804 293 756 147 q 815 332 811 311 q 806 601 874 585 q 747 594 785 606 q 682 570 710 583 q 606 531 654 557 q 450 471 492 472 q 378 546 379 469 q 392 636 376 586 q 466 795 414 711 q 588 950 518 879 q 942 1128 760 1122 q 1050 1113 997 1128 l 1028 1036 q 943 1047 986 1049 q 644 894 793 1043 q 535 755 582 831 q 468 614 488 679 q 457 553 458 579 q 568 603 481 557 q 659 647 626 632 q 740 675 692 663 q 824 679 789 688 q 893 314 971 646 q 881 267 889 290 q 842 181 865 221 q 994 339 913 239 q 1193 618 1103 468 q 1340 911 1283 768 q 1399 1124 1388 1029 m 1210 1611 l 1142 1599 l 964 1746 l 1060 1768 l 1210 1611 z "},"":{"ha":1465,"x_min":54,"x_max":1494,"o":"m 1454 1322 q 1479 1114 1493 1236 q 1415 881 1467 1010 q 1263 576 1356 732 q 1057 288 1168 422 q 844 83 944 151 q 601 -18 736 7 q 325 -32 469 -65 q 274 -17 299 -26 q 74 244 100 40 q 121 592 54 393 q 307 967 183 782 q 486 1188 389 1088 q 693 1365 583 1289 q 925 1478 803 1442 q 1164 1501 1047 1515 q 1293 1471 1238 1493 q 1454 1322 1410 1424 m 1399 1124 q 1382 1289 1411 1224 q 1264 1396 1349 1363 q 1156 1422 1218 1414 q 940 1400 1050 1435 q 729 1294 829 1365 q 540 1128 629 1222 q 374 922 450 1035 q 196 567 256 746 q 153 254 136 385 q 299 58 174 101 q 343 47 321 51 q 625 79 496 11 q 804 293 756 147 q 815 332 811 311 q 806 601 874 585 q 747 594 785 606 q 682 570 710 583 q 606 531 654 557 q 450 471 490 472 q 378 546 379 469 q 392 636 376 586 q 466 795 414 711 q 588 950 518 879 q 942 1128 760 1122 q 1050 1113 997 1128 l 1028 1036 q 943 1047 986 1049 q 644 894 793 1043 q 584 825 613 861 q 533 753 556 789 q 494 681 511 717 q 468 614 478 646 q 457 553 458 579 q 568 603 481 557 q 659 647 626 632 q 740 675 692 663 q 824 679 789 688 q 893 314 971 646 q 881 267 889 290 q 842 181 865 222 q 994 339 913 239 q 1193 618 1103 468 q 1340 911 1283 768 q 1399 1124 1388 1029 m 1363 1746 l 1185 1599 l 1117 1611 l 1267 1768 l 1363 1746 z "},"":{"ha":1451,"x_min":54,"x_max":1494,"o":"m 1454 1322 q 1479 1114 1493 1236 q 1415 881 1467 1010 q 1263 576 1356 732 q 1057 288 1168 422 q 844 83 944 151 q 601 -18 736 7 q 325 -32 469 -65 q 274 -17 299 -26 q 74 244 100 40 q 121 592 54 393 q 307 967 183 782 q 486 1188 389 1088 q 693 1365 583 1289 q 925 1478 803 1442 q 1164 1501 1047 1515 q 1293 1471 1238 1493 q 1454 1322 1410 1424 m 1399 1124 q 1382 1289 1411 1224 q 1264 1396 1349 1363 q 1156 1422 1217 1414 q 940 1400 1050 1435 q 729 1294 829 1365 q 540 1128 629 1222 q 374 922 450 1035 q 196 567 256 746 q 153 254 136 385 q 299 58 174 101 q 343 47 321 51 q 625 79 496 11 q 804 293 756 147 q 815 332 811 311 q 806 601 874 585 q 747 594 785 606 q 682 570 710 583 q 606 531 654 557 q 450 471 492 472 q 378 546 379 469 q 392 636 376 586 q 466 795 414 711 q 588 950 518 879 q 942 1128 760 1122 q 1050 1113 997 1128 l 1028 1036 q 943 1047 986 1049 q 644 894 793 1043 q 535 755 582 831 q 468 614 488 679 q 457 553 458 579 q 568 603 481 557 q 601 619 590 614 q 633 635 613 625 q 667 651 654 646 q 700 663 681 656 q 733 674 719 671 q 764 681 747 678 q 795 683 781 683 q 824 679 810 682 q 893 314 971 646 q 881 267 889 290 q 842 181 865 222 q 994 339 913 239 q 1193 618 1103 468 q 1340 911 1283 768 q 1399 1124 1388 1029 m 1115 1696 l 997 1599 l 929 1611 q 1079 1768 1025 1711 l 1153 1768 q 1303 1611 1200 1718 l 1233 1599 l 1115 1696 z "},"":{"ha":1379,"x_min":54,"x_max":1494,"o":"m 1454 1322 q 1479 1114 1493 1236 q 1415 881 1467 1010 q 1263 576 1356 732 q 1057 288 1168 422 q 844 83 944 151 q 601 -18 736 7 q 325 -32 469 -65 q 274 -17 299 -26 q 74 244 100 40 q 121 592 54 393 q 307 967 183 782 q 486 1188 389 1088 q 693 1365 583 1289 q 925 1478 803 1442 q 1164 1501 1047 1515 q 1293 1471 1238 1493 q 1454 1322 1410 1424 m 1399 1124 q 1382 1289 1411 1224 q 1264 1396 1349 1363 q 1156 1422 1217 1414 q 982 1411 1071 1432 q 812 1345 893 1390 q 651 1234 731 1300 q 503 1090 571 1168 q 374 922 435 1011 q 196 567 256 746 q 153 254 136 385 q 299 58 174 101 q 343 47 321 51 q 625 79 496 11 q 804 293 756 147 q 815 332 811 311 q 806 601 874 585 q 747 594 785 606 q 682 570 710 583 q 606 531 654 557 q 450 471 492 472 q 378 546 379 469 q 392 636 376 586 q 466 795 414 711 q 588 950 518 879 q 942 1128 760 1122 q 1050 1113 997 1128 l 1028 1036 q 943 1047 986 1049 q 644 894 793 1043 q 535 755 582 831 q 468 614 488 679 q 457 553 458 579 q 568 603 481 557 q 659 647 626 632 q 740 675 692 663 q 824 679 789 688 q 893 314 971 646 q 881 267 889 290 q 842 181 865 221 q 994 339 913 239 q 1193 618 1103 468 q 1340 911 1283 768 q 1399 1124 1388 1029 m 1063 1646 q 1022 1638 1043 1654 q 993 1606 1001 1621 q 982 1585 985 1590 l 928 1610 q 930 1615 929 1613 q 936 1626 931 1617 q 947 1642 942 1635 q 960 1661 951 1650 q 978 1680 969 1672 q 1000 1696 988 1688 q 1026 1707 1013 1704 q 1054 1709 1039 1710 q 1086 1701 1069 1708 q 1165 1657 1121 1688 q 1221 1632 1201 1633 q 1238 1635 1229 1631 q 1253 1647 1246 1640 q 1265 1660 1260 1653 q 1272 1672 1269 1668 q 1275 1678 1275 1676 l 1329 1651 q 1326 1646 1329 1650 q 1318 1634 1324 1642 q 1306 1618 1313 1626 q 1290 1601 1300 1610 q 1269 1585 1279 1592 q 1244 1574 1258 1578 q 1217 1571 1231 1571 q 1132 1607 1182 1574 q 1063 1646 1092 1633 z "},"":{"ha":1386,"x_min":54,"x_max":1494,"o":"m 1454 1322 q 1479 1114 1493 1236 q 1415 881 1467 1010 q 1263 576 1356 732 q 1057 288 1168 422 q 844 83 944 151 q 601 -18 736 7 q 325 -32 469 -65 q 274 -17 299 -26 q 74 244 100 40 q 121 592 54 393 q 307 967 183 782 q 486 1188 389 1088 q 693 1365 583 1289 q 925 1478 803 1442 q 1164 1501 1047 1515 q 1293 1471 1238 1493 q 1454 1322 1410 1424 m 1399 1124 q 1382 1289 1411 1224 q 1264 1396 1349 1363 q 1156 1422 1218 1414 q 940 1400 1050 1435 q 729 1294 829 1365 q 540 1128 629 1222 q 374 922 450 1035 q 196 567 256 746 q 153 254 136 385 q 299 58 174 101 q 343 47 321 51 q 625 79 496 11 q 804 293 756 147 q 815 332 811 311 q 806 601 874 585 q 747 594 785 606 q 682 570 710 583 q 606 531 654 557 q 450 471 492 472 q 378 546 379 469 q 392 636 376 586 q 466 795 414 711 q 588 950 518 879 q 942 1128 760 1122 q 1050 1113 997 1128 l 1028 1036 q 943 1047 986 1049 q 644 894 793 1043 q 584 825 613 861 q 533 753 556 789 q 494 681 511 717 q 468 614 478 646 q 457 553 458 579 q 568 603 481 557 q 659 647 626 632 q 740 675 692 663 q 824 679 789 688 q 893 314 971 646 q 881 267 889 290 q 842 181 865 222 q 994 339 913 239 q 1193 618 1103 468 q 1340 911 1283 768 q 1399 1124 1388 1029 m 1149 1608 l 1056 1608 l 1056 1689 l 1149 1689 l 1149 1608 m 1336 1608 l 1242 1608 l 1242 1689 l 1336 1689 l 1336 1608 z "},"":{"ha":746,"x_min":69,"x_max":678,"o":"m 676 622 l 425 468 l 494 326 l 422 292 l 357 425 l 111 275 l 69 343 l 321 497 l 253 639 l 325 674 l 390 540 l 635 690 l 676 622 z "},"":{"ha":1422,"x_min":54,"x_max":1494,"o":"m 1454 1322 q 1479 1114 1493 1236 q 1415 881 1467 1010 q 1263 576 1356 732 q 1057 288 1168 422 q 844 83 944 151 q 601 -18 736 7 q 325 -32 469 -65 q 274 -17 299 -26 q 270 -16 272 -17 q 267 -14 268 -15 l 161 -156 l 97 -108 l 194 22 q 74 244 93 94 q 121 592 54 393 q 307 967 183 782 q 486 1188 389 1088 q 693 1365 583 1289 q 925 1478 803 1442 q 1164 1501 1047 1515 q 1275 1476 1225 1494 l 1357 1588 l 1422 1539 l 1350 1442 q 1454 1322 1421 1397 m 242 88 l 551 504 q 450 471 485 472 q 378 546 379 469 q 392 636 376 586 q 466 795 414 711 q 588 950 518 879 q 942 1126 760 1122 q 1011 1122 975 1128 l 1225 1408 q 1156 1422 1192 1418 q 940 1400 1050 1435 q 729 1294 829 1365 q 540 1128 629 1222 q 374 922 450 1035 q 196 567 256 746 q 153 254 136 385 q 242 88 168 142 m 956 1047 q 943 1047 944 1047 q 644 894 793 1043 q 596 840 619 868 q 553 782 572 811 q 517 724 533 753 q 488 667 500 694 q 468 614 476 640 q 457 553 458 579 q 568 603 481 557 q 658 646 625 632 l 956 1047 m 804 293 q 815 332 811 311 q 806 601 874 585 q 710 582 775 608 l 317 54 q 343 47 339 47 q 625 79 496 11 q 804 293 756 147 m 1399 1124 q 1382 1289 1411 1224 q 1301 1378 1357 1344 l 785 682 q 824 679 808 683 q 893 314 971 646 q 881 267 889 290 q 842 181 865 222 q 994 339 913 239 q 1193 618 1103 468 q 1340 911 1283 768 q 1399 1124 1388 1029 z "},"":{"ha":2115,"x_min":67,"x_max":2329,"o":"m 2226 1525 q 2285 1570 2251 1561 q 2324 1556 2318 1579 q 2292 1478 2329 1532 l 2269 1446 q 2201 1344 2232 1390 q 2099 1186 2171 1299 q 1972 978 2028 1074 q 1846 748 1917 882 q 1727 502 1775 614 q 1642 269 1679 390 q 1599 56 1606 149 q 1829 -233 1579 -215 l 1824 -314 q 1518 61 1493 -290 q 1767 769 1538 325 q 1566 534 1663 640 q 1352 323 1469 428 q 1122 147 1235 218 q 881 28 1010 75 q 628 -21 753 -18 q 461 14 526 -24 q 394 81 418 39 q 368 178 369 122 q 453 440 365 289 l 514 546 q 439 540 475 540 q 160 585 249 536 q 69 725 71 635 q 200 987 68 833 q 529 1289 332 1140 q 886 1510 715 1429 q 1110 1561 1057 1592 q 1110 1410 1175 1522 l 676 664 q 963 776 806 703 q 1703 1214 1293 931 l 1747 1147 q 996 704 1333 861 q 618 565 785 604 l 522 400 q 449 181 446 268 q 464 121 449 146 q 501 83 476 99 q 625 58 547 57 q 861 108 740 63 q 1083 215 982 153 q 1303 387 1183 276 q 1503 583 1422 497 q 1698 813 1583 668 q 1871 1038 1813 958 q 2035 1263 1929 1117 q 2211 1506 2158 1435 l 2226 1525 m 439 619 q 567 635 496 621 l 1040 1450 q 1051 1465 1046 1458 q 1059 1477 1056 1472 q 1065 1485 1063 1482 q 1069 1489 1068 1488 q 1069 1492 1069 1490 q 891 1431 1036 1510 q 578 1225 746 1351 q 271 951 393 1086 q 150 726 149 815 q 439 619 151 615 m 1885 1663 l 1817 1650 l 1639 1796 l 1735 1819 l 1885 1663 z "},"":{"ha":2115,"x_min":67,"x_max":2329,"o":"m 2226 1525 q 2285 1570 2251 1561 q 2324 1556 2318 1579 q 2292 1478 2329 1532 l 2269 1446 q 2201 1344 2232 1390 q 2099 1186 2171 1299 q 1972 978 2028 1074 q 1846 748 1917 882 q 1727 502 1775 614 q 1642 269 1679 390 q 1599 56 1606 149 q 1829 -233 1579 -215 l 1824 -314 q 1518 61 1493 -290 q 1767 769 1538 325 q 1566 534 1663 640 q 1352 323 1469 428 q 1122 147 1235 218 q 881 28 1010 75 q 628 -21 753 -18 q 461 14 526 -24 q 394 81 418 39 q 368 178 369 122 q 453 440 365 289 l 514 546 q 439 540 475 540 q 160 585 249 536 q 69 725 71 635 q 200 987 68 833 q 529 1289 332 1140 q 886 1510 715 1429 q 1110 1561 1057 1592 q 1110 1410 1175 1522 l 676 664 q 963 776 806 703 q 1703 1214 1293 931 l 1747 1147 q 996 704 1333 861 q 618 565 785 604 l 522 400 q 449 181 446 268 q 464 121 449 146 q 501 83 476 99 q 625 58 547 57 q 861 108 740 63 q 1083 215 982 153 q 1303 387 1183 276 q 1503 583 1422 497 q 1698 813 1583 668 q 1871 1038 1813 958 q 2035 1263 1929 1117 q 2211 1506 2158 1435 l 2226 1525 m 439 619 q 567 635 496 621 l 1040 1450 q 1056 1473 1049 1463 q 1067 1487 1064 1483 q 1069 1492 1069 1490 q 891 1431 1036 1510 q 578 1225 746 1351 q 271 951 393 1086 q 150 726 149 815 q 439 619 151 615 m 1808 1796 l 1631 1650 l 1561 1663 l 1713 1819 l 1808 1796 z "},"":{"ha":2108,"x_min":67,"x_max":2329,"o":"m 2226 1525 q 2285 1570 2251 1561 q 2324 1556 2318 1579 q 2292 1478 2329 1532 l 2269 1446 q 2201 1344 2232 1390 q 2099 1186 2171 1299 q 1972 978 2028 1074 q 1846 748 1917 882 q 1727 502 1775 614 q 1642 269 1679 390 q 1599 56 1606 149 q 1829 -233 1579 -215 l 1824 -314 q 1518 61 1493 -290 q 1767 769 1538 325 q 1566 534 1663 640 q 1352 323 1469 428 q 1122 147 1235 218 q 881 28 1010 75 q 628 -21 753 -18 q 461 14 526 -24 q 394 81 418 39 q 368 178 369 122 q 453 440 365 289 l 514 546 q 439 540 475 540 q 160 585 249 536 q 69 725 71 635 q 200 987 68 833 q 529 1289 332 1140 q 886 1510 715 1429 q 1110 1561 1057 1592 q 1110 1410 1175 1522 l 676 664 q 963 776 806 703 q 1703 1214 1293 931 l 1747 1147 q 996 704 1333 861 q 618 565 785 604 l 522 400 q 449 181 446 268 q 464 121 449 146 q 501 83 476 99 q 625 58 547 57 q 861 108 740 63 q 1083 215 982 153 q 1303 387 1183 276 q 1503 583 1422 497 q 1698 813 1583 668 q 1871 1038 1813 958 q 2035 1263 1929 1117 q 2211 1506 2158 1435 l 2226 1525 m 439 619 q 567 635 496 621 l 1040 1450 q 1056 1473 1049 1463 q 1067 1487 1064 1483 q 1069 1492 1069 1490 q 891 1431 1036 1510 q 578 1225 746 1351 q 271 951 393 1086 q 150 726 149 815 q 439 619 151 615 m 1749 1747 l 1631 1650 l 1561 1663 q 1713 1819 1582 1683 l 1785 1819 q 1935 1663 1832 1769 l 1867 1650 l 1749 1747 z "},"":{"ha":2088,"x_min":67,"x_max":2329,"o":"m 2226 1525 q 2285 1570 2251 1561 q 2324 1556 2318 1579 q 2292 1478 2329 1532 l 2269 1446 q 2201 1344 2232 1390 q 2099 1186 2171 1299 q 1972 978 2028 1074 q 1846 748 1917 882 q 1727 502 1775 614 q 1642 269 1679 390 q 1599 56 1606 149 q 1829 -233 1579 -215 l 1824 -314 q 1518 61 1493 -290 q 1767 769 1538 325 q 1566 534 1663 640 q 1352 323 1469 428 q 1122 147 1235 218 q 881 28 1010 75 q 628 -21 753 -18 q 461 14 526 -24 q 394 81 418 39 q 368 178 369 122 q 453 440 365 289 l 514 546 q 439 540 475 540 q 160 585 249 536 q 69 725 71 635 q 200 987 68 833 q 529 1289 332 1140 q 886 1510 715 1429 q 1110 1561 1057 1592 q 1110 1410 1175 1522 l 676 664 q 963 776 806 703 q 1703 1214 1293 931 l 1747 1147 q 996 704 1333 861 q 618 565 785 604 l 522 400 q 449 181 446 268 q 464 121 449 146 q 501 83 476 99 q 625 58 547 57 q 861 108 740 63 q 1083 215 982 153 q 1303 387 1183 276 q 1503 583 1422 497 q 1698 813 1583 668 q 1871 1038 1813 958 q 2035 1263 1929 1117 q 2211 1506 2158 1435 l 2226 1525 m 439 619 q 567 635 496 621 l 1040 1450 q 1051 1465 1046 1458 q 1059 1477 1056 1472 q 1065 1485 1063 1482 q 1069 1489 1068 1488 q 1069 1492 1069 1490 q 891 1431 1036 1510 q 578 1225 746 1351 q 271 951 393 1086 q 150 726 149 815 q 439 619 151 615 m 1815 1658 l 1721 1658 l 1721 1740 l 1815 1740 l 1815 1658 m 1628 1658 l 1535 1658 l 1535 1740 l 1628 1740 l 1628 1658 z "},"":{"ha":2228,"x_min":67,"x_max":2431,"o":"m 2408 1521 q 2410 1460 2431 1503 q 2408 1457 2410 1458 l 2408 1456 q 2361 1375 2399 1435 q 1526 -99 1803 492 q 1683 -146 1579 -112 q 1794 -179 1756 -168 q 1897 -206 1832 -190 q 2006 -227 1963 -222 q 2105 -231 2050 -232 q 2207 -217 2160 -229 l 2228 -296 q 2092 -313 2161 -312 q 1941 -297 2022 -314 q 1808 -267 1860 -281 q 1658 -222 1756 -253 q 1492 -172 1547 -187 q 1438 -297 1463 -236 q 1186 -721 1328 -554 q 881 -942 1035 -897 q 646 -894 724 -986 q 594 -717 590 -829 q 646 -497 597 -614 q 737 -338 682 -414 q 864 -199 792 -262 q 1031 -96 936 -135 q 1226 -54 1125 -57 q 1447 -78 1325 -51 q 1892 758 1618 289 q 1692 526 1788 631 q 1479 317 1596 421 q 1251 143 1363 214 q 1013 27 1140 72 q 761 -21 885 -18 q 594 14 661 -24 q 528 81 551 39 q 501 178 503 122 q 586 440 499 289 l 1106 1339 q 1139 1400 1128 1375 q 1121 1386 1131 1394 q 1034 1304 1086 1360 q 944 1203 982 1249 q 832 1071 906 1158 q 736 955 769 994 q 641 846 703 915 q 540 738 579 776 q 446 651 501 700 q 349 576 390 601 q 263 534 308 551 q 179 519 218 517 q 117 539 143 522 q 69 629 72 569 q 100 751 67 682 q 418 1132 176 913 l 472 1072 q 172 718 242 864 q 150 633 149 665 q 161 606 150 614 q 185 600 169 600 q 242 608 211 597 q 309 644 272 618 q 378 694 346 669 q 455 765 410 719 q 531 844 500 811 q 613 936 563 878 q 691 1027 664 994 q 771 1122 718 1060 q 857 1225 828 1190 q 931 1310 886 1260 q 1008 1394 975 1361 q 1071 1450 1042 1426 q 1158 1500 1124 1490 q 1213 1492 1190 1507 q 1233 1436 1238 1472 q 1175 1299 1229 1392 l 657 400 q 582 181 579 268 q 597 121 582 146 q 635 83 610 99 q 758 58 682 57 q 994 108 874 63 q 1216 215 1115 153 q 1436 387 1317 276 q 1637 583 1556 497 q 1832 813 1718 668 q 2005 1038 1946 958 q 2168 1263 2064 1117 q 2344 1506 2292 1435 q 2353 1514 2349 1510 q 2363 1522 2357 1519 q 2408 1521 2385 1539 m 1364 -267 q 1413 -153 1386 -211 q 1228 -135 1310 -132 q 1090 -160 1157 -136 q 967 -221 1022 -183 q 864 -309 913 -258 q 780 -415 815 -360 q 719 -529 744 -469 q 674 -718 676 -631 q 707 -842 672 -801 q 858 -864 751 -894 q 1125 -669 990 -826 q 1364 -267 1260 -511 m 1872 1796 l 1694 1650 l 1625 1663 l 1776 1819 l 1872 1796 z "},"":{"ha":921,"x_min":69,"x_max":863,"o":"m 844 364 q 838 217 861 292 q 757 82 815 142 q 563 -31 683 6 q 289 -43 443 -67 l 300 36 q 537 46 435 17 q 700 138 639 75 q 763 240 744 183 q 767 344 779 294 q 717 430 754 392 q 621 488 681 468 l 619 489 l 606 493 q 556 510 574 504 q 515 532 539 517 q 471 568 490 547 q 436 625 446 596 q 434 688 426 654 q 451 744 442 722 q 481 808 460 767 q 509 863 500 843 q 526 916 518 883 q 532 976 535 949 q 486 1069 526 1033 q 379 1114 443 1108 q 261 1093 324 1119 l 258 1092 q 150 1021 200 1067 l 150 -36 l 69 -36 l 69 1038 q 81 1065 69 1054 q 226 1165 147 1132 q 229 1167 228 1167 q 386 1194 310 1201 q 540 1129 478 1186 q 611 983 603 1071 q 610 926 614 954 q 597 869 607 899 q 578 821 586 839 q 553 771 569 803 q 525 713 533 733 q 516 667 517 693 q 532 621 515 640 q 631 569 556 594 l 631 569 l 644 565 q 647 564 646 565 q 778 483 728 536 q 844 364 828 431 z "},"":{"ha":963,"x_min":-140,"x_max":1092,"o":"m 1039 408 l 1092 347 q 783 118 946 222 q 542 -7 628 17 q 446 -8 483 -22 q 388 71 394 11 q 392 131 385 96 q 332 89 363 107 q 144 8 236 28 q -21 1 53 -11 q -111 58 -83 13 q -124 174 -139 104 q -68 294 -111 231 q 87 457 -10 383 q 289 554 183 531 q 478 558 399 578 q 565 507 535 544 q 586 474 578 492 l 588 475 q 636 482 610 497 q 655 460 650 475 q 653 429 660 444 q 649 421 651 425 q 647 418 647 419 q 643 413 646 415 q 535 267 592 333 l 532 263 q 478 144 494 199 q 467 79 465 103 q 474 67 468 68 q 521 71 488 61 q 740 185 594 92 q 1039 408 897 288 m 290 157 q 469 314 383 217 q 490 349 479 332 q 514 414 511 386 l 514 415 q 504 456 517 442 q 458 481 490 472 q 307 476 397 496 q 133 392 217 456 q -1 250 50 328 q -46 156 -36 199 q -43 100 -54 119 q -6 81 -33 86 q 290 157 131 56 m 525 671 l 457 660 l 279 806 l 375 828 l 525 671 z "},"":{"ha":968,"x_min":-126,"x_max":1106,"o":"m 1053 408 l 1106 347 q 797 118 960 222 q 556 -7 642 17 q 460 -8 497 -22 q 401 71 408 11 q 406 131 399 96 q 346 89 376 107 q 158 8 250 28 q -7 1 67 -11 q -97 58 -69 13 q -110 174 -125 104 q -54 294 -97 231 q 38 403 -17 351 q 162 497 92 456 q 303 554 232 538 q 492 558 413 578 q 579 507 549 544 q 600 474 592 492 l 601 475 q 650 482 624 497 q 669 460 664 475 q 667 429 674 444 q 663 421 665 425 q 661 418 661 419 q 657 413 660 415 q 549 267 606 332 l 546 263 q 492 144 508 199 q 481 79 479 103 q 488 67 482 68 q 535 71 501 61 q 754 185 608 92 q 1053 408 911 288 m 304 157 q 483 314 397 217 q 504 349 493 331 q 528 414 525 386 l 528 415 q 518 456 531 442 q 472 481 504 472 q 321 476 411 496 q 147 392 231 456 q 13 250 64 328 q -32 156 -22 199 q -29 100 -40 119 q 8 81 -19 86 q 304 157 144 56 m 624 806 l 446 660 l 378 671 l 528 828 l 624 806 z "},"":{"ha":976,"x_min":-126,"x_max":1106,"o":"m 1053 408 l 1106 347 q 797 118 960 222 q 556 -7 642 17 q 460 -8 497 -22 q 401 71 408 11 q 406 131 399 96 q 346 89 376 107 q 158 8 250 28 q -7 1 67 -11 q -97 58 -69 13 q -110 174 -125 104 q -54 294 -97 231 q 38 403 -17 351 q 162 497 92 456 q 303 554 232 538 q 492 558 413 578 q 579 507 549 544 q 600 474 592 492 l 601 475 q 650 482 624 497 q 669 460 664 475 q 667 429 674 444 q 663 421 665 425 q 661 418 661 418 q 657 413 660 415 q 549 267 606 333 l 546 263 q 492 144 508 199 q 482 79 479 103 q 488 67 482 68 q 535 71 501 61 q 754 185 608 92 q 1053 408 911 288 m 304 157 q 483 314 397 217 q 504 349 493 332 q 528 414 525 386 l 528 415 q 518 456 531 442 q 472 481 504 472 q 321 476 411 496 q 147 392 231 456 q 13 250 64 328 q -32 156 -22 199 q -29 100 -40 119 q 8 81 -19 86 q 304 157 144 56 m 343 756 l 225 660 l 157 671 q 238 756 185 701 q 307 828 290 811 l 379 828 q 529 671 418 788 l 461 660 l 343 756 z "},"":{"ha":963,"x_min":-140,"x_max":1092,"o":"m 1039 408 l 1092 347 q 783 118 946 222 q 542 -7 628 17 q 446 -8 483 -22 q 388 71 394 11 q 392 131 385 96 q 332 89 363 107 q 144 8 236 28 q -21 1 53 -11 q -111 58 -83 13 q -124 174 -139 104 q -68 294 -111 231 q 87 457 -10 383 q 289 554 183 531 q 478 558 399 578 q 565 507 535 544 q 586 474 578 492 l 588 475 q 636 482 610 497 q 655 460 650 475 q 653 429 660 444 q 649 421 651 425 q 647 418 647 419 q 643 413 646 415 q 535 267 592 333 l 532 263 q 478 144 494 199 q 467 79 465 103 q 474 67 468 68 q 521 71 488 61 q 740 185 594 92 q 1039 408 897 288 m 290 157 q 469 314 383 217 q 490 349 479 331 q 514 414 511 386 l 514 415 q 504 456 517 442 q 458 481 490 472 q 307 476 397 496 q 133 392 217 456 q -1 250 50 328 q -46 156 -36 199 q -43 100 -54 119 q -6 81 -33 86 q 290 157 131 56 m 276 706 q 250 707 263 713 q 228 692 238 701 q 211 672 219 683 q 199 653 203 660 q 196 644 196 646 l 140 669 q 143 674 142 672 q 149 686 144 676 q 160 703 154 696 q 174 721 165 710 q 192 740 183 732 q 214 756 201 749 q 239 767 226 764 q 267 769 251 769 q 299 761 283 768 q 378 717 333 747 q 435 692 415 693 q 461 703 447 690 q 481 725 475 715 q 489 738 488 735 l 542 711 q 538 701 542 708 q 523 681 533 694 q 500 657 513 668 q 469 638 488 646 q 431 631 450 631 q 344 667 394 633 q 276 706 306 693 z "},"":{"ha":976,"x_min":-126,"x_max":1106,"o":"m 1053 408 l 1106 347 q 797 118 960 222 q 556 -7 642 17 q 460 -8 497 -22 q 401 71 408 11 q 406 131 399 96 q 346 89 376 107 q 158 8 250 28 q -7 1 67 -11 q -97 58 -69 13 q -110 174 -125 104 q -54 294 -97 231 q 101 457 4 383 q 303 554 197 531 q 492 558 413 578 q 579 507 549 544 q 600 474 592 492 l 601 475 q 650 482 624 497 q 669 460 664 475 q 667 429 674 444 q 663 421 665 425 q 661 418 661 419 q 657 413 660 415 q 549 267 606 333 l 546 263 q 492 144 508 199 q 481 79 479 103 q 488 67 482 68 q 535 71 501 61 q 754 185 608 92 q 1053 408 911 288 m 304 157 q 483 314 397 217 q 504 349 493 331 q 528 414 524 386 l 528 415 q 518 456 531 442 q 472 481 504 472 q 321 476 411 496 q 147 392 231 456 q 13 250 64 328 q -32 156 -22 199 q -29 100 -40 119 q 8 81 -19 86 q 304 157 143 56 m 474 668 l 381 668 l 381 749 l 474 749 l 474 668 m 286 668 l 193 668 l 193 749 l 286 749 l 286 668 z "},"":{"ha":963,"x_min":-140,"x_max":1092,"o":"m 1039 408 l 1092 347 q 783 118 946 222 q 542 -7 628 17 q 446 -8 483 -22 q 388 71 394 11 q 392 131 385 96 q 332 89 363 107 q 144 8 236 28 q -21 1 53 -11 q -111 58 -83 13 q -124 174 -139 104 q -68 294 -111 231 q 87 457 -10 383 q 289 554 183 531 q 478 558 399 578 q 565 507 535 544 q 586 474 578 492 l 588 475 q 636 482 610 497 q 655 460 650 475 q 653 429 660 444 q 649 421 651 425 q 647 418 647 419 q 643 413 646 415 q 535 267 592 333 l 532 263 q 478 144 494 199 q 467 79 465 103 q 474 67 468 68 q 521 71 488 61 q 740 185 594 92 q 1039 408 897 288 m 290 157 q 469 314 383 217 q 490 349 479 331 q 514 414 511 386 l 514 415 q 504 456 517 442 q 458 481 490 472 q 307 476 397 496 q 133 392 217 456 q -1 250 50 328 q -46 156 -36 199 q -43 100 -54 119 q -6 81 -33 86 q 290 157 131 56 m 469 664 q 388 631 436 631 q 306 664 340 631 q 271 743 271 696 q 306 824 271 790 q 388 856 340 856 q 469 824 436 856 q 506 743 506 790 q 469 664 506 696 m 347 779 q 331 743 331 764 q 347 707 331 722 q 388 692 364 692 q 429 707 413 692 q 444 743 444 722 q 429 779 444 764 q 388 794 413 794 q 347 779 364 794 z "},"":{"ha":1379,"x_min":-136,"x_max":1506,"o":"m 1449 389 l 1504 331 q 1200 101 1357 190 q 915 -17 1043 13 q 681 -35 788 -47 q 561 -3 614 -26 q 546 -7 553 -4 q 450 -8 488 -22 q 392 71 399 11 q 396 131 389 96 q 336 89 367 107 q 149 8 240 28 q -17 1 57 -11 q -107 58 -79 13 q -119 174 -135 104 q -64 294 -107 231 q 91 457 -6 383 q 293 554 188 531 q 482 558 403 578 q 569 507 539 544 q 590 474 582 492 l 592 475 q 618 488 603 486 q 746 551 674 526 q 929 578 849 586 q 993 560 965 574 q 1039 515 1024 543 q 1051 464 1051 492 q 985 342 1050 404 q 846 243 933 290 q 681 171 768 200 q 521 136 593 142 q 563 89 535 110 q 689 46 610 56 q 1044 111 842 28 q 1449 389 1246 194 m 453 290 q 510 383 472 338 q 518 414 517 400 l 518 415 q 508 456 521 442 q 463 481 494 472 q 311 476 401 496 q 138 392 221 456 q 3 250 54 328 q -42 156 -32 199 q -39 100 -50 119 q -1 81 -29 86 q 294 157 135 56 q 453 290 376 208 m 511 217 l 511 215 q 808 314 647 225 q 929 399 885 356 q 971 465 971 439 q 968 476 971 471 q 954 489 964 483 q 921 499 940 496 l 921 499 q 772 475 858 506 q 642 404 693 447 q 539 267 593 329 l 536 263 q 511 217 522 240 z "},"":{"ha":833,"x_min":-89,"x_max":957,"o":"m 956 331 q 537 40 746 129 q 168 -36 328 -50 l 149 -93 q 178 -215 217 -136 q 149 -256 167 -237 q 117 -285 132 -275 q 85 -303 101 -296 q 63 -314 69 -311 q 54 -317 57 -317 l 35 -239 q 49 -234 39 -237 q 77 -215 58 -231 q 106 -179 96 -200 q 89 -153 115 -160 l 89 -153 q 86 -151 88 -153 q 63 -131 71 -146 q 61 -101 56 -117 l 89 -21 q 3 21 39 -6 q -76 146 -64 69 q -49 295 -87 215 q 79 457 -11 375 q 244 551 143 515 q 428 578 347 586 q 499 556 468 574 q 544 497 533 533 q 536 411 557 458 q 438 288 511 354 l 383 346 q 463 443 444 403 q 468 474 471 463 q 456 488 465 481 q 419 499 442 496 q 270 476 356 506 q 132 397 185 446 q 3 160 -14 264 q 50 85 10 115 q 169 44 94 53 q 508 113 314 29 q 900 389 701 197 l 956 331 z "},"":{"ha":840,"x_min":-119,"x_max":963,"o":"m 906 389 l 963 331 q 658 101 815 190 q 372 -17 500 13 q 138 -35 244 -47 q -28 25 38 -22 q -111 153 -97 75 q -107 245 -119 197 q -58 348 -94 293 q 38 457 -22 403 q 203 551 101 515 q 386 578 306 586 q 450 560 422 574 q 496 515 481 543 q 508 464 508 492 q 443 342 507 404 q 304 243 390 290 q 138 171 225 200 q -22 136 50 142 q 19 89 -8 110 q 147 46 68 56 q 502 111 300 28 q 906 389 704 194 m -31 215 q 265 314 104 225 q 386 399 342 356 q 428 465 428 439 q 425 476 428 471 q 413 489 422 483 q 379 499 397 496 l 378 499 q 229 476 315 506 q 92 397 143 446 q -31 215 -15 300 m 449 671 l 381 660 l 203 806 l 299 828 l 449 671 z "},"":{"ha":833,"x_min":-119,"x_max":963,"o":"m 906 389 l 963 331 q 658 101 815 190 q 372 -17 500 13 q 138 -35 244 -47 q -28 25 38 -22 q -111 153 -97 75 q -107 245 -119 197 q -58 348 -94 293 q 38 457 -22 403 q 203 551 101 515 q 386 578 306 586 q 450 560 422 574 q 496 515 481 543 q 508 464 508 492 q 443 342 507 404 q 304 243 390 290 q 138 171 225 200 q -22 136 50 142 q 19 89 -8 110 q 147 46 68 56 q 502 111 300 28 q 906 389 704 194 m -31 215 q 265 314 104 225 q 386 399 342 356 q 428 465 428 439 q 425 476 428 471 q 413 489 422 483 q 378 499 397 496 l 378 499 q 229 476 315 506 q 92 397 143 446 q -31 215 -15 300 m 415 806 l 238 660 l 168 671 l 318 828 l 415 806 z "},"":{"ha":847,"x_min":-119,"x_max":963,"o":"m 906 389 l 963 331 q 658 101 815 190 q 372 -17 500 13 q 138 -35 244 -47 q -28 25 38 -22 q -111 153 -97 75 q -107 245 -119 197 q -58 348 -94 293 q 38 457 -22 403 q 203 551 101 515 q 386 578 306 586 q 450 560 422 574 q 496 515 481 543 q 508 464 508 492 q 443 342 507 404 q 304 243 390 290 q 138 171 225 200 q -22 136 50 142 q 19 89 -8 110 q 147 46 68 56 q 502 111 300 28 q 906 389 704 194 m -31 215 q 265 314 104 225 q 386 399 342 356 q 428 465 428 439 q 425 476 428 471 q 413 489 422 483 q 379 499 397 496 l 378 499 q 229 476 315 506 q 92 397 143 446 q -31 215 -15 300 m 313 756 l 194 660 l 126 671 q 276 828 147 693 l 349 828 q 499 671 388 788 l 431 660 l 313 756 z "},"":{"ha":825,"x_min":-135,"x_max":947,"o":"m 890 389 l 947 331 q 642 101 800 190 q 357 -17 485 13 q 122 -35 229 -47 q -43 25 22 -22 q -126 153 -112 75 q -122 245 -135 197 q -74 348 -110 293 q 22 457 -37 403 q 188 551 86 515 q 371 578 290 586 q 435 560 407 574 q 481 515 465 543 q 493 464 493 490 q 428 342 492 404 q 289 243 375 290 q 122 171 210 200 q -37 136 35 142 q 4 89 -24 110 q 132 46 53 56 q 487 111 285 28 q 890 389 689 194 m -46 215 q 250 314 89 225 q 371 399 326 356 q 413 465 413 439 q 410 476 413 471 q 397 489 407 483 q 363 499 382 496 l 363 499 q 214 476 300 506 q 76 397 128 446 q -46 215 -31 300 m 428 668 l 335 668 l 335 749 l 428 749 l 428 668 m 240 668 l 147 668 l 147 749 l 240 749 l 240 668 z "},"":{"ha":567,"x_min":-71,"x_max":700,"o":"m 647 476 l 699 415 q 651 372 688 406 q 597 324 617 342 q 534 269 576 306 q 461 210 492 233 q 385 153 431 186 q 304 99 339 119 q 226 56 269 79 q 149 24 183 33 q 79 12 114 15 q 16 20 44 8 q -35 56 -12 32 q -66 137 -62 86 q -57 237 -69 188 q -15 353 -44 286 q 36 460 14 419 q 89 556 58 501 l 182 556 l 169 533 q 131 466 146 492 q 90 390 117 440 q 48 303 63 339 q 20 226 33 267 q 8 156 7 185 q 24 110 10 126 q 60 90 39 94 q 108 91 81 85 q 163 108 135 97 q 228 142 192 119 q 294 183 264 164 q 363 234 324 203 q 429 286 403 265 q 493 340 456 307 q 549 390 531 374 q 597 432 568 406 q 647 476 635 465 m 299 671 l 229 660 l 51 806 l 149 828 l 299 671 z "},"":{"ha":589,"x_min":-56,"x_max":715,"o":"m 663 476 l 714 415 q 667 372 703 406 q 612 324 632 342 q 549 269 592 306 q 476 210 507 233 q 400 153 446 186 q 319 99 354 119 q 242 56 285 79 q 164 24 199 33 q 94 12 129 15 q 31 20 60 8 q -19 56 3 32 q -51 137 -47 86 q -42 237 -54 188 q 0 353 -29 286 q 51 460 29 419 q 104 556 74 501 l 197 556 l 185 533 q 147 466 161 492 q 105 390 132 440 q 63 303 78 339 q 35 226 49 267 q 24 156 22 185 q 39 110 25 126 q 74 90 53 94 q 123 91 96 85 q 178 108 150 97 q 243 142 207 119 q 309 183 279 164 q 378 234 339 203 q 444 286 418 265 q 508 340 471 307 q 565 390 546 374 q 613 432 583 406 q 663 476 650 465 m 331 806 l 153 660 l 85 671 l 235 828 l 331 806 z "},"":{"ha":581,"x_min":-64,"x_max":707,"o":"m 654 476 l 706 415 q 658 372 694 406 q 603 324 624 342 q 541 269 583 306 q 468 210 499 233 q 392 153 438 186 q 311 99 346 119 q 233 56 276 79 q 156 24 190 33 q 86 12 121 15 q 23 20 51 8 q -28 56 -6 32 q -59 137 -56 86 q -50 237 -62 188 q -8 353 -37 286 q 43 460 21 419 q 96 556 65 501 l 189 556 l 176 533 q 138 466 153 492 q 97 390 124 440 q 55 303 69 339 q 27 226 40 267 q 15 156 14 185 q 31 110 17 126 q 66 90 44 94 q 115 91 88 85 q 170 108 142 97 q 235 142 199 119 q 301 183 271 164 q 370 234 331 203 q 436 286 410 265 q 500 340 463 307 q 556 390 538 374 q 604 432 575 406 q 654 476 642 465 m 186 756 l 68 660 l 0 671 q 150 828 19 693 l 222 828 q 372 671 268 781 l 304 660 l 186 756 z "},"":{"ha":589,"x_min":-49,"x_max":722,"o":"m 669 476 l 721 415 q 674 372 710 406 q 619 324 639 342 q 556 269 599 306 q 483 210 514 233 q 407 153 453 186 q 326 99 361 119 q 249 56 292 79 q 171 24 206 33 q 101 12 136 15 q 38 20 67 8 q -12 56 10 32 q -44 137 -40 86 q -35 237 -47 188 q 7 353 -22 286 q 58 460 36 419 q 111 556 81 501 l 204 556 l 192 533 q 153 466 168 492 q 112 390 139 440 q 70 303 85 339 q 42 226 56 267 q 31 156 29 185 q 46 110 32 126 q 92 88 64 90 q 158 99 121 85 q 233 131 196 113 q 317 185 269 150 q 401 246 365 219 q 485 314 436 272 q 558 376 533 356 q 619 432 582 397 q 669 476 657 465 m 297 668 l 204 668 l 204 749 l 297 749 l 297 668 m 111 668 l 17 668 l 17 749 l 111 749 l 111 668 z "},"":{"ha":992,"x_min":-135,"x_max":1124,"o":"m 1068 389 l 1122 331 q 739 58 957 175 q 432 -22 521 -58 q 383 21 396 -7 q 383 97 371 49 q 497 315 401 164 q 582 479 568 429 q 490 431 550 468 q 210 219 374 356 q -31 10 46 82 q -72 -15 -51 -11 q -110 -6 -93 -18 q -129 25 -125 6 q -122 75 -133 47 q -119 82 -121 79 q 54 358 -32 225 q 178 551 124 465 l 272 551 q 122 315 197 432 q 31 172 68 232 q 447 497 289 396 q 578 561 531 551 q 665 485 676 583 q 564 272 658 421 q 461 76 476 132 q 463 53 456 56 q 701 129 517 31 q 1068 389 910 240 m 386 706 q 346 697 367 714 q 317 665 325 681 q 306 644 308 650 l 251 669 q 253 674 253 672 q 260 686 254 676 q 270 703 265 696 q 284 721 275 710 q 302 740 293 732 q 324 756 311 749 q 349 767 336 764 q 378 769 363 769 q 410 761 393 768 q 489 717 444 747 q 544 692 525 693 q 572 703 558 690 q 592 725 586 715 q 599 738 597 735 l 653 711 q 647 701 651 708 q 633 681 643 694 q 610 657 622 668 q 578 638 597 646 q 540 631 560 631 q 456 667 506 633 q 386 706 415 693 z "},"":{"ha":1019,"x_min":-83,"x_max":1149,"o":"m 1096 390 l 1149 329 q 621 3 832 60 q 440 0 515 -26 q 401 19 419 8 q 114 -14 263 -44 q -67 142 -40 18 q -68 144 -68 143 q -43 304 -83 219 q 69 449 -6 383 q 221 540 138 507 q 410 571 304 572 q 619 521 517 569 l 601 483 q 656 453 635 475 q 676 325 697 407 q 606 185 660 256 q 489 71 556 119 q 600 81 535 63 q 1096 390 794 132 m 339 96 q 321 229 313 156 q 388 383 331 308 q 507 476 443 457 q 298 478 399 506 q 122 388 197 451 q 29 269 60 333 q 11 161 1 210 q 11 158 11 158 q 131 65 28 86 q 344 83 239 42 q 339 96 342 89 m 417 119 q 542 233 489 164 q 599 343 586 292 q 596 399 608 385 q 533 401 582 413 q 451 336 494 392 q 401 219 408 278 q 411 129 394 167 q 417 119 414 124 m 506 671 l 438 660 l 260 806 l 356 828 l 506 671 z "},"":{"ha":997,"x_min":-97,"x_max":1135,"o":"m 1082 390 l 1135 329 q 607 3 818 60 q 426 0 501 -26 q 388 19 406 8 q 100 -14 249 -44 q -81 142 -54 18 q -82 144 -82 143 q -57 304 -97 219 q 56 449 -19 383 q 207 540 124 507 q 397 571 290 572 q 606 521 503 569 l 588 483 q 642 453 621 475 q 663 325 683 407 q 592 185 646 256 q 475 71 542 119 q 586 81 521 63 q 1082 390 781 132 m 325 96 q 307 229 299 156 q 374 383 317 308 q 493 476 429 457 q 284 478 385 506 q 108 388 183 451 q 15 269 46 333 q -3 161 -12 210 q -3 158 -3 158 q 117 65 14 86 q 331 83 225 42 q 325 96 328 89 m 403 119 q 528 233 475 164 q 585 343 572 292 q 582 399 594 385 q 519 401 568 413 q 438 336 481 392 q 388 219 394 278 q 397 129 381 167 q 403 119 400 124 m 543 806 l 365 660 l 297 671 l 447 828 l 543 806 z "},"":{"ha":1019,"x_min":-83,"x_max":1149,"o":"m 1096 390 l 1149 329 q 621 3 832 60 q 440 0 515 -26 q 401 19 419 8 q 114 -14 263 -44 q -67 142 -40 18 q -68 144 -68 143 q -43 304 -83 219 q 69 449 -6 383 q 221 540 138 507 q 410 571 304 572 q 619 521 517 569 l 601 483 q 656 453 635 475 q 676 325 697 407 q 606 185 660 256 q 489 71 556 119 q 600 81 535 63 q 1096 390 794 132 m 339 96 q 321 229 313 156 q 388 383 331 308 q 507 476 443 457 q 298 478 399 506 q 122 388 197 451 q 29 269 60 333 q 11 161 1 210 q 11 158 11 158 q 131 65 28 86 q 344 83 239 42 q 339 96 342 89 m 417 119 q 542 233 489 164 q 599 343 586 292 q 596 399 608 385 q 533 401 582 413 q 451 336 494 392 q 401 219 408 278 q 411 129 394 167 q 417 119 414 124 m 446 756 l 328 660 l 260 671 q 410 828 356 772 l 482 828 q 633 671 521 788 l 564 660 l 446 756 z "},"":{"ha":983,"x_min":-111,"x_max":1121,"o":"m 1068 390 l 1121 329 q 593 3 804 60 q 413 0 488 -26 q 374 19 392 8 q 86 -14 235 -44 q -94 142 -68 18 q -96 144 -96 143 q -71 304 -111 219 q 42 449 -33 383 q 193 540 110 507 q 383 571 276 572 q 592 521 489 569 l 574 483 q 628 453 607 475 q 649 325 669 407 q 578 185 632 256 q 461 71 528 119 q 572 81 507 63 q 1068 390 767 132 m 311 96 q 293 229 285 156 q 360 383 303 308 q 479 476 415 457 q 270 478 371 506 q 94 388 169 451 q 1 269 32 333 q -17 161 -26 210 q -17 158 -17 158 q 103 65 0 86 q 317 83 211 42 q 311 96 314 89 m 389 119 q 514 233 461 164 q 571 343 558 292 q 568 399 581 385 q 506 401 554 413 q 424 336 467 392 q 374 219 381 278 q 383 129 367 167 q 389 119 386 124 m 331 706 q 290 697 311 714 q 261 665 269 681 q 251 644 253 650 l 196 669 q 199 674 197 671 q 205 687 200 678 q 215 703 210 696 q 230 722 221 711 q 248 740 239 732 q 269 756 257 749 q 294 767 282 764 q 322 769 307 769 q 354 761 338 768 q 433 717 389 747 q 489 692 469 693 q 517 703 503 690 q 536 725 531 715 q 543 738 542 735 l 597 711 q 592 701 596 708 q 577 681 588 694 q 554 657 567 668 q 523 638 542 646 q 486 631 504 631 q 400 667 450 633 q 331 706 361 693 z "},"":{"ha":1013,"x_min":-90,"x_max":1142,"o":"m 1089 390 l 1142 329 q 614 3 825 60 q 433 0 508 -26 q 394 19 413 8 q 107 -14 256 -44 q -74 142 -47 18 q -75 144 -75 143 q -50 304 -90 219 q 63 449 -12 383 q 214 540 131 507 q 403 571 297 572 q 613 521 510 569 l 594 483 q 649 453 628 475 q 669 325 690 407 q 599 185 653 256 q 482 71 549 119 q 593 81 528 63 q 1089 390 788 132 m 332 96 q 314 229 306 156 q 381 383 324 308 q 500 476 436 457 q 291 478 392 506 q 115 388 190 451 q 22 269 53 333 q 4 161 -6 210 q 4 158 4 158 q 124 65 21 86 q 338 83 232 42 q 332 96 335 89 m 410 119 q 535 233 482 164 q 592 343 579 292 q 589 399 601 385 q 526 401 575 413 q 444 336 488 392 q 394 219 401 278 q 404 129 388 167 q 410 119 407 124 m 592 668 l 497 668 l 497 749 l 592 749 l 592 668 m 404 668 l 310 668 l 310 749 l 404 749 l 404 668 z "},"":{"ha":999,"x_min":-104,"x_max":1128,"o":"m 1075 390 l 1128 329 q 831 109 963 189 q 600 3 700 29 q 419 0 494 -26 q 381 19 399 8 q 111 -17 250 -40 l 6 -168 l -60 -124 l 29 7 q -87 142 -68 49 q -89 144 -89 143 q -64 304 -104 219 q 49 449 -26 383 q 217 544 122 511 q 417 569 313 578 l 468 643 l 533 599 l 504 556 q 599 521 554 542 l 581 483 q 635 453 614 475 q 656 325 676 407 q 585 185 639 256 q 468 71 535 119 q 581 81 514 63 q 1075 390 774 132 m 163 58 q 324 83 244 51 q 318 96 321 89 q 300 229 292 156 q 310 272 303 250 l 163 58 m 76 75 l 363 490 q 101 388 215 485 q 8 269 39 333 q -10 161 -19 210 q -10 158 -10 158 q 76 75 4 100 m 456 483 l 431 447 q 486 476 458 468 q 456 483 471 481 m 396 119 q 521 233 469 164 q 578 343 565 292 q 575 399 588 385 q 513 401 561 413 q 431 336 474 392 q 381 219 388 278 q 390 129 374 167 q 396 119 393 124 z "},"":{"ha":940,"x_min":-114,"x_max":1074,"o":"m 1019 397 l 1072 338 q 781 101 901 183 q 483 -17 597 -24 q 378 103 372 -11 q 404 204 381 144 q 158 35 272 86 q 3 -12 64 -7 q -68 -1 -40 -17 q -111 68 -108 19 q -90 160 -114 106 q 139 551 -35 286 l 235 551 l 211 514 q -17 128 36 249 q -31 72 -32 92 l -31 69 q -4 68 -24 67 q 125 108 44 72 q 371 283 238 158 q 571 508 496 399 q 597 550 588 535 l 597 549 l 597 551 l 692 551 q 676 527 683 538 q 667 510 669 517 l 665 507 q 643 471 657 492 l 635 457 q 556 331 585 379 q 494 210 528 283 q 458 97 461 138 q 488 64 457 65 q 736 168 575 58 q 1019 397 850 246 m 600 671 l 532 660 l 354 806 l 450 828 l 600 671 z "},"":{"ha":947,"x_min":-107,"x_max":1081,"o":"m 1026 397 l 1079 338 q 788 101 908 183 q 490 -17 604 -24 q 385 103 379 -11 q 411 204 388 144 q 165 35 279 86 q 10 -12 71 -7 q -61 -1 -33 -17 q -104 68 -101 19 q -83 160 -107 106 q 146 551 -28 286 l 242 551 l 218 514 q -10 128 43 249 q -24 72 -25 92 l -24 69 q 3 68 -17 67 q 132 108 51 72 q 378 283 244 158 q 578 508 503 399 q 604 550 596 536 l 604 549 l 604 551 l 699 551 q 683 527 690 538 q 674 510 676 517 l 672 507 q 650 471 664 492 l 642 457 q 563 331 592 379 q 501 210 535 283 q 465 97 468 138 q 494 64 464 65 q 743 168 582 58 q 1026 397 857 246 m 632 806 l 454 660 l 386 671 l 536 828 l 632 806 z "},"":{"ha":947,"x_min":-114,"x_max":1074,"o":"m 1019 397 l 1072 338 q 781 101 901 183 q 483 -17 597 -24 q 378 103 372 -11 q 404 204 381 144 q 158 35 272 86 q 3 -12 64 -7 q -68 -1 -40 -17 q -111 68 -108 19 q -90 160 -114 106 q 139 551 -35 286 l 235 551 l 211 514 q -17 128 36 249 q -31 72 -32 92 l -31 69 q -4 68 -24 67 q 125 108 44 72 q 371 283 238 158 q 571 508 496 399 q 597 550 588 535 l 597 549 l 597 551 l 692 551 q 676 527 683 538 q 667 510 669 517 l 665 507 q 643 471 657 492 l 635 457 q 577 365 599 400 q 524 274 556 331 q 476 173 493 217 q 458 97 460 129 q 488 64 457 65 q 736 168 575 58 q 1019 397 850 246 m 497 756 l 379 660 l 311 671 q 461 828 332 693 l 535 828 q 685 671 572 788 l 615 660 l 497 756 z "},"":{"ha":954,"x_min":-107,"x_max":1081,"o":"m 1026 397 l 1079 338 q 788 101 908 183 q 490 -17 604 -24 q 385 103 379 -11 q 411 204 388 144 q 165 35 279 86 q 10 -12 71 -7 q -61 -1 -33 -17 q -104 68 -101 19 q -83 160 -107 106 q 146 551 -28 286 l 242 551 l 218 514 q -10 128 43 249 q -24 72 -25 92 l -24 69 q 3 68 -17 67 q 132 108 51 72 q 378 283 244 158 q 578 508 503 399 q 604 550 596 536 l 604 549 l 604 551 l 699 551 q 683 527 690 538 q 674 510 676 517 l 672 507 q 650 471 664 492 l 642 457 q 563 331 592 379 q 501 210 535 283 q 465 97 468 138 q 494 64 464 65 q 743 168 582 58 q 1026 397 857 246 m 572 668 l 478 668 l 478 749 l 572 749 l 572 668 m 385 668 l 290 668 l 290 749 l 385 749 l 385 668 z "},"":{"ha":968,"x_min":-825,"x_max":1114,"o":"m 1056 414 l 1113 357 q 544 -43 843 81 q 542 -44 543 -44 q 332 -114 442 -86 q 253 -239 293 -176 q -186 -815 19 -593 q -416 -1005 -308 -947 q -608 -1054 -524 -1062 q -720 -1008 -675 -1049 q -785 -903 -765 -968 q -758 -617 -824 -775 q -660 -451 -724 -531 q -502 -299 -597 -372 q -269 -171 -407 -226 q 33 -90 -132 -115 q 281 -44 189 -65 q 464 276 379 117 q 418 233 442 254 q 131 35 258 92 q -25 -12 38 -7 q -92 -3 -64 -15 q -96 -1 -93 -3 q -137 68 -135 19 q -117 160 -140 106 q 113 551 -62 286 l 208 551 l 185 514 q -43 128 8 249 q -58 72 -60 92 l -58 69 l -57 69 q -32 68 -49 67 q 99 108 17 72 q 365 293 214 160 q 469 393 419 342 q 552 485 518 444 q 600 551 586 525 l 689 551 q 668 504 681 531 q 643 450 654 475 q 393 -12 535 225 q 511 29 454 6 l 513 31 q 1056 414 797 149 m 185 -194 q 221 -139 203 -167 q 46 -169 156 -153 q -235 -243 -107 -193 q -449 -360 -362 -293 q -594 -498 -536 -426 q -685 -647 -653 -569 q -708 -879 -739 -779 q -601 -975 -682 -967 q -444 -929 -535 -981 q -244 -761 -353 -878 q 185 -194 -44 -544 m 492 806 l 314 660 l 246 671 l 396 828 l 492 806 z "},"":{"ha":1018,"x_min":-782,"x_max":1157,"o":"m 1099 414 l 1156 357 q 588 -43 886 81 q 585 -44 586 -44 q 375 -114 485 -86 q 296 -239 336 -176 q -143 -815 63 -593 q -373 -1005 -265 -947 q -565 -1054 -481 -1062 q -677 -1008 -632 -1049 q -742 -903 -722 -968 q -715 -617 -781 -775 q -617 -451 -681 -531 q -459 -299 -554 -372 q -226 -171 -364 -226 q 76 -90 -89 -115 q 324 -44 232 -65 q 507 276 422 117 q 461 233 483 254 q 174 35 301 92 q 18 -12 79 -7 q -49 -3 -21 -15 q -53 -1 -50 -3 q -94 68 -92 19 q -74 160 -97 106 q 156 551 -19 286 l 251 551 l 228 514 q 0 128 51 249 q -15 72 -17 92 l -15 69 l -14 69 q 11 68 -6 67 q 142 108 60 72 q 408 293 257 160 q 512 393 463 342 q 595 485 561 444 q 643 551 629 525 l 732 551 q 711 504 722 531 q 686 450 696 472 q 436 -12 578 225 q 554 29 497 6 l 556 31 q 1099 414 840 149 m 228 -194 q 264 -139 243 -171 q 89 -169 199 -153 q -192 -243 -64 -193 q -407 -360 -319 -293 q -552 -498 -494 -426 q -642 -647 -610 -569 q -665 -879 -696 -779 q -558 -975 -639 -967 q -401 -929 -492 -981 q -201 -761 -310 -878 q 228 -194 -1 -544 m 560 668 l 465 668 l 465 749 l 560 749 l 560 668 m 372 668 l 279 668 l 279 749 l 372 749 l 372 668 z "},"":{"ha":582,"x_min":-56,"x_max":715,"o":"m 663 476 l 714 415 q 667 372 703 406 q 612 324 632 342 q 549 269 592 306 q 476 210 507 233 q 400 153 446 186 q 319 99 354 119 q 242 56 285 79 q 164 24 199 33 q 94 12 129 15 q 31 20 60 8 q -19 56 3 32 q -51 137 -47 86 q -42 237 -54 188 q 0 353 -29 286 q 51 460 29 419 q 104 556 74 501 l 197 556 l 185 533 q 147 465 161 492 q 105 389 132 439 q 63 303 78 339 q 35 226 49 267 q 24 156 22 185 q 39 110 25 126 q 75 90 54 94 q 123 91 96 85 q 178 108 150 97 q 243 142 207 119 q 309 183 279 164 q 378 234 339 203 q 444 286 418 265 q 508 340 471 307 q 565 390 546 374 q 613 432 583 406 q 663 476 650 465 z "},"":{"ha":2213,"x_min":54,"x_max":2476,"o":"m 1733 1526 q 2128 1519 1925 1535 q 2476 1478 2332 1504 l 2463 1399 q 2142 1438 2329 1422 q 1774 1447 1954 1453 l 1331 694 l 1808 694 l 1808 615 l 1285 615 q 1263 576 1274 596 q 1249 556 1254 564 l 972 86 l 1808 78 l 1807 -3 l 903 7 q 874 19 886 7 q 863 47 863 31 q 868 67 863 57 l 906 129 q 844 83 875 103 q 601 -18 736 7 q 325 -32 469 -65 q 274 -17 299 -26 q 74 244 100 40 q 121 592 54 393 q 307 967 183 782 q 486 1188 389 1088 q 693 1365 583 1289 q 925 1478 803 1442 q 1164 1501 1047 1515 q 1293 1471 1238 1493 q 1454 1322 1410 1425 q 1479 1114 1493 1236 q 1478 1101 1478 1108 l 1578 1272 l 1733 1526 m 1399 1124 q 1382 1289 1411 1224 q 1264 1396 1349 1363 q 1156 1422 1218 1414 q 940 1400 1050 1435 q 729 1294 829 1365 q 540 1128 629 1222 q 374 922 450 1035 q 196 567 256 746 q 153 254 136 385 q 299 58 174 101 q 343 47 321 51 q 625 79 496 11 q 804 293 756 147 q 815 332 811 311 q 806 601 874 585 q 788 602 793 600 q 766 599 782 604 q 742 593 750 594 q 716 584 733 592 q 689 572 699 576 q 660 559 679 568 q 633 545 642 550 q 606 531 624 540 q 450 471 492 472 q 378 546 379 469 q 392 636 376 586 q 466 795 414 711 q 588 950 518 879 q 942 1128 760 1122 q 1050 1113 997 1128 l 1028 1036 q 943 1047 986 1049 q 644 894 793 1043 q 535 755 582 831 q 468 614 488 679 q 457 553 458 579 q 568 603 481 557 q 659 647 626 632 q 741 675 692 663 q 824 679 790 688 q 894 314 971 646 q 881 267 889 290 q 842 181 865 222 q 994 339 913 239 q 1185 606 1097 463 l 1228 678 q 1340 911 1294 797 q 1399 1124 1388 1029 z "},"":{"ha":1479,"x_min":-100,"x_max":1613,"o":"m 1556 389 l 1611 331 q 1307 101 1464 190 q 1022 -17 1150 13 q 786 -35 894 -47 q 622 25 688 -22 q 543 132 563 68 q 472 71 508 97 l 474 69 q 472 68 472 69 l 386 19 l 385 19 q 97 -14 246 -44 q -85 142 -57 18 q -85 144 -85 143 q -60 304 -100 219 q 53 449 -22 383 q 204 540 121 507 q 394 571 288 572 q 603 521 500 569 l 585 483 q 639 453 618 475 q 656 426 649 440 q 686 457 672 443 q 853 551 751 515 q 1036 578 956 586 q 1099 560 1071 574 q 1144 515 1131 543 q 1158 464 1158 492 q 1092 342 1157 404 q 953 243 1040 290 q 788 171 875 200 q 628 136 700 142 q 669 89 642 110 q 796 46 717 56 q 1151 111 949 28 q 1556 389 1353 194 m 322 96 q 304 229 296 156 q 371 383 314 308 q 490 476 426 457 q 281 478 382 506 q 106 388 181 451 q 13 269 43 333 q -6 161 -15 210 q -6 158 -6 158 q 114 65 11 86 q 328 83 222 42 q 322 96 325 89 m 582 343 q 579 399 592 385 q 517 401 565 413 q 435 336 478 392 q 385 219 392 278 q 394 129 378 167 q 400 119 397 124 q 525 233 472 164 q 553 276 539 251 q 575 322 561 299 q 582 343 579 335 m 618 215 q 915 313 753 225 q 1036 399 992 356 q 1078 465 1078 439 q 1075 476 1078 471 q 1061 489 1071 483 q 1028 499 1047 496 l 1028 499 q 878 475 964 506 q 740 397 793 444 q 649 289 681 343 q 625 242 640 268 q 618 215 621 226 z "},"":{"ha":1643,"x_min":26,"x_max":1756,"o":"m 1750 1256 q 1751 1222 1751 1238 q 1604 953 1756 1047 q 1314 865 1494 883 q 1221 860 1268 861 l 1219 940 q 1307 946 1264 940 q 1561 1021 1468 961 q 1672 1221 1674 1092 q 1671 1247 1672 1233 q 1628 1361 1663 1318 q 1497 1425 1583 1417 q 1307 1396 1411 1433 q 1155 1316 1226 1367 q 1036 1201 1083 1265 q 989 1130 1008 1164 q 960 1065 969 1096 q 946 1009 951 1035 q 946 958 940 983 q 956 915 951 933 q 976 874 960 896 q 1003 840 993 853 q 1037 807 1014 826 q 1072 778 1060 788 q 1110 749 1085 768 q 1151 717 1138 728 q 1187 688 1165 706 q 1223 652 1208 669 q 1249 617 1238 635 q 1292 369 1322 496 q 1138 139 1261 246 q 928 13 1044 60 q 703 -39 813 -33 q 490 -19 594 -44 q 292 86 369 11 q 189 282 207 167 q 186 375 182 326 q 85 650 26 442 q 138 780 104 717 q 211 893 171 843 q 299 986 251 943 q 390 1059 346 1029 q 476 1110 435 1089 q 603 1140 551 1144 q 678 1056 686 1135 q 550 861 669 985 q 275 432 322 626 q 374 422 318 422 q 482 427 431 422 q 596 444 533 432 q 699 465 658 456 q 788 488 739 474 q 845 504 836 501 q 869 511 854 507 l 894 435 l 893 435 q 867 427 883 432 q 806 410 851 422 q 717 387 761 397 q 610 365 672 376 q 492 349 547 354 q 375 343 436 343 q 264 351 314 343 q 268 294 264 322 q 347 144 282 207 q 511 57 411 85 q 651 40 576 40 q 799 57 725 40 q 948 110 874 74 q 1085 200 1022 146 q 1214 388 1190 289 q 1179 575 1236 482 q 1061 685 1157 614 q 994 736 1017 718 q 936 790 972 754 q 886 855 900 826 q 860 928 872 883 q 858 1018 849 974 q 895 1123 868 1063 q 972 1250 922 1183 q 1107 1381 1025 1322 q 1281 1472 1189 1439 q 1504 1504 1401 1515 q 1690 1413 1625 1493 q 1750 1256 1740 1350 m 597 1064 l 597 1063 l 597 1064 m 163 629 q 201 464 131 515 q 493 917 258 675 q 597 1061 589 1015 q 511 1036 567 1063 q 303 878 406 988 q 163 629 201 769 m 1436 1633 l 1363 1633 q 1294 1706 1346 1651 q 1213 1790 1242 1761 l 1281 1803 l 1399 1706 l 1517 1803 l 1586 1790 q 1512 1713 1563 1765 q 1436 1633 1461 1661 z "},"":{"ha":604,"x_min":-182,"x_max":504,"o":"m 463 528 q 483 476 479 506 q 479 415 488 447 q 378 283 458 344 l 329 347 q 401 438 389 393 q 404 464 406 451 q 397 479 403 472 q 390 485 394 483 q 329 488 364 492 q 256 471 294 483 q 186 439 218 458 q 140 401 156 421 q 139 400 139 401 q 131 381 129 388 q 154 354 132 368 q 192 331 167 346 q 335 221 300 261 q 328 71 406 136 q 143 -14 260 14 q -76 -24 18 -43 q -146 6 -122 -15 q -169 79 -181 35 q -133 138 -162 107 q 58 265 -75 197 l 94 193 q -5 136 40 165 q -75 82 -50 107 q -90 64 -86 71 q -61 56 -81 58 q 125 65 17 40 q 276 132 222 88 q 272 169 292 146 q 149 263 247 200 q 110 286 121 279 q 50 371 56 322 q 75 450 46 411 q 78 453 76 451 q 146 508 101 482 q 284 560 207 544 q 413 561 361 576 q 463 528 442 553 m 354 660 l 281 660 q 213 731 265 675 q 131 817 160 786 l 199 828 l 317 731 l 435 828 l 504 817 q 354 660 475 786 z "},"":{"ha":2235,"x_min":67,"x_max":2431,"o":"m 2408 1521 q 2410 1460 2431 1503 q 2408 1457 2410 1458 l 2408 1456 q 2361 1375 2399 1435 q 1526 -99 1803 492 q 1683 -146 1579 -112 q 1793 -179 1756 -168 q 1897 -206 1831 -190 q 2006 -227 1963 -222 q 2105 -231 2050 -232 q 2207 -217 2160 -229 l 2228 -296 q 2113 -310 2174 -308 q 2004 -308 2053 -312 q 1886 -286 1956 -303 q 1776 -258 1817 -269 q 1658 -222 1736 -246 q 1492 -172 1547 -187 q 1438 -297 1463 -236 q 1186 -721 1328 -554 q 879 -942 1035 -897 q 644 -894 724 -986 q 594 -717 590 -829 q 646 -497 597 -614 q 714 -369 674 -432 q 809 -251 754 -307 q 926 -151 864 -194 q 1067 -83 989 -108 q 1226 -54 1144 -57 q 1447 -78 1325 -51 q 1892 758 1618 289 q 1751 590 1819 668 q 1603 433 1682 513 q 1447 288 1524 353 q 1285 166 1371 224 q 1117 69 1200 108 q 942 6 1033 29 q 761 -21 850 -18 q 594 14 661 -24 q 528 81 551 39 q 501 178 503 122 q 586 440 499 289 l 1106 1339 q 1139 1400 1126 1375 q 1121 1386 1131 1394 q 1034 1304 1086 1360 q 944 1203 982 1249 q 832 1071 906 1158 q 736 955 769 994 q 641 846 703 915 q 540 738 579 776 q 446 651 501 700 q 349 576 390 601 q 263 534 308 551 q 179 519 218 517 q 117 539 143 522 q 69 629 72 569 q 100 751 67 682 q 418 1132 176 913 l 472 1072 q 172 718 242 864 q 150 633 149 665 q 161 606 150 614 q 185 600 169 600 q 242 608 211 597 q 308 644 272 618 q 377 694 344 669 q 455 765 410 719 q 531 844 500 811 q 613 936 563 878 q 691 1027 664 994 q 771 1122 718 1060 q 885 1258 846 1213 q 979 1362 925 1304 q 1071 1450 1033 1419 q 1158 1500 1124 1490 q 1213 1492 1190 1507 q 1233 1436 1236 1472 q 1175 1299 1229 1392 l 656 400 q 582 181 579 268 q 597 121 582 146 q 635 83 610 99 q 758 58 681 57 q 994 108 874 63 q 1216 215 1115 153 q 1436 387 1317 276 q 1637 583 1556 497 q 1832 813 1718 668 q 2005 1038 1946 958 q 2168 1263 2064 1117 q 2344 1506 2292 1435 q 2353 1514 2349 1510 q 2363 1522 2357 1519 q 2408 1521 2385 1539 m 1364 -267 q 1413 -153 1386 -211 q 1228 -135 1310 -132 q 1090 -160 1157 -136 q 967 -221 1022 -183 q 863 -309 911 -258 q 780 -415 815 -360 q 719 -529 744 -469 q 674 -718 676 -631 q 707 -842 672 -801 q 858 -864 751 -894 q 1125 -669 990 -826 q 1364 -267 1260 -511 m 1931 1658 l 1836 1658 l 1836 1740 l 1931 1740 l 1931 1658 m 1743 1658 l 1649 1658 l 1649 1740 l 1743 1740 l 1743 1658 z "},"":{"ha":804,"x_min":-372,"x_max":944,"o":"m 944 329 q 823 240 907 296 q 669 139 739 183 q 463 11 599 94 q 322 -75 378 -42 q 335 -96 329 -85 q 349 -264 372 -171 q 203 -510 321 -381 q 1 -658 118 -603 q -210 -718 -115 -714 q -318 -694 -276 -719 q -369 -600 -371 -662 q -197 -336 -367 -496 q 192 -62 -106 -250 q 179 -57 185 -60 q -54 -26 89 -15 q -93 -4 -81 -28 q -95 26 -100 11 q -75 50 -90 42 q -5 88 -57 58 q 151 186 47 117 q 321 321 254 256 q 376 400 368 367 q 374 426 381 417 q 344 450 367 440 q 229 464 296 471 q 149 439 185 458 q 92 394 113 419 q 104 399 96 396 l 126 321 q 28 324 61 301 q 0 385 -6 344 q 22 436 3 410 q 103 505 50 474 q 221 543 157 536 q 378 522 308 553 q 442 469 421 503 q 454 379 468 429 q 376 263 440 325 q 89 50 271 161 q 211 17 158 40 q 267 -15 242 3 q 421 79 319 17 q 892 389 817 324 l 944 329 m 271 -246 q 263 -132 288 -179 q 256 -118 260 -124 q -142 -394 -54 -311 q -289 -601 -287 -532 q -276 -626 -290 -618 q -212 -637 -256 -639 q -31 -586 -132 -635 q 143 -456 69 -537 q 271 -246 247 -342 m 374 660 l 300 660 q 214 750 271 690 q 150 817 157 810 l 219 828 l 338 731 l 456 828 l 524 817 q 450 739 500 792 q 374 660 400 686 z "},"":{"ha":743,"x_min":67,"x_max":676,"o":"m 654 371 q 671 363 665 371 q 674 344 676 356 l 656 281 q 649 267 654 274 q 636 258 643 261 q 622 254 629 254 l 90 254 q 74 263 79 254 q 71 281 68 271 l 88 344 q 101 363 92 356 q 122 371 111 371 l 654 371 z "},"":{"ha":1014,"x_min":67,"x_max":946,"o":"m 924 371 q 940 363 935 371 q 943 344 946 356 l 925 281 q 913 263 922 271 q 892 254 903 254 l 90 254 q 74 263 79 254 q 71 281 68 271 l 88 344 q 101 363 90 356 q 122 371 111 371 l 924 371 z "},"":{"ha":314,"x_min":67,"x_max":247,"o":"m 219 1610 q 240 1600 233 1610 q 243 1576 247 1590 l 221 1497 q 217 1486 219 1492 q 210 1477 214 1481 q 201 1470 206 1474 q 190 1465 196 1467 q 179 1464 185 1464 l 94 1464 q 74 1474 81 1464 q 71 1497 67 1483 l 93 1576 q 94 1582 93 1579 l 121 1674 q 153 1692 126 1693 l 178 1692 q 194 1680 189 1690 q 197 1658 200 1669 l 183 1610 l 219 1610 z "},"":{"ha":314,"x_min":67,"x_max":247,"o":"m 219 144 q 240 134 233 144 q 243 111 247 124 l 221 31 q 219 26 221 29 l 194 -67 q 161 -85 189 -86 l 136 -83 q 124 -78 129 -83 q 117 -66 118 -74 q 117 -51 115 -58 l 131 -3 l 94 -3 q 74 7 81 -3 q 71 31 67 17 l 93 111 q 108 134 96 124 q 135 144 121 144 l 219 144 z "},"":{"ha":535,"x_min":67,"x_max":468,"o":"m 219 1610 q 240 1600 233 1610 q 243 1576 247 1590 l 221 1497 q 206 1474 218 1483 q 179 1464 193 1464 l 94 1464 q 74 1474 81 1464 q 71 1497 67 1483 l 93 1576 q 94 1582 93 1579 l 121 1674 q 153 1692 126 1693 l 178 1692 q 194 1680 189 1690 q 197 1658 200 1669 l 183 1610 l 219 1610 m 439 1610 q 460 1600 453 1610 q 464 1576 467 1590 l 442 1497 q 435 1484 440 1490 q 425 1473 431 1478 q 413 1466 419 1468 q 399 1464 406 1464 l 315 1464 q 294 1474 301 1464 q 290 1497 288 1483 l 313 1576 q 314 1582 314 1579 l 340 1674 q 374 1692 346 1693 l 399 1692 q 414 1680 408 1690 q 417 1658 419 1669 l 403 1610 l 439 1610 z "},"":{"ha":535,"x_min":67,"x_max":468,"o":"m 439 1692 q 460 1682 453 1692 q 464 1658 467 1672 l 442 1579 q 440 1574 440 1576 l 414 1482 q 381 1464 408 1463 l 356 1464 q 340 1476 346 1465 q 338 1497 335 1486 l 351 1546 l 315 1546 q 294 1556 301 1546 q 290 1579 288 1565 l 313 1658 q 322 1676 315 1668 q 337 1688 328 1683 q 356 1692 346 1692 l 439 1692 m 219 1692 q 240 1682 233 1692 q 243 1658 247 1672 l 221 1579 q 219 1574 221 1576 l 194 1482 q 161 1464 189 1463 l 136 1464 q 119 1476 125 1465 q 117 1497 114 1486 l 131 1546 l 94 1546 q 74 1556 81 1546 q 71 1579 67 1565 l 93 1658 q 101 1676 94 1668 q 117 1688 108 1683 q 135 1692 126 1692 l 219 1692 z "},"":{"ha":519,"x_min":67,"x_max":453,"o":"m 219 144 q 235 140 228 144 q 244 127 242 135 q 243 111 246 119 l 221 31 q 219 26 221 29 l 194 -67 q 161 -85 189 -86 l 136 -83 q 124 -78 129 -83 q 117 -66 118 -74 q 117 -51 115 -58 l 131 -3 l 94 -3 q 74 7 81 -3 q 71 31 67 17 l 93 111 q 108 134 96 124 q 135 144 121 144 l 219 144 m 424 144 q 444 134 438 144 q 449 111 451 124 l 426 31 q 425 26 425 29 l 399 -67 q 365 -85 393 -86 l 340 -83 q 328 -78 333 -83 q 322 -66 324 -74 q 322 -51 321 -58 l 336 -3 l 300 -3 q 279 7 286 -3 q 275 31 272 17 l 297 111 q 314 134 301 124 q 340 144 326 144 l 424 144 z "},"":{"ha":847,"x_min":68,"x_max":779,"o":"m 510 751 l 778 751 l 778 672 l 469 672 l 142 -1 l 69 33 l 381 671 l 111 671 l 111 751 l 419 751 l 582 1085 l 654 1049 l 510 751 z "},"":{"ha":550,"x_min":69,"x_max":482,"o":"m 130 473 q 160 503 130 473 q 276 533 190 533 q 421 473 361 533 q 481 327 481 413 q 421 182 481 242 q 276 122 361 122 q 130 182 190 122 q 69 327 69 242 q 130 473 69 413 z "},"":{"ha":842,"x_min":67,"x_max":775,"o":"m 219 144 q 240 134 233 144 q 243 111 247 124 l 221 31 q 206 7 218 17 q 179 -3 193 -3 l 94 -3 q 74 7 81 -3 q 71 31 67 17 l 93 111 q 108 134 96 124 q 135 144 121 144 l 219 144 m 485 144 q 506 134 499 144 q 508 111 513 124 l 488 31 q 471 7 483 17 q 444 -3 458 -3 l 361 -3 q 340 7 347 -3 q 336 31 332 17 l 358 111 q 375 134 363 124 q 401 144 388 144 l 485 144 m 747 144 q 768 134 761 144 q 771 111 775 124 l 749 31 q 733 7 746 17 q 707 -3 721 -3 l 622 -3 q 601 7 608 -3 q 599 31 594 17 l 621 111 q 636 134 624 124 q 663 144 649 144 l 747 144 z "},"":{"ha":633,"x_min":68,"x_max":567,"o":"m 210 565 l 560 96 q 564 77 567 86 q 550 64 561 68 l 489 40 q 466 40 478 36 q 447 51 454 43 l 74 551 q 69 565 69 558 q 74 579 69 572 l 447 1079 q 466 1092 454 1089 q 489 1090 478 1094 l 550 1067 q 564 1053 561 1063 q 560 1036 567 1044 l 210 565 z "},"":{"ha":633,"x_min":67,"x_max":565,"o":"m 560 579 q 564 565 565 572 q 560 551 565 558 l 188 51 q 168 40 181 43 q 146 40 156 36 l 83 64 q 71 77 74 68 q 74 96 68 86 l 425 565 l 74 1036 q 71 1053 68 1044 q 83 1067 74 1063 l 146 1092 q 168 1092 156 1094 q 188 1079 181 1089 l 560 579 z "},"":{"ha":1228,"x_min":69,"x_max":1160,"o":"m 1125 918 q 1158 847 1147 888 l 1081 826 q 1060 872 1074 851 q 968 928 1029 915 q 814 915 903 940 q 589 803 704 885 q 463 699 522 757 l 775 699 l 775 618 l 389 618 q 300 490 338 556 q 279 451 289 471 l 635 451 l 635 371 l 246 371 q 232 193 213 267 q 254 147 239 168 q 344 92 285 104 q 499 103 411 79 q 725 215 608 135 l 771 150 q 644 74 707 106 q 521 26 581 43 q 329 14 414 -4 q 188 101 238 32 q 156 172 167 132 q 163 371 132 257 l 69 371 l 69 451 l 192 451 q 231 529 210 493 q 288 618 256 574 l 210 618 l 210 699 l 353 699 q 543 869 439 796 q 793 993 669 958 q 985 1006 900 1022 q 1125 918 1076 988 z "},"":{"ha":314,"x_min":67,"x_max":249,"o":"m 219 1610 q 240 1600 233 1610 q 243 1576 247 1590 l 221 1497 q 217 1486 219 1492 q 210 1477 214 1481 q 201 1470 206 1474 q 190 1465 196 1467 q 179 1464 185 1464 l 94 1464 q 74 1474 81 1464 q 71 1497 67 1483 l 93 1576 q 94 1582 93 1579 l 121 1674 q 153 1692 126 1693 l 178 1692 q 194 1680 189 1690 q 197 1658 200 1669 l 183 1610 l 219 1610 z "},"":{"ha":535,"x_min":67,"x_max":468,"o":"m 219 1610 q 240 1600 233 1610 q 243 1576 247 1590 l 221 1497 q 217 1486 219 1492 q 210 1477 214 1481 q 201 1470 206 1474 q 190 1465 196 1467 q 179 1464 185 1464 l 94 1464 q 74 1474 81 1464 q 71 1497 67 1483 l 93 1576 q 94 1582 93 1579 l 121 1674 q 153 1692 126 1693 l 178 1692 q 194 1680 189 1690 q 197 1658 200 1669 l 183 1610 l 219 1610 m 439 1610 q 460 1600 453 1610 q 464 1576 467 1590 l 442 1497 q 425 1474 438 1483 q 399 1464 413 1464 l 315 1464 q 294 1474 301 1464 q 290 1497 288 1483 l 313 1576 q 314 1582 314 1579 l 340 1674 q 374 1692 346 1693 l 399 1692 q 414 1680 408 1690 q 417 1658 419 1669 l 403 1610 l 439 1610 z "},"":{"ha":1676,"x_min":-19,"x_max":1976,"o":"m 149 453 q 885 964 590 735 q 1311 1368 1206 1214 q 1368 1522 1369 1453 q 1353 1582 1367 1556 q 1317 1622 1340 1606 q 1226 1647 1278 1647 q 1001 1552 1135 1644 q 733 1316 868 1460 q 469 996 599 1172 q 244 649 339 819 q 149 453 188 544 m 983 340 l 968 331 q 929 119 913 190 q 960 79 938 90 q 1240 126 1033 43 q 1496 255 1364 178 q 1708 396 1628 332 l 1758 333 q 1536 185 1674 267 q 1271 53 1399 104 q 925 7 1031 -44 q 851 100 868 35 q 857 243 838 157 q 582 85 726 149 q 192 -10 360 -14 q 17 101 57 -6 q 29 358 -19 194 q 175 688 72 503 q 410 1049 274 865 q 691 1382 547 1232 q 978 1628 835 1532 q 1225 1726 1122 1725 q 1361 1689 1303 1729 q 1424 1619 1400 1661 q 1447 1525 1447 1576 q 1378 1322 1450 1428 q 933 900 1264 1157 q 106 331 610 649 q 92 129 65 197 q 193 71 113 72 q 549 157 344 67 q 903 382 746 246 q 914 407 908 394 q 1136 785 992 583 q 1486 1177 1303 1015 q 1793 1342 1669 1339 q 1904 1310 1856 1343 q 1954 1254 1936 1288 q 1974 1176 1974 1219 q 1918 1017 1976 1100 q 1883 970 1903 993 q 1831 919 1863 947 q 1774 867 1800 890 q 1699 809 1747 844 q 1617 749 1650 774 q 1516 681 1583 725 q 1407 609 1449 636 q 1278 526 1365 582 q 1140 439 1190 471 q 983 340 1090 407 m 1031 465 q 1613 845 1438 721 q 1853 1061 1789 969 q 1894 1175 1894 1124 q 1883 1215 1893 1197 q 1858 1243 1875 1232 q 1794 1261 1832 1263 q 1524 1107 1690 1258 q 1201 738 1357 956 q 1031 465 1100 597 z "},"":{"ha":696,"x_min":-111,"x_max":786,"o":"m 728 1349 q 582 1149 679 1289 q 388 854 485 1008 q 446 825 424 836 q 502 800 468 814 q 564 779 536 786 q 625 767 592 772 q 693 762 658 761 q 764 769 728 763 l 778 692 q 694 681 735 683 q 615 686 654 679 q 544 701 575 693 q 474 725 514 708 q 410 753 435 742 q 344 786 386 764 q 278 675 308 728 q 44 193 90 358 q 36 100 29 133 q 60 69 42 78 q 131 68 83 60 q 414 193 242 86 q 604 315 515 257 q 739 404 696 375 l 785 339 q 649 247 746 311 q 456 125 554 186 q 143 -11 271 10 q 29 -4 75 -24 q -42 82 -28 19 q -32 214 -54 135 q 208 717 17 392 q 272 821 238 767 q 92 885 179 865 q -101 892 4 904 l -111 971 q -9 976 -61 979 q 82 969 43 974 q 165 950 121 964 q 242 922 210 936 q 314 890 275 908 q 626 1349 479 1149 l 728 1349 z "}}}
